<svg width="48" height="43" viewBox="0 0 48 43" fill="none" xmlns="http://www.w3.org/2000/svg">
<path d="M33.3333 8L33.2583 8.055C32.8917 8.01833 32.45 8 32 8H21.3333C19.9583 8 18.625 8.17333 17.35 8.5C17.3417 8.33333 17.3333 8.16833 17.3333 8C17.3333 3.58167 20.8417 0 25.3333 0C29.75 0 33.3333 3.58167 33.3333 8ZM32 10.6667C32.2917 10.6667 32.5083 10.675 32.8667 10.6917C33.225 10.7167 33.575 10.75 33.9167 10.8C35.3833 9.09167 37.5667 8 40 8H42.6667L41.1 14.2583C42.425 15.4917 43.4917 16.9917 44.225 18.6667H45.3333C46.8083 18.6667 48 19.8583 48 21.3333V29.3333C48 30.8083 46.8083 32 45.3333 32H42.6667C41.9083 33.0083 41.0083 33.9083 40 34.6667V40C40 41.475 38.8083 42.6667 37.3333 42.6667H34.6667C33.1917 42.6667 32 41.475 32 40V37.3333H21.3333V40C21.3333 41.475 20.1417 42.6667 18.6667 42.6667H16C14.525 42.6667 13.3333 41.475 13.3333 40V34.6667C10.425 32.4833 8.44167 29.15 8.06583 25.3333H5.66667C2.53667 25.3333 0 22.8 0 19.6667C0 16.5333 2.53667 14 5.66667 14H6C7.10417 14 8 14.8917 8 16C8 17.1083 7.10417 18 6 18H5.66667C4.74583 18 4 18.675 4 19.6667C4 20.5833 4.74583 21.3333 5.66667 21.3333H8.26667C9.275 16.35 13.075 12.375 17.9583 11.1C19.0333 10.8167 20.0917 10.6667 21.3333 10.6667H32ZM35.3333 20C34.225 20 33.3333 20.8917 33.3333 22C33.3333 23.1083 34.225 24 35.3333 24C36.4417 24 37.3333 23.1083 37.3333 22C37.3333 20.8917 36.4417 20 35.3333 20Z" fill="#30D6B0"/>
</svg>
