<svg width="36" height="48" viewBox="0 0 36 48" fill="none" xmlns="http://www.w3.org/2000/svg">
<path d="M0 6C0 4.4087 0.632141 2.88258 1.75736 1.75736C2.88258 0.632141 4.4087 0 6 0L30 0C31.5913 0 33.1174 0.632141 34.2426 1.75736C35.3679 2.88258 36 4.4087 36 6V42C36 43.5913 35.3679 45.1174 34.2426 46.2426C33.1174 47.3679 31.5913 48 30 48H6C4.4087 48 2.88258 47.3679 1.75736 46.2426C0.632141 45.1174 0 43.5913 0 42V6ZM6 7.5V13.5C6 13.8978 6.15804 14.2794 6.43934 14.5607C6.72064 14.842 7.10218 15 7.5 15H28.5C28.8978 15 29.2794 14.842 29.5607 14.5607C29.842 14.2794 30 13.8978 30 13.5V7.5C30 7.10218 29.842 6.72064 29.5607 6.43934C29.2794 6.15804 28.8978 6 28.5 6H7.5C7.10218 6 6.72064 6.15804 6.43934 6.43934C6.15804 6.72064 6 7.10218 6 7.5ZM6 19.5V22.5C6 22.8978 6.15804 23.2794 6.43934 23.5607C6.72064 23.842 7.10218 24 7.5 24H10.5C10.8978 24 11.2794 23.842 11.5607 23.5607C11.842 23.2794 12 22.8978 12 22.5V19.5C12 19.1022 11.842 18.7206 11.5607 18.4393C11.2794 18.158 10.8978 18 10.5 18H7.5C7.10218 18 6.72064 18.158 6.43934 18.4393C6.15804 18.7206 6 19.1022 6 19.5ZM7.5 27C7.10218 27 6.72064 27.158 6.43934 27.4393C6.15804 27.7206 6 28.1022 6 28.5V31.5C6 31.8978 6.15804 32.2794 6.43934 32.5607C6.72064 32.842 7.10218 33 7.5 33H10.5C10.8978 33 11.2794 32.842 11.5607 32.5607C11.842 32.2794 12 31.8978 12 31.5V28.5C12 28.1022 11.842 27.7206 11.5607 27.4393C11.2794 27.158 10.8978 27 10.5 27H7.5ZM6 37.5V40.5C6 40.8978 6.15804 41.2794 6.43934 41.5607C6.72064 41.842 7.10218 42 7.5 42H10.5C10.8978 42 11.2794 41.842 11.5607 41.5607C11.842 41.2794 12 40.8978 12 40.5V37.5C12 37.1022 11.842 36.7206 11.5607 36.4393C11.2794 36.158 10.8978 36 10.5 36H7.5C7.10218 36 6.72064 36.158 6.43934 36.4393C6.15804 36.7206 6 37.1022 6 37.5ZM16.5 18C16.1022 18 15.7206 18.158 15.4393 18.4393C15.158 18.7206 15 19.1022 15 19.5V22.5C15 22.8978 15.158 23.2794 15.4393 23.5607C15.7206 23.842 16.1022 24 16.5 24H19.5C19.8978 24 20.2794 23.842 20.5607 23.5607C20.842 23.2794 21 22.8978 21 22.5V19.5C21 19.1022 20.842 18.7206 20.5607 18.4393C20.2794 18.158 19.8978 18 19.5 18H16.5ZM15 28.5V31.5C15 31.8978 15.158 32.2794 15.4393 32.5607C15.7206 32.842 16.1022 33 16.5 33H19.5C19.8978 33 20.2794 32.842 20.5607 32.5607C20.842 32.2794 21 31.8978 21 31.5V28.5C21 28.1022 20.842 27.7206 20.5607 27.4393C20.2794 27.158 19.8978 27 19.5 27H16.5C16.1022 27 15.7206 27.158 15.4393 27.4393C15.158 27.7206 15 28.1022 15 28.5ZM16.5 36C16.1022 36 15.7206 36.158 15.4393 36.4393C15.158 36.7206 15 37.1022 15 37.5V40.5C15 40.8978 15.158 41.2794 15.4393 41.5607C15.7206 41.842 16.1022 42 16.5 42H19.5C19.8978 42 20.2794 41.842 20.5607 41.5607C20.842 41.2794 21 40.8978 21 40.5V37.5C21 37.1022 20.842 36.7206 20.5607 36.4393C20.2794 36.158 19.8978 36 19.5 36H16.5ZM24 19.5V22.5C24 22.8978 24.158 23.2794 24.4393 23.5607C24.7206 23.842 25.1022 24 25.5 24H28.5C28.8978 24 29.2794 23.842 29.5607 23.5607C29.842 23.2794 30 22.8978 30 22.5V19.5C30 19.1022 29.842 18.7206 29.5607 18.4393C29.2794 18.158 28.8978 18 28.5 18H25.5C25.1022 18 24.7206 18.158 24.4393 18.4393C24.158 18.7206 24 19.1022 24 19.5ZM25.5 27C25.1022 27 24.7206 27.158 24.4393 27.4393C24.158 27.7206 24 28.1022 24 28.5V40.5C24 40.8978 24.158 41.2794 24.4393 41.5607C24.7206 41.842 25.1022 42 25.5 42H28.5C28.8978 42 29.2794 41.842 29.5607 41.5607C29.842 41.2794 30 40.8978 30 40.5V28.5C30 28.1022 29.842 27.7206 29.5607 27.4393C29.2794 27.158 28.8978 27 28.5 27H25.5Z" fill="#30D6B0"/>
</svg>
