<svg width="40" height="40" viewBox="0 0 40 40" fill="none" xmlns="http://www.w3.org/2000/svg">
<path d="M35.93 13.042C35.976 12.694 36 12.346 36 12C36 7.242 31.714 3.424 26.958 4.07C25.572 1.604 22.932 0 20 0C17.068 0 14.428 1.604 13.042 4.07C8.276 3.424 4 7.242 4 12C4 12.346 4.024 12.694 4.07 13.042C1.604 14.43 0 17.07 0 20C0 22.93 1.604 25.57 4.07 26.958C4.02386 27.3034 4.00048 27.6515 4 28C4 32.758 8.276 36.566 13.042 35.93C14.428 38.396 17.068 40 20 40C22.932 40 25.572 38.396 26.958 35.93C31.714 36.566 36 32.758 36 28C36 27.654 35.976 27.306 35.93 26.958C38.396 25.57 40 22.93 40 20C40 17.07 38.396 14.43 35.93 13.042ZM17.91 28.832L10.576 21.404L13.424 18.596L17.938 23.168L26.592 14.58L29.408 17.42L17.91 28.832Z" fill="#30D6B0"/>
</svg>
