<svg width="40" height="32" viewBox="0 0 40 32" fill="none" xmlns="http://www.w3.org/2000/svg">
<path d="M36 0H4C1.794 0 0 1.794 0 4V28C0 30.206 1.794 32 4 32H36C38.206 32 40 30.206 40 28V4C40 1.794 38.206 0 36 0ZM21 24C19.6739 24 18.4021 23.4732 17.4645 22.5355C16.5268 21.5979 16 20.3261 16 19C16 17.6739 16.5268 16.4021 17.4645 15.4645C18.4021 14.5268 19.6739 14 21 14C22.0853 14.0025 23.1396 14.3624 24 15.024C22.792 15.936 22 17.37 22 19C22 20.63 22.792 22.064 24 22.976C23.1396 23.6376 22.0853 23.9975 21 24ZM29 24C27.6739 24 26.4021 23.4732 25.4645 22.5355C24.5268 21.5979 24 20.3261 24 19C24 17.6739 24.5268 16.4021 25.4645 15.4645C26.4021 14.5268 27.6739 14 29 14C30.3261 14 31.5979 14.5268 32.5355 15.4645C33.4732 16.4021 34 17.6739 34 19C34 20.3261 33.4732 21.5979 32.5355 22.5355C31.5979 23.4732 30.3261 24 29 24Z" fill="#30D6B0"/>
</svg>
