<svg width="48" height="48" viewBox="0 0 48 48" fill="none" xmlns="http://www.w3.org/2000/svg">
<circle cx="24" cy="24" r="24" fill="#BEDEF5"/>
<path d="M34 21.38L27.4 26.78C26.4424 27.5727 25.2382 28.0064 23.995 28.0064C22.7518 28.0064 21.5476 27.5727 20.59 26.78L14 21.38L12 19.75V29C12 30.3261 12.5268 31.5979 13.4645 32.5355C14.4021 33.4732 15.6739 34 17 34H31C32.3261 34 33.5979 33.4732 34.5355 32.5355C35.4732 31.5979 36 30.3261 36 29V19.75L34 21.38ZM31 32H29C28.7348 32 28.4804 31.8946 28.2929 31.7071C28.1054 31.5196 28 31.2652 28 31C28 30.7348 28.1054 30.4804 28.2929 30.2929C28.4804 30.1054 28.7348 30 29 30H31C31.2652 30 31.5196 30.1054 31.7071 30.2929C31.8946 30.4804 32 30.7348 32 31C32 31.2652 31.8946 31.5196 31.7071 31.7071C31.5196 31.8946 31.2652 32 31 32Z" fill="#2B74B9"/>
<path d="M14 18.8L21.85 25.23C22.4552 25.7291 23.2156 26.0014 24 26C24.7783 26.0009 25.5322 25.7284 26.13 25.23L34 18.8L35.15 17.86C35.3306 17.7133 35.4544 17.5082 35.5 17.28C35.5456 17.0518 35.5103 16.8149 35.4 16.61C34.9696 15.8191 34.3335 15.1591 33.5591 14.6997C32.7846 14.2403 31.9005 13.9985 31 14H17C16.1012 14.0003 15.2192 14.2429 14.4466 14.7022C13.6741 15.1615 13.0396 15.8206 12.61 16.61C12.4997 16.8149 12.4644 17.0518 12.51 17.28C12.5556 17.5082 12.6794 17.7133 12.86 17.86L14 18.8Z" fill="#2B74B9"/>
</svg>
