<svg width="81" height="96" viewBox="0 0 81 96" fill="none" xmlns="http://www.w3.org/2000/svg">
<path opacity="0.2" d="M36.433 90.7654C56.5543 90.7654 72.8659 74.4538 72.8659 54.3324C72.8659 34.211 56.5543 17.8994 36.433 17.8994C16.3116 17.8994 0 34.211 0 54.3324C0 74.4538 16.3116 90.7654 36.433 90.7654Z" fill="#BFDCF2"/>
<path d="M2.83864 84.8899C1.28015 81.5309 0.472022 77.8727 0.470461 74.1698C0.4689 70.4668 1.27394 66.8079 2.8296 63.4476C4.38525 60.0873 6.65419 57.1061 9.47863 54.7115C12.3031 52.3168 15.6152 50.5661 19.1848 49.5811L21.3526 57.4183C18.921 58.0885 16.6646 59.2804 14.7403 60.9111C12.8161 62.5418 11.2701 64.5721 10.2101 66.8609C9.14998 69.1496 8.60123 71.6418 8.60197 74.1641C8.6027 76.6864 9.1529 79.1782 10.2143 81.4664L2.83864 84.8899Z" fill="#BFDCF2"/>
<path d="M3.264 95.6333C2.81362 95.6336 2.37194 95.5093 1.9879 95.274C1.60385 95.0388 1.29244 94.7018 1.08816 94.3004C0.517404 93.1795 0.173005 91.9572 0.0746287 90.7032C-0.0237474 89.4493 0.125827 88.1882 0.514811 86.992C1.3004 84.5763 3.01347 82.5716 5.27716 81.4189C6.39803 80.8481 7.62034 80.5037 8.8743 80.4053C10.1283 80.3069 11.3893 80.4565 12.5855 80.8455C15.0012 81.6311 17.006 83.3442 18.1587 85.6078C18.3069 85.8936 18.3971 86.2059 18.4241 86.5267C18.451 86.8474 18.4143 87.1704 18.3159 87.4769C18.2175 87.7834 18.0594 88.0674 17.8507 88.3125C17.642 88.5576 17.3869 88.759 17.1 88.9051C16.8132 89.0512 16.5002 89.139 16.1792 89.1636C15.8583 89.1882 15.5356 89.149 15.2299 89.0483C14.9241 88.9476 14.6413 88.7873 14.3977 88.5768C14.1542 88.3663 13.9547 88.1097 13.8108 87.8217C13.5316 87.2704 13.1464 86.7796 12.6773 86.3774C12.2082 85.9751 11.6643 85.6693 11.0769 85.4776C10.4894 85.2858 9.86989 85.2118 9.25379 85.2598C8.63768 85.3078 8.03709 85.4768 7.48641 85.7572C6.93572 86.0376 6.44576 86.4239 6.04456 86.8939C5.64337 87.3639 5.33882 87.9085 5.14837 88.4964C4.95792 89.0843 4.88529 89.704 4.93466 90.3199C4.98402 90.9359 5.1544 91.5361 5.43605 92.0862C5.6252 92.458 5.71588 92.8721 5.69944 93.289C5.68299 93.7058 5.55997 94.1115 5.34212 94.4672C5.12426 94.823 4.81885 95.1169 4.45503 95.3211C4.09122 95.5252 3.68116 95.6326 3.264 95.6332V95.6333Z" fill="#292A2E"/>
<path d="M66.3167 54.0889C62.89 57.0155 58.7439 58.9737 54.3069 59.7612L52.8752 51.7561C56.8202 51.0451 60.3978 48.9913 63.001 45.943C65.6042 42.8948 67.0728 39.0399 67.1576 35.0322L75.2873 35.2018C75.1613 41.7327 72.5227 47.9638 67.9202 52.5991C67.4041 53.1206 66.8696 53.6172 66.3167 54.0889Z" fill="#BFDCF2"/>
<path d="M77.6245 34.9691C76.2408 36.1447 74.5515 36.9028 72.7535 37.1551C70.9554 37.4074 69.1227 37.1434 67.4689 36.394C65.8152 35.6446 64.4084 34.4406 63.4127 32.9223C62.417 31.4041 61.8733 29.6341 61.845 27.8186C61.8387 27.1741 62.0877 26.5533 62.5377 26.0918C62.9877 25.6303 63.602 25.3656 64.2465 25.3556C64.8909 25.3455 65.5132 25.5909 65.9773 26.0382C66.4414 26.4855 66.7097 27.0982 66.7235 27.7426C66.7429 28.9887 67.2565 30.1761 68.1513 31.0436C69.0461 31.911 70.2489 32.3874 71.495 32.3681C72.7411 32.3487 73.9285 31.8351 74.7959 30.9403C75.6634 30.0455 76.1398 28.8427 76.1204 27.5966C76.1104 26.9497 76.3577 26.3252 76.808 25.8607C77.2584 25.3961 77.8748 25.1295 78.5217 25.1194C79.1686 25.1094 79.793 25.3567 80.2576 25.807C80.7222 26.2574 80.9888 26.8738 80.9988 27.5207C81.0218 28.7788 80.795 30.029 80.3316 31.1989C79.8682 32.3688 79.1773 33.4352 78.299 34.3363C78.0831 34.5591 77.8583 34.7701 77.6245 34.9691Z" fill="#292A2E"/>
<path d="M60.2242 0.186165L58.0113 6.60351C57.9973 6.6444 57.993 6.68804 57.9989 6.73089C58.0047 6.77375 58.0206 6.81462 58.0452 6.85021C58.0698 6.8858 58.1024 6.91512 58.1404 6.93579C58.1784 6.95646 58.2207 6.9679 58.2639 6.9692L59.7568 7.01375C59.8006 7.01506 59.8435 7.02678 59.8818 7.04794C59.9202 7.06911 59.953 7.0991 59.9775 7.13545C60.0019 7.17179 60.0174 7.21345 60.0226 7.25696C60.0277 7.30047 60.0225 7.34459 60.0072 7.38566L57.5445 14.0156C57.5215 14.0776 57.5216 14.1459 57.5447 14.2079C57.5678 14.2698 57.6124 14.3215 57.6704 14.3533C57.7284 14.3852 57.7959 14.3951 57.8606 14.3814C57.9253 14.3677 57.9829 14.3311 58.023 14.2785L63.8213 6.63618C63.847 6.60231 63.8646 6.56298 63.8725 6.52123C63.8805 6.47949 63.8788 6.43646 63.8674 6.39551C63.856 6.35456 63.8353 6.31679 63.8069 6.28515C63.7786 6.25351 63.7432 6.22885 63.7038 6.2131L61.9671 5.52018C61.9331 5.50663 61.9022 5.48646 61.8761 5.46085C61.85 5.43524 61.8292 5.40469 61.8151 5.37099C61.8009 5.33728 61.7935 5.3011 61.7935 5.26453C61.7934 5.22796 61.8006 5.19175 61.8147 5.15799L63.7621 0.479777C63.7792 0.438546 63.7861 0.393769 63.7822 0.34929C63.7782 0.30481 63.7635 0.261958 63.7393 0.224413C63.7151 0.186867 63.6822 0.155751 63.6434 0.133735C63.6045 0.111719 63.5609 0.0994609 63.5163 0.0980142L60.4939 0.000143552C60.4349 -0.00175838 60.3769 0.0152807 60.3284 0.0487603C60.2799 0.08224 60.2433 0.130397 60.2242 0.186165Z" fill="#BFDCF2"/>
<path d="M3.70448 29.6377L6.28286 34.6522C6.29923 34.6842 6.30787 34.7195 6.30808 34.7554C6.30829 34.7914 6.30007 34.8268 6.28408 34.859C6.26808 34.8911 6.24476 34.9191 6.21599 34.9406C6.18723 34.9621 6.15381 34.9766 6.11844 34.9828L4.89634 35.1959C4.8605 35.2022 4.82667 35.217 4.79765 35.2389C4.76862 35.2609 4.74523 35.2894 4.72941 35.3222C4.71359 35.3549 4.70578 35.391 4.70664 35.4274C4.7075 35.4638 4.717 35.4994 4.73435 35.5314L7.54371 40.691C7.56947 40.7393 7.57713 40.7952 7.5653 40.8486C7.55348 40.902 7.52295 40.9495 7.47923 40.9824C7.43551 41.0153 7.38147 41.0315 7.32685 41.0281C7.27224 41.0246 7.22065 41.0018 7.18138 40.9637L1.51002 35.3663C1.48496 35.3415 1.46597 35.3112 1.45451 35.2779C1.44304 35.2445 1.43942 35.209 1.44393 35.174C1.44843 35.139 1.46094 35.1055 1.48048 35.0762C1.50002 35.0468 1.52606 35.0223 1.55659 35.0047L2.90248 34.2295C2.92877 34.2143 2.95179 34.1941 2.97019 34.1699C2.9886 34.1458 3.00202 34.1182 3.0097 34.0888C3.01737 34.0594 3.01913 34.0288 3.01489 33.9987C3.01064 33.9687 3.00047 33.9397 2.98496 33.9136L0.830459 30.2977C0.811596 30.2658 0.800726 30.2299 0.798779 30.1929C0.796832 30.1559 0.803865 30.119 0.819277 30.0853C0.83469 30.0516 0.858024 30.0222 0.887286 29.9995C0.916549 29.9768 0.950871 29.9615 0.987322 29.9549L3.46082 29.5172C3.50898 29.5087 3.55859 29.5158 3.60242 29.5375C3.64625 29.5592 3.68201 29.5943 3.70448 29.6377Z" fill="#292A2E"/>
<path d="M13.7245 50.0082L19.1152 80.4959C19.812 84.4371 21.8747 88.0069 24.9412 90.5788C28.0077 93.1508 31.8821 94.5605 35.8844 94.5605C39.7864 94.5606 43.5701 93.2207 46.6024 90.765C49.6347 88.3093 51.7318 84.8867 52.5427 81.0699L59.1417 50.0078L13.7245 50.0082Z" fill="#BFDCF2"/>
<path d="M36.433 56.7218C48.9746 56.7218 59.1416 53.7159 59.1416 50.0079C59.1416 46.2999 48.9746 43.2939 36.433 43.2939C23.8914 43.2939 13.7245 46.2999 13.7245 50.0079C13.7245 53.7159 23.8914 56.7218 36.433 56.7218Z" fill="#292A2E"/>
<path d="M44.5131 67.2354H28.6185C27.1129 67.2354 25.8923 68.4559 25.8923 69.9616V77.6508C25.8923 79.1565 27.1129 80.377 28.6185 80.377H44.5131C46.0188 80.377 47.2393 79.1565 47.2393 77.6508V69.9616C47.2393 68.4559 46.0188 67.2354 44.5131 67.2354Z" fill="#292A2E"/>
<path d="M34.8436 74.052H33.8987C33.8987 72.8071 34.4627 71.0914 37.1497 69.9877C38.7238 69.3412 38.2027 66.9522 38.197 66.9282L39.1181 66.7168C39.1481 66.8468 39.8253 69.9104 37.5088 70.8611C35.7403 71.5875 34.8436 72.6615 34.8436 74.052Z" fill="#BFDCF2"/>
<path d="M43.3216 80.9296C42.4027 79.2065 42.0192 79.2407 40.4021 79.3843C39.8756 79.4311 39.2206 79.4895 38.4209 79.4895C34.8415 79.4895 34.4691 76.8841 34.4656 76.8579L35.4028 76.7388L34.9341 76.7984L35.4023 76.7344C35.4131 76.8084 35.6993 78.5445 38.4206 78.5445C39.1783 78.5445 39.7841 78.4905 40.3181 78.4431C42.1374 78.2811 42.991 78.3017 44.155 80.4849L43.3216 80.9296Z" fill="#BFDCF2"/>
<path d="M32.3986 74.5361C32.3663 74.5361 32.3345 74.5283 32.3059 74.5134L31.2845 73.987C31.2368 73.9623 31.2008 73.9197 31.1845 73.8685C31.1682 73.8174 31.1729 73.7618 31.1975 73.7141C31.2222 73.6664 31.2648 73.6304 31.3159 73.6141C31.3671 73.5977 31.4227 73.6024 31.4704 73.6271L32.4918 74.1536C32.5322 74.1743 32.5645 74.2081 32.5834 74.2495C32.6023 74.2908 32.6067 74.3374 32.5959 74.3815C32.5852 74.4257 32.5599 74.465 32.5241 74.493C32.4883 74.5211 32.4441 74.5362 32.3986 74.5361Z" fill="white"/>
<path d="M31.1647 76.54C31.1174 76.5399 31.0717 76.5232 31.0355 76.4929C30.9992 76.4627 30.9747 76.4207 30.9661 76.3742C30.9576 76.3277 30.9655 76.2798 30.9886 76.2385C31.0117 76.1973 31.0485 76.1655 31.0926 76.1485L32.1667 75.7396C32.2162 75.7234 32.27 75.7268 32.317 75.7491C32.3641 75.7715 32.4007 75.8112 32.4192 75.8598C32.4378 75.9085 32.4369 75.9624 32.4167 76.0104C32.3965 76.0584 32.3586 76.0968 32.3109 76.1176L31.2367 76.5267C31.2137 76.5355 31.1893 76.54 31.1647 76.54Z" fill="white"/>
<path d="M37.6246 75.7087C37.5738 75.7086 37.525 75.6895 37.4876 75.6551C37.4503 75.6207 37.4273 75.5735 37.4231 75.523C37.4189 75.4724 37.4338 75.4221 37.4649 75.382C37.496 75.3419 37.5411 75.315 37.5911 75.3065L38.725 75.115C38.7779 75.1063 38.832 75.1189 38.8755 75.1501C38.9191 75.1812 38.9485 75.2283 38.9574 75.281C38.9663 75.3338 38.954 75.388 38.9231 75.4317C38.8922 75.4754 38.8453 75.5051 38.7925 75.5143L37.6586 75.7058C37.6473 75.7077 37.636 75.7086 37.6246 75.7087Z" fill="white"/>
<path d="M36.7953 74.3364C36.7591 74.3364 36.7235 74.3267 36.6924 74.3083C36.6612 74.2899 36.6355 74.2634 36.6181 74.2317C36.6006 74.2 36.5919 74.1642 36.593 74.128C36.594 74.0918 36.6048 74.0566 36.6241 74.0259L37.2376 73.054C37.2516 73.0309 37.2699 73.0109 37.2917 72.995C37.3134 72.9791 37.3381 72.9677 37.3643 72.9615C37.3906 72.9553 37.4177 72.9544 37.4443 72.9588C37.4709 72.9632 37.4963 72.9729 37.5191 72.9873C37.5419 73.0016 37.5615 73.0204 37.577 73.0425C37.5924 73.0645 37.6033 73.0895 37.609 73.1158C37.6147 73.1421 37.615 73.1693 37.6101 73.1958C37.6051 73.2223 37.5949 73.2475 37.5801 73.27L36.9666 74.2419C36.9483 74.2709 36.9231 74.2947 36.8931 74.3112C36.8631 74.3278 36.8295 74.3364 36.7953 74.3364Z" fill="white"/>
<path d="M48.3538 73.3446C46.3881 73.3446 44.748 72.8075 43.4661 71.7416C41.0977 69.7721 40.8437 66.7322 40.8337 66.6038L41.776 66.5329L41.3049 66.5684L41.7759 66.5322C41.7782 66.5592 42.0167 69.3131 44.0772 71.0212C45.4272 72.1396 47.2676 72.5808 49.5507 72.3321L49.653 73.2715C49.2216 73.3193 48.7879 73.3437 48.3538 73.3446Z" fill="#BFDCF2"/>
<path d="M23.7176 79.2178L23.5431 78.289C27.1659 77.6079 27.1632 76.1006 27.1601 74.3557C27.1581 73.1805 27.1557 71.8485 28.5402 71.0696C31.1152 69.6209 30.9089 66.3375 30.9066 66.3043L31.8489 66.2334C31.8609 66.3923 32.1095 70.1455 29.0035 71.8929C28.1453 72.3758 28.1029 73.1425 28.1051 74.3537C28.1083 76.1528 28.1122 78.3914 23.7176 79.2178Z" fill="#BFDCF2"/>
<path d="M51.643 52.1031C51.6249 52.1031 51.6068 52.1013 51.589 52.0977C50.5661 51.892 48.6364 51.0178 48.6537 49.1797C48.6523 48.8194 48.7379 48.4641 48.9033 48.144C49.0687 47.8239 49.309 47.5486 49.6038 47.3413C49.3022 46.7824 49.2129 46.1331 49.3525 45.5135C49.7384 43.5033 51.7622 43.1511 52.779 43.2464C52.85 43.2533 52.9155 43.288 52.961 43.3431C53.0065 43.3981 53.0284 43.4689 53.0218 43.54C53.0153 43.6111 52.9808 43.6767 52.926 43.7225C52.8711 43.7682 52.8004 43.7904 52.7293 43.7841C52.6295 43.7749 50.2724 43.5865 49.8828 45.6153C49.7678 46.105 49.8332 46.6196 50.0669 47.065C51.0691 46.5815 52.4419 46.579 53.072 47.0608C53.1983 47.1472 53.2966 47.2686 53.3548 47.4101C53.4131 47.5516 53.4288 47.707 53.3999 47.8573C53.2738 48.5147 52.5022 48.8427 51.5251 48.6551C50.91 48.5429 50.3473 48.2359 49.9199 47.7794C49.6937 47.937 49.5094 48.1474 49.3828 48.3923C49.2563 48.6372 49.1913 48.9093 49.1937 49.1849C49.1762 51.0344 51.6707 51.5634 51.6958 51.5685C51.7615 51.5817 51.8199 51.6188 51.8598 51.6727C51.8996 51.7266 51.918 51.7933 51.9114 51.86C51.9047 51.9267 51.8736 51.9885 51.8239 52.0334C51.7742 52.0784 51.7096 52.1033 51.6426 52.1032L51.643 52.1031ZM50.4067 47.5036C50.7473 47.8212 51.1705 48.0364 51.6277 48.1246C52.2718 48.2478 52.8064 48.0893 52.8705 47.7552C52.8802 47.7033 52.8732 47.6497 52.8506 47.602C52.828 47.5543 52.7909 47.515 52.7447 47.4896C52.3371 47.1777 51.2747 47.127 50.4067 47.5036Z" fill="white"/>
<path d="M28.566 50.075C28.5094 50.075 28.4542 50.0572 28.4082 50.024C28.3622 49.9909 28.3278 49.9441 28.3099 49.8904C28.292 49.8366 28.2914 49.7786 28.3083 49.7245C28.3252 49.6704 28.3587 49.623 28.4041 49.589C28.4622 49.5452 29.8215 48.4972 29.0486 47.2257C28.8829 46.929 28.6228 46.6962 28.3097 46.5642C27.9722 47.3337 27.2091 48.0087 26.6097 48.059C26.4834 48.0758 26.3549 48.0554 26.2401 48.0002C26.1252 47.9451 26.029 47.8576 25.9631 47.7485C25.8892 47.62 25.8517 47.4737 25.8547 47.3255C25.8577 47.1773 25.901 47.0327 25.9801 46.9072C26.281 46.3577 27.0294 45.9469 27.7593 45.9304C27.8201 45.9293 27.8808 45.9304 27.9402 45.9343C27.9741 45.7509 27.9648 45.562 27.913 45.3828C27.8612 45.2035 27.7684 45.0388 27.6419 44.9016C26.7539 43.9017 25.1504 44.8389 25.1345 44.8484C25.104 44.8666 25.0703 44.8786 25.0352 44.8837C25.0001 44.8888 24.9644 44.8869 24.93 44.8782C24.8956 44.8695 24.8633 44.8541 24.8349 44.8329C24.8065 44.8117 24.7825 44.7851 24.7643 44.7546C24.7462 44.7242 24.7342 44.6904 24.7291 44.6553C24.724 44.6202 24.7259 44.5845 24.7346 44.5501C24.7433 44.5157 24.7587 44.4834 24.7799 44.455C24.8011 44.4266 24.8277 44.4026 24.8582 44.3845C24.9392 44.336 26.8647 43.2131 28.0455 44.5429C28.2286 44.7431 28.3623 44.9833 28.4359 45.2444C28.5095 45.5055 28.521 45.7802 28.4694 46.0465C28.9085 46.2184 29.2757 46.5353 29.5101 46.9445C30.3335 48.2982 29.3583 49.5483 28.728 50.0202C28.6815 50.0556 28.6246 50.0749 28.566 50.075ZM27.7561 46.4716C27.1685 46.4905 26.6335 46.8385 26.4533 47.1675C26.4216 47.2105 26.4022 47.2612 26.3971 47.3143C26.392 47.3674 26.4014 47.4209 26.4242 47.4691C26.4377 47.4919 26.4615 47.529 26.5649 47.5215C26.9033 47.4934 27.4591 47.0436 27.7558 46.4716H27.7561Z" fill="white"/>
<path d="M58.13 27.5953C59.5122 37.3689 50.3408 43.4633 38.2069 45.1791C26.073 46.8948 15.5718 43.5828 14.1897 33.8085C12.8076 24.0343 21.0681 11.4993 33.2018 9.78353C45.3356 8.06776 56.7479 17.8211 58.13 27.5953Z" fill="#BFDCF2"/>
<path d="M46.4897 17.1432L33.9928 18.9102C30.0756 19.4641 27.349 23.0886 27.9029 27.0059C28.4568 30.9231 32.0813 33.6496 35.9986 33.0957L48.4955 31.3287C52.4127 30.7749 55.1393 27.1503 54.5854 23.2331C54.0315 19.3159 50.407 16.5893 46.4897 17.1432Z" fill="white"/>
<path d="M32.127 2.21954L31.158 2.40527L33.0295 12.1697L33.9985 11.984L32.127 2.21954Z" fill="#BFDCF2"/>
<path d="M31.781 4.83794C32.7769 4.83794 33.5843 4.0306 33.5843 3.03469C33.5843 2.03879 32.7769 1.23145 31.781 1.23145C30.7851 1.23145 29.9778 2.03879 29.9778 3.03469C29.9778 4.0306 30.7851 4.83794 31.781 4.83794Z" fill="#292A2E"/>
<path d="M38.5497 28.642C38.3743 28.6421 38.2037 28.5849 38.0637 28.4792L32.757 24.4879C32.6704 24.4245 32.5974 24.3446 32.542 24.2528C32.4866 24.1609 32.45 24.059 32.4343 23.9529C32.4186 23.8468 32.4241 23.7387 32.4505 23.6348C32.4769 23.5308 32.5238 23.4332 32.5882 23.3475C32.6527 23.2618 32.7335 23.1897 32.8261 23.1355C32.9186 23.0813 33.021 23.046 33.1272 23.0317C33.2335 23.0173 33.3416 23.0243 33.4452 23.052C33.5488 23.0798 33.6458 23.1278 33.7307 23.1934L39.0371 27.185C39.1732 27.2871 39.2737 27.4294 39.3244 27.5919C39.375 27.7543 39.3733 27.9285 39.3193 28.0898C39.2654 28.2512 39.162 28.3915 39.0239 28.4907C38.8857 28.59 38.7198 28.6433 38.5497 28.643V28.642Z" fill="#292A2E"/>
<path d="M33.9004 29.2993C33.7499 29.2992 33.6025 29.2571 33.4745 29.1779C33.3466 29.0987 33.2433 28.9854 33.1762 28.8507C33.109 28.7161 33.0807 28.5654 33.0944 28.4155C33.1081 28.2657 33.1633 28.1226 33.2538 28.0024L37.2457 22.6958C37.3755 22.5261 37.5672 22.4145 37.7789 22.3855C37.9906 22.3564 38.2052 22.4122 38.3759 22.5406C38.5467 22.6691 38.6598 22.8599 38.6905 23.0713C38.7213 23.2828 38.6672 23.4978 38.5401 23.6696L34.5484 28.9762C34.4729 29.0767 34.375 29.1582 34.2625 29.2143C34.1501 29.2704 34.0261 29.2995 33.9004 29.2993Z" fill="#292A2E"/>
<path d="M50.0737 27.012C49.8983 27.0121 49.7277 26.9549 49.5877 26.8492L44.2812 22.8575C44.1955 22.7938 44.1233 22.7138 44.0687 22.6221C44.014 22.5304 43.978 22.4288 43.9628 22.3231C43.9475 22.2175 43.9533 22.1098 43.9798 22.0064C44.0063 21.903 44.053 21.8059 44.1171 21.7206C44.1813 21.6352 44.2617 21.5635 44.3537 21.5093C44.4457 21.4552 44.5475 21.4198 44.6532 21.4051C44.759 21.3905 44.8666 21.3969 44.9698 21.4239C45.0731 21.451 45.17 21.4982 45.2549 21.5629L50.5614 25.5546C50.6975 25.6567 50.798 25.799 50.8487 25.9615C50.8993 26.1239 50.8975 26.2981 50.8436 26.4594C50.7896 26.6208 50.6863 26.761 50.5481 26.8603C50.41 26.9596 50.2441 27.0129 50.0739 27.0126L50.0737 27.012Z" fill="#292A2E"/>
<path d="M45.4246 27.6697C45.2741 27.6696 45.1266 27.6276 44.9987 27.5484C44.8707 27.4692 44.7674 27.3559 44.7002 27.2212C44.6331 27.0866 44.6048 26.9359 44.6185 26.786C44.6322 26.6362 44.6874 26.4931 44.7778 26.3728L48.7696 21.0662C48.8987 20.8946 49.0908 20.7812 49.3035 20.7511C49.5162 20.7211 49.7321 20.7767 49.9038 20.9059C50.0755 21.035 50.1888 21.227 50.2189 21.4398C50.249 21.6525 50.1933 21.8684 50.0642 22.0401L46.0724 27.3467C45.9969 27.4472 45.8991 27.5287 45.7867 27.5848C45.6742 27.6408 45.5502 27.6699 45.4246 27.6697Z" fill="#292A2E"/>
<path d="M42.3662 35.3117C42.61 34.9889 42.9405 34.7421 43.3191 34.6C43.6978 34.4578 44.109 34.4262 44.505 34.5089C44.9009 34.5915 45.2652 34.7849 45.5554 35.0666C45.8456 35.3484 46.0498 35.7067 46.1441 36.1C46.1613 36.1696 46.1645 36.2419 46.1536 36.3127C46.1427 36.3836 46.1179 36.4516 46.0807 36.5128C46.0434 36.574 45.9944 36.6272 45.9365 36.6694C45.8785 36.7116 45.8128 36.7419 45.7432 36.7586C45.6735 36.7753 45.6012 36.7781 45.5304 36.7668C45.4596 36.7554 45.3918 36.7302 45.3308 36.6925C45.2699 36.6549 45.217 36.6055 45.1751 36.5473C45.1333 36.4891 45.1034 36.4232 45.0871 36.3534C45.0551 36.2198 44.997 36.0937 44.9163 35.9825C44.8355 35.8712 44.7336 35.777 44.6164 35.7051C44.4992 35.6333 44.369 35.5852 44.2333 35.5637C44.0975 35.5421 43.9588 35.5475 43.8252 35.5796C43.6915 35.6116 43.5654 35.6697 43.4542 35.7505C43.343 35.8312 43.2487 35.9331 43.1769 36.0503C43.105 36.1675 43.0569 36.2977 43.0354 36.4334C43.0138 36.5692 43.0192 36.7079 43.0513 36.8416C43.0839 36.9814 43.0598 37.1284 42.9844 37.2505C42.9089 37.3726 42.7883 37.4599 42.6487 37.4934C42.5091 37.5268 42.3619 37.5037 42.2393 37.4291C42.1167 37.3544 42.0287 37.2343 41.9943 37.0949C41.9283 36.8225 41.917 36.5397 41.961 36.2628C42.005 35.986 42.1035 35.7206 42.2508 35.482C42.2866 35.4232 42.3251 35.3664 42.3662 35.3117Z" fill="#292A2E"/>
</svg>
