<svg width="298" height="298" viewBox="0 0 298 298" fill="none" xmlns="http://www.w3.org/2000/svg">
<g id="Illustration/Finances">
<path id="Combined Shape" fill-rule="evenodd" clip-rule="evenodd" d="M135.316 219.686C135.404 219.619 135.495 219.547 135.534 219.443C135.656 219.112 135.177 218.891 134.823 218.899C134.311 218.911 133.653 219.256 133.81 219.744C133.901 220.027 134.249 220.158 134.541 220.106C134.833 220.054 135.081 219.867 135.316 219.686H135.316ZM136.841 213.872C137.228 213.994 137.61 214.144 137.947 214.37C138.58 214.793 139.011 215.452 139.425 216.092C139.721 216.551 140.021 217.018 140.169 217.544C140.329 218.114 140.301 218.722 140.194 219.303C139.859 221.116 138.741 222.769 137.183 223.754C135.626 224.739 133.652 225.04 131.872 224.565C131.525 224.473 131.176 224.347 130.909 224.107C130.685 223.905 130.534 223.636 130.396 223.369C129.671 221.962 129.182 220.4 129.238 218.819C129.294 217.238 129.944 215.638 131.175 214.644C132.72 213.397 134.946 213.278 136.841 213.872" fill="white"/>
<path id="Combined Shape_2" fill-rule="evenodd" clip-rule="evenodd" d="M218.611 127.854C217.763 127.843 216.966 128.555 216.882 129.4C216.848 129.745 216.994 130.174 217.338 130.222C217.596 130.257 217.822 130.058 217.995 129.864C218.361 129.454 218.675 128.997 218.928 128.509C219.013 128.345 219.088 128.135 218.977 127.988C218.895 127.881 218.746 127.855 218.611 127.854ZM218.244 124.065C219.45 124.486 220.542 125.226 221.38 126.189C222.101 127.017 222.649 128.091 222.498 129.178C222.442 129.577 222.295 129.958 222.127 130.324C221.491 131.711 220.398 133.04 218.896 133.308C218.108 133.449 217.296 133.28 216.538 133.023C215.662 132.725 214.826 132.306 214.062 131.784C213.657 131.506 213.255 131.177 213.077 130.719C212.955 130.404 212.951 130.056 212.955 129.718C212.967 128.881 213.022 128.03 213.314 127.246C213.683 126.253 214.405 125.434 215.171 124.703C215.479 124.409 215.806 124.119 216.202 123.961C216.849 123.704 217.586 123.836 218.244 124.065Z" fill="white"/>
<path id="Whites" fill-rule="evenodd" clip-rule="evenodd" d="M218.613 63.6873C223.601 68.8315 227.538 74.9826 230.115 81.6581C230.292 82.1166 230.464 82.6259 230.295 83.0874C228.995 86.641 226.486 89.6035 224.025 92.4842C222.453 94.3249 220.881 96.1656 219.309 98.0063C217.808 99.7635 216.307 101.521 214.755 103.234C206.856 111.956 197.522 119.583 186.711 124.275C186.303 124.453 185.866 124.629 185.426 124.558C184.987 124.488 184.575 124.063 184.69 123.634C186.027 118.657 187.372 113.453 186.299 108.413C186.041 107.197 185.752 105.667 186.761 104.935C194.925 99.0121 200.804 90.546 206.437 82.1949C207.854 80.0951 209.267 77.9894 210.52 75.7891C212.746 71.8825 214.46 67.687 215.605 63.3425C215.763 62.7463 216.518 62.4778 217.117 62.6341C217.715 62.7903 218.183 63.244 218.613 63.6873" fill="white"/>
<path id="Whites_2" fill-rule="evenodd" clip-rule="evenodd" d="M63.0543 83.6716C63.8653 91.0031 66.1224 98.1717 69.6581 104.645C71.8472 108.653 74.51 112.38 77.1656 116.096C79.0136 118.681 80.9897 121.376 83.8731 122.712C84.6398 123.067 84.5328 124.173 84.3271 124.992C83.4377 128.535 83.0227 132.196 83.0967 135.848C83.1037 136.193 83.1127 136.55 82.9772 136.867C82.517 137.945 80.9405 137.765 79.8551 137.325C73.1397 134.598 67.9838 129.116 63.1675 123.7C56.9142 116.669 50.754 109.328 47.0599 100.673C46.8088 100.085 46.5651 99.4657 46.6071 98.8273C46.6499 98.1769 46.9841 97.5857 47.3231 97.0289C50.6719 91.5286 55.3307 86.8319 60.8036 83.4386C61.1891 83.1996 61.6007 82.9601 62.054 82.9444C62.5073 82.9288 63.0044 83.2208 63.0543 83.6716Z" fill="white"/>
<path id="Whites_3" fill-rule="evenodd" clip-rule="evenodd" d="M217.634 212.285C218.213 211.304 218.93 210.224 220.053 210.038C220.496 209.965 220.73 209.484 220.88 209.061C222.737 203.852 222.916 198.06 221.385 192.746C220.947 191.23 221.486 189.622 222.018 188.136C223.393 184.301 224.767 180.467 226.142 176.632C225.354 175.27 223.278 175.31 222.214 174.151C220.845 172.659 221.878 170.287 222.95 168.57C229.215 158.536 235.481 148.502 241.746 138.468C242.514 137.239 244.198 136.854 245.61 137.181C247.022 137.509 248.227 138.397 249.389 139.265C253.958 142.678 258.527 146.09 263.097 149.503C265.549 151.335 268.257 153.675 268.116 156.733C268.037 158.425 267.069 159.929 266.133 161.34C262.511 166.797 258.89 172.254 255.268 177.711C253.228 180.786 253.791 184.823 253.175 188.461C252.201 194.209 248.259 198.929 244.609 203.475C240.959 208.021 237.307 213.097 237.102 218.924C236.858 225.868 233.559 232.65 228.247 237.129C229.788 233.391 220.053 234.882 208.918 230.452C210.751 223.969 214.21 218.086 217.634 212.285Z" fill="white"/>
<path id="Whites_4" fill-rule="evenodd" clip-rule="evenodd" d="M95.3641 228.542C94.6698 227.974 94.4484 227.015 94.3258 226.124C92.9077 215.813 98.9978 205.636 97.913 195.285C97.3539 189.951 94.9029 184.973 91.8185 180.596C89.6885 177.573 89.5691 173.523 90.3637 169.906C91.1584 166.288 92.7614 162.906 93.8426 159.365C98.6507 143.617 92.8002 126.794 87.016 111.381C98.542 105.808 111.992 106.887 124.761 107.642C137.53 108.397 151.262 108.451 161.904 101.32C163.363 116.746 160.147 132.19 156.949 147.349C173.176 145.768 189.404 144.187 205.631 142.606C206.097 142.561 206.606 142.526 206.992 142.79C207.508 143.142 207.587 143.861 207.617 144.487C208.376 160.53 208.836 176.588 208.996 192.648C209 193.051 208.987 193.5 208.704 193.786C208.462 194.03 208.093 194.081 207.752 194.119C185.016 196.653 162.281 199.187 139.546 201.72C137.579 201.939 134.779 201.427 134.894 199.443C135.407 190.593 135.108 181.697 134 172.903C127.958 172.674 121.875 173.595 116.168 175.603C114.873 176.059 113.317 177.284 114.015 178.471C118.634 186.321 112.901 198.121 119.175 204.711C121.332 206.977 121.183 210.541 120.756 213.648C119.839 220.306 118.282 226.876 116.114 233.234C117.162 225.915 96.0048 232.467 95.3641 228.542Z" fill="white"/>
<path id="Stroke" fill-rule="evenodd" clip-rule="evenodd" d="M30.3347 62.392C30.3541 62.5483 30.2695 62.7124 30.131 62.7873C30.0207 62.6769 29.9103 62.5665 29.8 62.4561C29.9654 62.3837 30.153 62.3631 30.3302 62.3978L30.3347 62.392Z" fill="#00160A"/>
<path id="Stroke_2" fill-rule="evenodd" clip-rule="evenodd" d="M136.443 213.872C136.831 213.994 137.213 214.144 137.55 214.37C138.183 214.793 138.614 215.452 139.027 216.092C139.324 216.551 139.624 217.018 139.772 217.544C139.932 218.114 139.903 218.722 139.796 219.303C139.462 221.116 138.344 222.769 136.786 223.754C135.228 224.739 133.255 225.04 131.474 224.565C131.128 224.473 130.779 224.347 130.512 224.107C130.288 223.905 130.137 223.636 129.999 223.369C129.274 221.962 128.785 220.4 128.841 218.819C128.896 217.238 129.546 215.638 130.778 214.644C132.323 213.397 134.549 213.278 136.443 213.872M134.272 223.287C135.241 223.139 136.093 222.507 136.65 221.701C137.206 220.895 137.492 219.928 137.629 218.958C137.707 218.404 137.714 217.769 137.323 217.369C137.089 217.13 136.755 217.023 136.434 216.927C135.23 216.567 133.856 216.26 132.777 216.906C131.992 217.376 131.554 218.247 131.157 219.071C130.692 220.037 130.807 221.256 131.444 222.118C132.081 222.98 133.212 223.447 134.272 223.287V223.287Z" fill="#00160A"/>
<path id="Highlights" fill-rule="evenodd" clip-rule="evenodd" d="M180.683 170.372C180.7 170.166 180.725 169.946 180.861 169.791C180.993 169.639 181.203 169.585 181.399 169.539C186.459 168.361 191.685 167.9 196.872 168.175C197.533 168.209 198.383 168.433 198.427 169.093C198.677 172.878 198.928 176.663 199.178 180.448C199.191 180.639 199.197 180.852 199.075 181C198.975 181.12 198.814 181.167 198.663 181.206C193.267 182.613 187.579 182.89 182.072 182.015C181.931 181.992 181.781 181.966 181.671 181.874C181.538 181.762 181.492 181.581 181.454 181.411C180.642 177.799 180.381 174.062 180.683 170.372ZM181.876 176.65C181.975 178.08 182.275 179.495 182.764 180.842C183.251 180.912 183.734 181.013 184.219 181.095C188.404 181.804 192.684 181.091 196.869 180.379C197.166 180.328 197.491 180.261 197.675 180.022C197.862 179.778 197.837 179.438 197.803 179.132C197.659 177.828 197.515 176.524 197.371 175.22C197.359 175.115 197.344 175.002 197.273 174.924C197.187 174.829 197.045 174.813 196.917 174.805C193.944 174.609 190.96 174.831 187.989 175.053C186.346 175.175 184.703 175.298 183.061 175.42C182.675 175.449 182.236 175.506 182.014 175.824C181.851 176.057 181.856 176.366 181.876 176.65ZM181.922 171.195C181.662 172.029 181.616 172.928 181.788 173.784C181.819 173.938 181.862 174.1 181.979 174.205C182.152 174.36 182.416 174.335 182.646 174.301C185.445 173.891 188.273 173.687 191.102 173.692C191.501 173.693 191.623 173.156 191.619 172.757C191.612 172.172 191.606 171.588 191.6 171.003C191.596 170.665 191.579 170.292 191.348 170.045C191.069 169.749 190.604 169.758 190.199 169.789C189.262 169.861 188.325 169.932 187.388 170.004C186.94 170.038 185.751 170.343 185.204 170.379C184.253 170.53 183.302 170.682 182.351 170.834C182.249 170.85 182.142 170.869 182.064 170.936C181.988 171 181.952 171.1 181.922 171.195ZM194.469 173.738C195.212 173.748 195.957 173.674 196.684 173.517C196.857 173.48 197.039 173.433 197.162 173.306C197.344 173.119 197.342 172.827 197.329 172.568C197.29 171.814 197.252 171.06 197.213 170.306C197.2 170.038 197.169 169.735 196.959 169.566C196.774 169.419 196.513 169.427 196.277 169.443C195.45 169.5 194.623 169.556 193.797 169.612C193.666 169.621 193.528 169.632 193.419 169.705C193.218 169.837 193.188 170.114 193.183 170.354C193.164 171.153 193.197 171.953 193.28 172.748C193.305 172.978 193.338 173.22 193.48 173.403C193.702 173.687 194.108 173.734 194.469 173.738Z" fill="#2B74B9"/>
<path id="Shadow" fill-rule="evenodd" clip-rule="evenodd" d="M193.632 153.831C194.737 153.353 196.094 153.513 197.057 154.236C198.02 154.959 198.554 156.216 198.404 157.411C199.081 157.045 199.94 156.684 200.572 157.124C201.286 157.621 201.122 158.69 201.015 159.552C200.828 161.06 201.071 162.618 201.708 163.997C201.971 164.567 202.197 165.431 201.613 165.661C201.515 165.699 201.408 165.708 201.302 165.717C194.456 166.268 187.61 166.82 180.764 167.372C180.576 167.387 180.366 167.395 180.224 167.271C180.079 167.145 180.061 166.93 180.053 166.738C179.987 165.128 179.922 163.518 179.856 161.908C179.839 161.476 179.83 161.01 180.074 160.653C180.478 160.062 181.324 160.064 182.03 159.951C182.737 159.838 183.558 159.242 183.286 158.58C182.983 157.842 184.016 157.303 184.805 157.183C185.594 157.063 186.639 156.593 186.401 155.832C186.14 155.001 187.284 154.485 188.147 154.37C188.757 154.289 189.394 154.211 189.972 154.42C190.55 154.629 191.039 155.224 190.909 155.825C190.76 156.513 191.597 157.154 192.258 156.911C192.919 156.668 193.186 155.765 192.852 155.146C192.579 154.64 193.105 154.06 193.632 153.831ZM197.167 164.443C196.911 163.968 196.909 163.403 196.907 162.864C196.896 160.331 196.741 157.799 196.441 155.284C196.426 155.157 196.402 155.015 196.298 154.941C196.209 154.877 196.088 154.884 195.978 154.894C195.444 154.944 194.81 155.063 194.599 155.556C194.508 155.767 194.519 156.005 194.531 156.234C194.667 158.772 194.802 161.311 194.938 163.849C194.951 164.086 194.982 164.357 195.179 164.489C195.286 164.561 195.421 164.575 195.549 164.582C196.092 164.611 196.638 164.564 197.167 164.443ZM187.959 160.54C187.893 160.963 187.8 161.383 187.775 161.81C187.733 162.524 187.884 163.234 188.033 163.934C188.129 164.382 188.709 164.603 189.134 164.43C189.559 164.257 189.816 163.804 189.886 163.351C189.957 162.897 189.874 162.436 189.802 161.983C189.518 160.204 189.395 158.398 189.435 156.597C189.445 156.141 189.001 155.729 188.547 155.774C188.093 155.819 187.738 156.31 187.838 156.755C188.115 157.994 188.156 159.286 187.959 160.54ZM192.462 158.109C192.195 157.759 191.583 157.946 191.375 158.333C191.167 158.72 191.23 159.19 191.282 159.627C191.417 160.768 191.43 161.923 191.32 163.066C191.288 163.403 191.252 163.771 191.438 164.054C191.725 164.489 192.353 164.485 192.871 164.433C193.033 164.416 193.22 164.385 193.302 164.243C193.359 164.145 193.345 164.023 193.33 163.91C193.091 162.136 192.852 160.362 192.613 158.588C192.591 158.42 192.565 158.244 192.462 158.109ZM198.392 158.871C198.191 159.146 198.148 159.503 198.131 159.842C198.071 161.007 198.225 162.17 198.379 163.326C198.44 163.781 198.648 164.367 199.106 164.336C199.571 164.304 199.692 163.683 199.681 163.217C199.653 161.984 199.624 160.752 199.596 159.519C199.588 159.195 199.554 158.819 199.285 158.638C199.003 158.449 198.593 158.597 198.392 158.871ZM184.359 158.58C184.359 158.58 184.563 160.189 184.634 161.009C184.724 162.038 184.838 163.065 184.976 164.089C184.996 164.237 185.023 164.398 185.132 164.501C185.322 164.678 186.056 164.56 186.191 164.338C186.326 164.116 186.319 163.838 186.307 163.579C186.27 162.757 186.232 161.935 186.195 161.113C186.155 160.232 185.946 158.333 185.946 158.333M181.699 164.406C181.757 164.59 181.826 164.783 181.975 164.906C182.266 165.147 182.738 164.998 182.967 164.698C183.196 164.398 183.248 164.003 183.292 163.628C183.346 163.168 183.398 162.69 183.249 162.252C183.1 161.813 182.687 161.427 182.226 161.468C181.802 161.506 181.473 161.893 181.374 162.308C181.275 162.722 181.359 163.156 181.462 163.57C181.532 163.851 181.611 164.13 181.699 164.406Z" fill="#E7EAEE"/>
<path id="Highlights_2" fill-rule="evenodd" clip-rule="evenodd" d="M209.45 98.5233C208.898 99.353 208.298 100.193 207.443 100.706C206.588 101.218 205.407 101.318 204.639 100.683C203.791 99.982 203.739 98.7189 203.806 97.6211C203.831 97.1984 203.865 96.7724 203.986 96.3666C204.196 95.6628 204.655 95.0623 205.134 94.5054C205.715 93.8298 206.358 93.178 207.164 92.7978C207.97 92.4176 208.971 92.3509 209.726 92.8239C210.63 93.3901 210.964 94.5946 210.793 95.6473C210.622 96.6999 210.042 97.6358 209.45 98.5233M207.695 99.4011C208.392 98.6588 208.99 97.8234 209.468 96.9241C209.782 96.3324 210.049 95.6892 210.037 95.0192C210.024 94.3492 209.671 93.6489 209.049 93.4003C208.238 93.0765 207.349 93.5945 206.671 94.1449C206.189 94.5367 205.722 94.9665 205.413 95.5054C205.217 95.8461 205.09 96.221 204.964 96.5932C204.726 97.2973 204.484 98.0309 204.575 98.7686C204.666 99.5063 205.194 100.247 205.933 100.323C206.617 100.394 207.224 99.9026 207.695 99.4011Z" fill="#2B74B9"/>
<path id="Highlights_3" fill-rule="evenodd" clip-rule="evenodd" d="M67.0695 107.901C67.9354 108.778 68.6502 109.804 69.173 110.92C69.6985 112.041 69.1687 113.483 68.1375 114.169C67.1062 114.855 65.712 114.846 64.5812 114.341C63.4505 113.835 62.5619 112.891 61.9075 111.84C61.4141 111.047 61.0315 110.158 60.9905 109.225C60.9495 108.292 61.293 107.31 62.031 106.738C62.7775 106.16 63.8271 106.077 64.7299 106.355C65.6326 106.632 66.406 107.229 67.0695 107.901M63.6911 107.367C62.9419 107.29 62.2763 107.978 62.1478 108.72C62.0193 109.462 62.3022 110.215 62.6683 110.873C63.4621 112.301 64.8784 113.569 66.5098 113.49C67.3483 113.449 68.2675 112.868 68.2526 112.029C68.2462 111.666 68.0671 111.331 67.8882 111.015C67.4131 110.176 66.8999 109.345 66.2145 108.666C65.5292 107.988 64.6505 107.466 63.6911 107.367Z" fill="#2B74B9"/>
<path id="Stroke_3" fill-rule="evenodd" clip-rule="evenodd" d="M132.54 218.316C133.141 217.859 133.889 217.563 134.643 217.612C135.397 217.66 136.143 218.093 136.458 218.779C136.797 219.516 136.586 220.431 136.058 221.046C135.53 221.661 134.734 222.001 133.931 222.113C133.383 222.19 132.73 222.121 132.43 221.656C132.285 221.432 132.253 221.156 132.223 220.89C132.171 220.414 132.119 219.938 132.067 219.461C132.044 219.259 132.023 219.05 132.088 218.858C132.164 218.631 132.35 218.46 132.54 218.316M134.919 219.686C135.006 219.619 135.098 219.546 135.136 219.443C135.258 219.111 134.779 218.891 134.426 218.899C133.913 218.91 133.256 219.256 133.413 219.744C133.504 220.027 133.852 220.157 134.144 220.105C134.436 220.053 134.684 219.867 134.919 219.686Z" fill="#00160A"/>
<path id="Stroke_4" fill-rule="evenodd" clip-rule="evenodd" d="M217.735 66.0092C222.421 70.8603 226.12 76.6612 228.541 82.9565C228.707 83.3889 228.868 83.8692 228.71 84.3045C227.488 87.6557 225.131 90.4495 222.82 93.1662L218.389 98.3738C216.979 100.031 215.568 101.688 214.111 103.304C206.689 111.529 197.92 118.722 187.764 123.147C187.38 123.314 186.969 123.481 186.556 123.414C186.144 123.347 185.757 122.946 185.865 122.542C187.121 117.849 188.384 112.941 187.377 108.188C187.134 107.041 186.863 105.598 187.81 104.908C195.481 99.3223 201.003 91.3384 206.296 83.4628C207.627 81.4825 208.954 79.4968 210.132 77.4218C212.223 73.7376 213.833 69.7811 214.909 65.6839C215.057 65.1217 215.767 64.8685 216.329 65.0159C216.891 65.1632 217.331 65.5911 217.735 66.0092ZM214.455 72.0335C213.979 71.8365 213.54 72.3692 213.297 72.8239C213.034 73.316 212.772 73.8089 212.509 74.3022C207.654 83.4223 202.724 92.6824 195.325 99.8657C194.626 100.544 193.845 101.364 193.974 102.33C194.386 105.426 192.734 108.695 189.996 110.198C188.753 110.881 188.768 112.641 188.95 114.048C189.023 114.611 189.235 115.316 189.801 115.364C191.46 115.504 193.052 116.321 194.134 117.587C194.475 117.986 195.122 117.736 195.567 117.457C206.76 110.42 215.361 100.026 223.758 89.8134C224.048 89.4611 224.356 89.0172 224.205 88.5868C222.934 84.9669 223.138 80.8532 224.76 77.3766C223.803 75.4722 222.662 73.66 221.359 71.9735C219.19 72.9149 216.64 72.9371 214.455 72.0335ZM187.905 121.288C188.347 121.519 188.881 121.299 189.323 121.069C190.484 120.463 191.602 119.775 192.667 119.012C192.948 118.811 193.032 118.408 192.932 118.076C192.833 117.745 192.584 117.478 192.308 117.268C191.448 116.615 190.244 116.443 189.235 116.83C189.049 116.901 188.864 116.994 188.735 117.147C188.585 117.326 188.53 117.564 188.481 117.793C188.238 118.948 188.045 120.115 187.905 121.288ZM219.339 69.6231C218.579 68.136 217.406 66.8625 215.986 65.9824C215.492 66.4177 215.396 67.0792 215.298 67.7536C215.231 68.2164 215.163 68.6852 214.965 69.0912C214.9 69.2234 214.822 69.3499 214.743 69.4761C214.593 69.7163 214.444 69.9555 214.396 70.2314C214.322 70.6522 214.679 71.1801 215.082 71.0409C215.411 70.9277 215.755 71.0004 216.102 71.0738C216.285 71.1125 216.469 71.1513 216.652 71.1632C217.718 71.232 218.603 70.3968 219.339 69.6231ZM225.367 78.5364C224.553 80.157 224.681 82.0711 224.83 83.879L225.042 86.4717C225.065 86.7568 225.22 87.1415 225.495 87.0626C225.666 86.585 225.991 86.191 226.317 85.796C226.602 85.4505 226.888 85.1041 227.071 84.7003C227.693 83.3329 227.003 81.757 226.323 80.4176L225.367 78.5364ZM188.896 107.312C188.93 107.82 189.456 108.199 189.964 108.185C190.472 108.171 190.93 107.842 191.227 107.429C191.524 107.017 191.686 106.525 191.845 106.043L192.369 104.448C192.515 104.003 192.524 103.324 192.059 103.271C191.891 103.252 191.731 103.341 191.593 103.439C191.072 103.81 190.693 104.342 190.323 104.864L189.317 106.285C189.098 106.594 188.87 106.936 188.896 107.312ZM68.8634 103.056C65.3278 96.5826 63.0707 89.4139 62.2597 82.0825C62.2098 81.6317 61.7127 81.3396 61.2594 81.3553C60.8061 81.371 60.3945 81.6105 60.009 81.8495C54.536 85.2428 49.8772 89.9395 46.5284 95.4398C46.1895 95.9966 45.8553 96.5878 45.8125 97.2382C45.7705 97.8766 46.0142 98.4958 46.2653 99.0841C49.9594 107.739 56.1196 115.079 62.3729 122.111C67.1892 127.527 72.345 133.009 79.0605 135.735C80.1459 136.176 81.7224 136.356 82.1825 135.278C82.3164 134.965 82.3092 134.612 82.3023 134.271L82.302 134.258C82.2281 130.607 82.643 126.945 83.5324 123.403C83.7382 122.583 83.8452 121.478 83.0785 121.123C80.1951 119.787 78.2189 117.092 76.371 114.507C73.7153 110.791 71.0526 107.064 68.8634 103.056ZM75.1051 131.353C74.7079 131.459 74.3113 131.209 73.9796 130.966C67.8676 126.488 63.1311 120.427 58.4774 114.447L50.2649 103.895C51.6511 103.012 51.8271 101.094 51.8573 99.4508C51.8966 97.3148 51.9253 95.1157 51.1537 93.1236C50.9822 92.6808 51.2055 92.1901 51.4446 91.7799C52.47 90.0204 53.8921 88.4936 55.5743 87.3459C55.7372 87.2348 55.9096 87.1245 56.1048 87.0969C56.62 87.0241 57.0152 87.5252 57.2905 87.9666C58.3779 89.7102 59.8722 91.6821 61.922 91.5385C62.7025 91.4839 63.1354 92.4032 63.3631 93.1518C66.1946 102.46 71.5108 110.857 77.7453 118.326C78.5554 119.297 78.7587 120.607 78.9601 121.906C79.1847 123.353 79.407 124.786 80.4661 125.717C81.3703 126.512 81.2025 127.939 80.9585 129.118C80.9086 129.359 80.8491 129.617 80.6659 129.782C80.5298 129.904 80.3458 129.955 80.1691 130.002L75.1051 131.353ZM60.6155 89.3822C59.4943 88.5988 58.5258 87.5977 57.7799 86.4512C57.6185 86.2032 57.4618 85.9252 57.4902 85.6307C57.521 85.3105 57.7619 85.0543 58.0016 84.8397C58.5936 84.3099 59.2626 83.8664 59.9811 83.5274C60.2442 83.4033 60.5839 83.3025 60.8025 83.4945C60.9312 83.6075 60.9718 83.7881 61.0054 83.9561L62.041 89.1354C62.1022 89.4416 61.7811 89.7173 61.4689 89.7262C61.1568 89.7351 60.8714 89.5611 60.6155 89.3822ZM50.3673 99.3999C50.3454 100.374 50.2709 101.467 49.5409 102.113C49.3881 102.131 49.2866 101.963 49.2267 101.821C48.7007 100.576 48.1674 99.301 48.0845 97.9518C48.0017 96.6026 48.4539 95.1416 49.5564 94.3595C49.7056 94.2536 49.9244 94.1662 50.0561 94.2932C50.109 94.3442 50.1317 94.4183 50.151 94.4892C50.4506 95.5905 50.427 96.7502 50.4013 97.8912L50.3673 99.3999ZM80.1198 131.805C80.2969 131.949 80.3157 132.209 80.3205 132.437L80.3732 134.941C79.346 134.372 78.3619 133.725 77.4321 133.007C77.2558 132.871 77.062 132.651 77.17 132.456C77.2236 132.359 77.3348 132.313 77.4385 132.275C78.1031 132.03 78.7904 131.846 79.4886 131.726C79.7045 131.689 79.9503 131.666 80.1198 131.805ZM80.1789 121.941C80.1695 121.828 80.1695 121.705 80.2367 121.613C80.4141 121.372 80.7991 121.59 80.9618 121.842C81.3538 122.447 81.4403 123.239 81.1882 123.915C80.6126 123.422 80.2418 122.696 80.1789 121.941ZM233.183 102.927C234.207 101.638 236.073 101.452 237.719 101.493C238.104 101.502 238.499 101.521 238.849 101.68C239.823 102.124 240.03 103.396 240.063 104.466C240.093 105.439 240.087 106.425 239.851 107.37C239.614 108.314 239.125 109.224 238.342 109.804C237.991 110.064 237.583 110.254 237.151 110.326C236.484 110.438 235.802 110.267 235.168 110.031C234.323 109.716 233.522 109.285 232.795 108.752C232.44 108.492 232.073 108.151 232.061 107.711C232.035 106.696 232.149 105.677 232.398 104.693C232.558 104.064 232.779 103.435 233.183 102.927ZM235.838 109.349C237.152 109.726 238.551 108.709 239.049 107.436C239.547 106.162 239.362 104.731 239.089 103.391C238.983 102.877 238.434 102.59 237.927 102.452C237.143 102.239 236.309 102.211 235.512 102.37C235.115 102.45 234.711 102.585 234.433 102.878C234.281 103.038 234.177 103.235 234.074 103.43L233.304 104.885C233.168 105.141 233.032 105.399 232.952 105.678C232.714 106.511 233.029 107.435 233.61 108.077C234.192 108.719 235.005 109.11 235.838 109.349ZM218.244 124.065C219.45 124.486 220.542 125.226 221.38 126.189C222.101 127.017 222.649 128.091 222.498 129.178C222.442 129.577 222.295 129.958 222.127 130.324C221.491 131.711 220.398 133.04 218.896 133.308C218.108 133.449 217.296 133.28 216.538 133.023C215.662 132.725 214.826 132.306 214.062 131.784C213.657 131.506 213.255 131.177 213.077 130.719C212.955 130.404 212.951 130.056 212.956 129.718C212.967 128.881 213.022 128.03 213.314 127.246C213.683 126.253 214.406 125.434 215.172 124.703C215.48 124.409 215.806 124.119 216.202 123.961C216.849 123.704 217.586 123.836 218.244 124.065ZM219.477 131.36C220.348 130.498 220.855 129.248 220.717 128.03C220.579 126.813 219.754 125.67 218.602 125.254C218.123 125.081 217.591 125.033 217.1 125.169C216.836 125.242 216.587 125.367 216.355 125.514C215.363 126.146 214.667 127.222 214.497 128.386C214.328 129.55 214.69 130.78 215.461 131.667C215.955 132.236 216.761 132.479 217.509 132.385C218.256 132.291 218.941 131.889 219.477 131.36ZM109.459 116.887C109.419 116.312 108.651 116.162 108.076 116.179C105.055 116.268 102.039 116.494 99.0385 116.857C98.5456 116.917 98.5058 117.711 98.9012 118.011C99.2967 118.311 99.8476 118.255 100.339 118.185L109.459 116.887ZM99.8031 120.769C99.829 120.474 100.201 120.367 100.496 120.333L118.287 118.318C118.609 118.282 118.952 118.249 119.242 118.394C119.531 118.539 119.718 118.935 119.529 119.198C119.389 119.392 119.122 119.431 118.884 119.454L100.687 121.22C100.308 121.257 99.7698 121.148 99.8031 120.769ZM139.69 123.766C138.694 123.985 137.673 123.626 136.718 123.269C133.631 122.115 130.556 120.93 127.494 119.713C126.258 119.221 124.901 119.957 123.789 120.687C120.572 122.801 117.474 125.097 114.516 127.56C113.756 128.193 112.587 127.749 111.82 127.124C111.658 126.992 111.499 126.851 111.339 126.71L111.339 126.71C110.742 126.182 110.137 125.648 109.365 125.538C108.179 125.37 107.134 126.27 106.275 127.105L100.729 132.491C99.9831 133.215 99.1981 134.375 99.8618 135.175C100.3 135.703 101.104 135.676 101.785 135.597C105.342 135.185 108.881 134.607 112.419 134.029L112.419 134.029L112.419 134.029L112.419 134.029L112.42 134.029L112.42 134.029L112.42 134.029L112.421 134.029L112.421 134.029L112.421 134.028L112.422 134.028L112.422 134.028L112.422 134.028C118.271 133.073 124.117 132.118 130.033 131.913C131.344 131.868 132.656 131.86 133.967 131.851C134.789 131.846 135.61 131.841 136.432 131.827C140.136 131.762 143.837 131.512 147.516 131.079C147.694 131.058 147.897 131.021 147.989 130.868C148.059 130.752 148.041 130.606 148.022 130.472L146.463 119.867C146.384 119.329 146.246 118.706 145.753 118.473C145.256 118.238 144.67 118.541 144.261 118.91C143.622 119.487 143.13 120.254 142.645 121.01L142.645 121.01C141.848 122.25 141.069 123.463 139.69 123.766ZM114.38 129.569C117.709 126.832 121.179 124.268 124.773 121.891C125.511 121.402 126.409 120.903 127.233 121.223L135.949 124.61C137.403 125.175 138.994 125.748 140.487 125.294C142.223 124.768 143.261 123.04 144.135 121.451C144.305 121.142 144.8 121.177 145.044 121.431C145.289 121.685 145.351 122.059 145.402 122.408L146.04 126.831C146.137 127.51 146.234 128.214 146.038 128.872C145.841 129.529 145.265 130.126 144.579 130.113C133.361 129.896 122.12 130.821 111.088 132.869C110.747 132.933 110.405 132.997 110.063 133.062C107.427 133.559 104.782 134.059 102.104 134.068C103.397 132.236 105.036 130.68 106.663 129.137C107.557 128.29 108.674 127.376 109.874 127.653C110.521 127.803 111.018 128.269 111.512 128.732L111.513 128.732C111.671 128.88 111.829 129.028 111.992 129.166C112.663 129.732 113.702 130.126 114.38 129.569ZM258.304 160.417C258.006 160.528 257.674 160.452 257.372 160.357C255.32 159.712 253.654 158.27 252.017 156.852C251.795 156.66 251.574 156.469 251.352 156.28C248.639 153.966 245.695 151.923 242.577 150.191C242.26 150.015 241.928 149.83 241.733 149.523C241.539 149.217 241.545 148.75 241.844 148.546C243.242 147.591 244.149 145.954 244.215 144.262C244.233 143.811 244.743 143.511 245.192 143.547C245.642 143.583 246.034 143.853 246.402 144.114L260.647 154.226C260.924 154.423 261.222 154.651 261.29 154.984C261.346 155.256 261.232 155.531 261.117 155.784C260.503 157.14 259.796 158.454 259.004 159.714C258.825 159.999 258.62 160.299 258.304 160.417ZM244.053 148.421C243.885 148.717 243.74 149.144 244.012 149.348L255.636 158.1C256.272 158.58 257.262 159.029 257.763 158.41C258.339 157.698 258.876 156.956 259.373 156.188C259.509 155.977 259.647 155.737 259.598 155.492C259.554 155.267 259.365 155.105 259.188 154.961C254.921 151.502 250.405 148.352 245.684 145.544L244.053 148.421ZM238.268 153.774C238.455 153.452 238.683 153.099 239.047 153.02C239.326 152.96 239.61 153.079 239.866 153.204C241.266 153.884 242.548 154.805 243.638 155.915C243.901 156.182 243.933 156.612 243.817 156.967C243.7 157.323 243.459 157.622 243.223 157.913C242.844 158.38 242.44 158.866 241.88 159.088C241.276 159.327 240.574 159.212 240.002 158.904C239.43 158.596 238.971 158.114 238.566 157.606C238.039 156.943 237.566 156.148 237.648 155.305C237.702 154.752 237.988 154.253 238.268 153.774ZM240.716 157.485C241.596 157.827 242.159 157.556 242.182 156.978C242.197 156.614 241.879 156.334 241.59 156.111L240.716 155.439C240.427 155.217 240.108 154.984 239.744 154.986C239.379 154.988 239.008 155.364 239.157 155.697C239.135 155.858 239.836 157.143 240.716 157.485ZM237.241 164.591C237.456 164.709 237.683 164.824 237.928 164.829C238.173 164.834 238.438 164.696 238.498 164.458C238.639 163.902 239.008 163.44 239.368 162.988C239.408 162.939 239.447 162.889 239.486 162.84C239.881 162.34 240.262 161.774 240.273 161.137C240.283 160.5 239.756 159.82 239.125 159.907C238.627 159.976 238.165 159.65 237.803 159.301C237.746 159.246 237.689 159.189 237.632 159.132L237.631 159.131C237.329 158.83 237.022 158.523 236.62 158.393C236.143 158.237 235.493 158.484 235.455 158.985C235.379 159.993 234.541 160.753 233.763 161.399C233.531 161.593 233.741 161.964 233.959 162.175C234.938 163.122 236.046 163.937 237.241 164.591ZM237.397 162.67L235.865 161.635C235.476 161.371 235.507 160.726 235.854 160.409C236.202 160.092 236.741 160.068 237.183 160.227C237.626 160.385 237.994 160.696 238.351 161.002C238.588 161.204 238.621 161.571 238.512 161.863C238.404 162.155 238.184 162.388 237.969 162.613C237.895 162.69 237.813 162.772 237.708 162.786C237.595 162.8 237.49 162.734 237.397 162.67ZM249.534 162.738L250.283 161.148C250.512 160.661 250.734 160.058 250.425 159.618C250.317 159.465 250.159 159.357 250.004 159.252L247.28 157.417C246.986 157.219 246.668 157.013 246.314 157.019C245.894 157.026 245.542 157.325 245.244 157.621C244.798 158.063 244.38 158.535 243.996 159.032C243.703 159.411 243.462 160.033 243.862 160.296L248.03 163.03C248.359 163.246 248.777 163.468 249.122 163.28C249.325 163.17 249.436 162.947 249.534 162.738ZM248.61 161.612C248.435 161.653 248.253 161.608 248.081 161.556C247.029 161.239 246.065 160.632 245.326 159.819C245.08 159.549 245.219 159.072 245.531 158.882C245.844 158.693 246.25 158.736 246.587 158.878C246.805 158.969 247.004 159.097 247.204 159.224L247.204 159.224C247.313 159.294 247.422 159.364 247.535 159.428C247.656 159.497 247.782 159.56 247.908 159.623C248.266 159.803 248.625 159.983 248.869 160.293C249.2 160.713 249.131 161.493 248.61 161.612ZM250.018 163.389C250.498 163.275 250.645 162.785 250.798 162.276C250.924 161.855 251.054 161.422 251.379 161.176C251.94 160.752 252.733 161.106 253.337 161.465L255.257 162.607C255.563 162.789 255.876 162.978 256.096 163.258C256.315 163.538 256.423 163.935 256.269 164.257C256.167 164.471 255.973 164.613 255.778 164.756C255.618 164.874 255.457 164.992 255.345 165.151C255.2 165.356 255.147 165.612 255.094 165.865C255.027 166.183 254.961 166.496 254.719 166.696C254.277 167.06 253.62 166.768 253.131 166.47L250.426 164.817C250.153 164.65 249.866 164.467 249.732 164.177C249.598 163.887 249.707 163.463 250.018 163.389ZM253.564 165.03C253.951 164.898 254.263 164.611 254.562 164.331C254.778 164.129 254.488 163.795 254.23 163.65L252.573 162.716C252.4 162.619 252.159 162.53 252.025 162.677C251.594 163.148 251.531 163.916 251.881 164.451C252.23 164.986 252.959 165.237 253.564 165.03ZM234.55 164.973C234.18 164.868 233.802 164.761 233.499 164.555C233.028 164.234 232.373 164.312 231.879 164.595C231.386 164.879 231.017 165.334 230.661 165.778C230.463 166.024 230.26 166.281 230.184 166.588C230.109 166.895 230.199 167.267 230.475 167.421L233.365 169.032C233.584 169.154 233.828 169.28 234.073 169.226C234.316 169.172 234.484 168.955 234.631 168.753L235.374 167.73C235.788 167.161 236.221 166.435 235.918 165.799C235.676 165.29 235.121 165.133 234.55 164.973ZM233.636 167.623C233.485 167.663 233.329 167.59 233.19 167.519L231.221 166.517C231.6 165.981 232.32 165.776 232.972 165.841C233.625 165.905 234.231 166.196 234.822 166.481L233.917 167.421C233.836 167.505 233.749 167.593 233.636 167.623ZM219.997 127.558C220.302 128.023 220.206 128.644 220.004 129.162C219.737 129.844 219.287 130.477 218.651 130.84C218.014 131.203 217.179 131.256 216.559 130.865C215.939 130.475 215.627 129.608 215.959 128.955C216.036 128.804 216.141 128.67 216.246 128.536C216.346 128.408 216.447 128.28 216.523 128.137C216.573 128.043 216.611 127.943 216.65 127.843C216.706 127.699 216.762 127.555 216.851 127.429C217.167 126.982 217.788 126.895 218.335 126.902C218.956 126.911 219.656 127.039 219.997 127.558ZM218.612 127.854C217.763 127.843 216.966 128.555 216.882 129.4C216.848 129.745 216.994 130.174 217.338 130.222C217.596 130.257 217.822 130.058 217.995 129.864C218.361 129.454 218.675 128.997 218.929 128.509C219.013 128.345 219.088 128.135 218.977 127.988C218.895 127.881 218.746 127.855 218.612 127.854ZM238.915 105.713C238.85 104.935 238.33 104.171 237.574 103.976C236.615 103.729 235.685 104.404 234.923 105.038C234.698 105.226 234.462 105.427 234.367 105.704C234.205 106.175 234.496 106.67 234.783 107.076C235.112 107.542 235.463 108.009 235.942 108.317C236.422 108.624 237.061 108.744 237.564 108.477C237.82 108.34 238.02 108.118 238.193 107.885C238.659 107.259 238.981 106.49 238.915 105.713ZM236.787 107.706C236.462 107.754 236.125 107.623 235.885 107.398C235.527 107.06 235.384 106.517 235.51 106.041C235.642 105.539 236.063 105.125 236.566 105.001C237.07 104.877 237.635 105.049 237.984 105.433C237.971 105.537 237.96 105.642 237.95 105.747C237.912 106.105 237.875 106.463 237.752 106.799C237.591 107.233 237.245 107.637 236.787 107.706ZM210.959 228.957C212.728 222.698 216.069 217.018 219.374 211.417C219.933 210.47 220.626 209.427 221.71 209.248C222.138 209.177 222.364 208.712 222.509 208.304C224.302 203.275 224.475 197.682 222.996 192.552C222.574 191.087 223.093 189.535 223.608 188.1L227.589 176.993C227.175 176.277 226.392 175.963 225.599 175.644C224.935 175.377 224.265 175.108 223.797 174.598C222.475 173.157 223.472 170.867 224.507 169.209L242.655 140.145C243.397 138.958 245.023 138.586 246.386 138.902C247.749 139.219 248.913 140.077 250.034 140.914L263.27 150.8C265.638 152.568 268.252 154.828 268.116 157.78C268.04 159.414 267.105 160.866 266.201 162.229L255.711 178.035C254.355 180.079 254.191 182.564 254.025 185.06C253.951 186.189 253.876 187.32 253.69 188.414C252.786 193.751 249.232 198.171 245.827 202.405C245.691 202.574 245.555 202.743 245.42 202.911C241.896 207.3 238.37 212.201 238.172 217.827C237.936 224.531 234.75 231.08 229.621 235.404L234.085 224.577C235.146 222.002 236.129 218.798 234.353 216.653C233.549 215.683 232.334 215.169 231.168 214.691L224.237 211.847C223.759 211.651 223.266 211.451 222.749 211.448C221.139 211.439 220.181 213.185 219.528 214.657C217.269 219.749 214.384 224.564 210.959 228.957ZM233.752 214.253C234.94 214.693 236.613 214.96 237.177 213.825C239.902 208.33 242.703 202.73 247.042 198.394C249.543 195.895 251.076 192.561 251.943 189.134C252.81 185.706 253.056 182.157 253.298 178.63C252.245 179.013 252.154 180.434 252.158 181.554C252.168 184.025 251.736 186.496 250.889 188.816C250.712 189.302 250.474 189.827 249.999 190.031C249.524 190.236 248.825 189.825 248.985 189.333C250.209 185.559 250.665 181.537 250.318 177.584C250.21 176.359 249.982 175.048 249.11 174.179C249.205 176.114 249.299 178.058 249.103 179.985C248.764 183.32 247.568 186.5 246.383 189.635C246.229 190.042 246.043 190.486 245.652 190.677C245.261 190.869 244.655 190.565 244.757 190.142L246.532 182.806C247.508 178.772 248.467 174.433 246.957 170.567C246.196 170.516 246.017 171.604 246.085 172.364C246.55 177.566 245.112 182.729 243.688 187.754C243.522 188.341 242.933 189.074 242.476 188.671C242.279 188.497 242.27 188.197 242.286 187.935C242.376 186.457 242.781 185.026 243.186 183.597L243.186 183.596C243.311 183.153 243.437 182.71 243.553 182.266C244.623 178.168 244.895 173.863 244.352 169.663C243.414 170.864 243.016 172.388 242.641 173.865L240.414 182.634C239.407 186.597 238.12 190.955 234.628 193.084C234.35 193.254 234.028 193.411 233.711 193.336C233.317 193.243 233.094 192.836 232.929 192.466C230.701 187.447 230.422 181.591 232.165 176.382C232.27 176.066 231.949 175.736 231.617 175.71C231.284 175.684 230.973 175.865 230.701 176.057C227.842 178.074 226.747 181.728 225.838 185.107L224.628 189.6C224.452 190.256 224.274 190.918 224.237 191.597C224.181 192.628 224.451 193.637 224.719 194.641C224.781 194.873 224.843 195.106 224.901 195.338C226.064 200.005 225.538 205.075 223.443 209.404C223.134 210.043 223.949 210.623 224.614 210.87L233.752 214.253ZM238.268 171.377C237.791 171.049 237.281 170.674 237.133 170.114C236.907 169.256 237.725 168.393 238.605 168.278C239.485 168.162 240.346 168.587 241.076 169.093C242.103 169.806 243.403 168.719 244.172 167.733C243.135 167.112 242.145 166.149 242.104 164.94C242.063 163.732 243.532 162.581 244.51 163.292C244.89 163.568 245.349 163.737 245.803 163.904C246.483 164.154 247.152 164.4 247.525 164.996C247.949 165.673 247.798 166.589 247.366 167.262C246.934 167.934 246.27 168.417 245.62 168.884C246.552 168.976 247.459 169.308 248.23 169.839L249.07 167.391C249.136 167.201 249.206 167.003 249.356 166.869C249.644 166.61 250.092 166.69 250.461 166.807C251.428 167.114 252.377 167.593 253.016 168.382C253.654 169.172 253.92 170.318 253.474 171.229C253.028 172.141 251.768 172.627 250.915 172.078C250.738 171.963 250.56 171.811 250.382 171.659L250.382 171.659C249.907 171.251 249.431 170.844 248.972 171.17C250.374 172.261 251.337 173.902 251.607 175.658C256.021 168.935 260.387 162.181 264.705 155.397C265.117 154.749 265.45 153.728 264.779 153.356C261.911 151.765 259.376 149.634 256.847 147.509C253.655 144.825 250.473 142.15 246.643 140.58C246.399 140.48 246.134 140.383 245.88 140.45C245.613 140.521 245.426 140.752 245.259 140.971C238.126 150.28 231.725 160.15 226.133 170.458C225.353 171.896 226.397 173.611 227.396 174.907C227.895 175.554 228.858 176.238 229.403 175.628C230.088 174.859 231.213 174.42 232.185 174.763C233.156 175.106 233.76 176.37 233.232 177.254C232.85 177.894 233.598 178.605 234.252 178.963C235.557 179.678 236.897 180.332 238.264 180.922C238.454 181.004 238.675 181.084 238.86 180.991C239.037 180.903 239.108 180.693 239.163 180.504L240.678 175.292C240.927 174.435 241.094 173.323 240.358 172.817L238.268 171.377ZM265.363 156.768C265.162 156.699 264.978 156.9 264.86 157.077L253.519 174.053C253.214 174.51 252.902 174.985 252.813 175.526C252.724 176.068 252.923 176.699 253.416 176.94C254.233 177.339 255.087 176.5 255.611 175.757L266.148 160.823C266.931 159.714 266.269 158.198 265.599 157.018C265.541 156.916 265.474 156.806 265.363 156.768ZM233.433 179.437C233.233 179.292 232.935 179.378 232.768 179.56C232.6 179.742 232.532 179.991 232.469 180.23C232.314 180.817 232.158 181.411 232.135 182.019C232.112 182.626 232.223 183.23 232.333 183.828L233.419 189.731C233.464 189.979 233.518 190.242 233.693 190.422C233.869 190.602 234.211 190.641 234.353 190.434C235.96 188.083 237.59 185.686 238.431 182.965C238.536 182.627 238.566 182.151 238.234 182.027C236.527 181.384 234.907 180.511 233.433 179.437ZM245.974 164.871C245.43 164.353 244.711 164.022 243.963 163.945C243.281 163.876 242.887 164.834 243.199 165.444C243.51 166.055 244.198 166.357 244.834 166.612C245.283 166.792 245.827 166.962 246.219 166.678C246.781 166.269 246.478 165.351 245.974 164.871ZM241.497 171.712C241.719 171.554 241.748 171.231 241.686 170.966C241.452 169.967 240.356 169.457 239.372 169.164C238.992 169.051 238.519 168.972 238.25 169.264C238.026 169.509 238.074 169.914 238.267 170.183C238.46 170.452 238.763 170.618 239.054 170.776L240.574 171.594C240.863 171.75 241.23 171.902 241.497 171.712ZM250.142 168.111C249.821 168.541 249.853 169.168 250.122 169.634C250.39 170.099 250.855 170.423 251.346 170.643C251.514 170.719 251.698 170.785 251.879 170.749C252.034 170.718 252.167 170.613 252.262 170.486C252.613 170.017 252.443 169.311 252.041 168.885C251.639 168.459 251.067 168.245 250.516 168.046C250.421 168.011 250.31 167.978 250.224 168.03C250.191 168.05 250.165 168.08 250.142 168.111ZM97.7621 207.155C97.9725 205.6 98.2673 203.889 99.4888 202.905C100.463 202.12 101.8 201.994 103.051 201.97C107.148 201.892 111.259 202.557 115.122 203.924C116.344 204.357 117.623 204.927 118.292 206.038C119.015 207.24 118.839 208.757 118.639 210.147L115.536 231.703C117.675 225.46 119.211 219.011 120.116 212.474C120.537 209.424 120.685 205.925 118.556 203.7C115.233 200.228 115.324 195.282 115.416 190.253C115.496 185.912 115.576 181.51 113.465 177.94C112.776 176.775 114.312 175.572 115.589 175.125C121.22 173.154 127.222 172.249 133.183 172.473C134.276 181.107 134.571 189.841 134.065 198.528C133.951 200.477 136.714 200.979 138.654 200.764L205.948 193.302C206.284 193.265 206.649 193.215 206.887 192.975C207.166 192.694 207.18 192.253 207.176 191.858C207.017 176.091 206.563 160.327 205.815 144.578C205.786 143.963 205.708 143.257 205.199 142.911C204.817 142.651 204.315 142.686 203.856 142.73L155.824 147.387C158.98 132.505 162.153 117.343 160.714 102.199C150.214 109.199 136.665 109.147 124.067 108.406C123.544 108.375 123.019 108.343 122.493 108.312C110.369 107.587 97.7266 106.832 86.8274 112.076C92.5342 127.207 98.3064 143.723 93.5627 159.183C93.143 160.551 92.6436 161.895 92.1445 163.238C91.3749 165.308 90.6059 167.377 90.1304 169.531C89.3463 173.082 89.4642 177.058 91.5657 180.026C94.6088 184.323 97.027 189.21 97.5786 194.447C98.102 199.417 96.9325 204.345 95.7642 209.268C94.5436 214.412 93.3245 219.55 94.0394 224.722C94.1603 225.597 94.3788 226.538 95.0638 227.096L97.7621 207.155ZM102.523 144.706C103.796 144.751 104.302 146.348 104.464 147.611L105.753 157.612C103.237 156.308 99.698 158.522 99.7702 161.354C97.6504 157.263 97.3284 152.573 97.0096 147.932C96.9402 146.922 96.871 145.914 96.7835 144.916C95.8475 134.236 92.6291 123.907 89.4305 113.675C88.9744 112.216 90.9444 111.27 92.4569 111.048C102.382 109.593 112.427 109.794 122.477 109.995C127.032 110.086 131.588 110.177 136.135 110.114C144.213 110.002 152.761 109.238 159.314 104.512C160.787 114.331 158.785 124.237 156.809 134.019C156.541 135.342 156.274 136.663 156.017 137.981C153.853 149.043 152.38 160.835 156.52 171.319C156.694 171.761 156.1 172.094 155.635 172.191C152.23 172.901 148.71 173.054 145.256 172.642C143.775 172.465 142.309 172.185 140.843 171.906C139.739 171.696 138.635 171.485 137.524 171.318C129.159 170.063 120.428 171.366 112.794 175.008C112.488 175.154 112.124 175.086 111.803 174.975C110.257 174.44 109.154 173.011 108.604 171.471C108.054 169.93 107.975 168.267 107.901 166.632L107.594 159.777C107.582 159.531 107.647 159.196 107.893 159.189C121.267 158.771 134.625 157.869 147.933 156.486C147.37 153.338 147.314 150.099 147.768 146.933C148.054 144.934 146.175 143.112 144.173 142.844C142.172 142.577 140.193 143.483 138.531 144.63C137.909 145.059 137.312 145.525 136.716 145.991C135.717 146.771 134.72 147.549 133.61 148.152C132.883 148.547 132.009 148.866 131.246 148.547C130.312 148.157 129.999 147.045 129.719 146.054C129.701 145.991 129.684 145.929 129.667 145.868C129.302 144.591 128.701 143.32 127.643 142.516C126.585 141.713 124.989 141.513 123.945 142.334C123.052 143.036 122.77 144.251 122.62 145.377C122.607 145.477 122.594 145.578 122.581 145.679C122.449 146.714 122.312 147.784 121.694 148.614C121.016 149.525 119.503 149.916 118.759 149.057C117.288 147.36 114.708 147.004 112.542 147.599C110.377 148.195 108.524 149.571 106.727 150.919C105.643 149.223 105.553 146.939 106.501 145.163L106.517 145.133C106.695 144.8 106.9 144.417 106.742 144.077C106.645 143.867 106.429 143.738 106.216 143.647C104.942 143.1 103.314 143.567 102.523 144.706ZM140.814 173.372C141.527 173.514 142.403 173.832 142.447 174.557C142.867 181.473 148.363 187.688 155.121 189.219C161.878 190.749 169.367 187.654 173.307 181.955C177.247 176.255 177.556 168.338 174.325 162.209C170.86 155.636 162.44 152.145 155.34 154.338C155.011 152.886 155.048 151.352 155.447 149.917C155.521 149.65 155.618 149.372 155.833 149.198C156.043 149.028 156.327 148.989 156.595 148.957L176.594 146.548C178.352 146.336 180.115 146.124 181.886 146.11C189.501 146.047 197.11 145.288 204.588 143.844C205.75 159.446 206.296 175.093 206.226 190.738C206.223 191.48 205.997 192.466 205.255 192.488C192.669 192.855 180.182 194.51 167.69 196.166C159.297 197.279 150.902 198.392 142.473 199.115C140.594 199.276 138.703 199.418 136.826 199.239C136.486 199.206 136.102 199.137 135.917 198.849C135.805 198.676 135.793 198.459 135.784 198.253L134.661 173.23C134.647 172.907 134.666 172.517 134.946 172.354C135.132 172.247 135.364 172.285 135.575 172.327L140.814 173.372ZM106.38 167.579C106.181 168.879 105.957 170.341 106.809 171.324C109.985 174.992 113.284 178.911 114.128 183.688C114.522 185.919 114.353 188.216 114.184 190.502C113.972 193.383 113.761 196.249 114.678 198.951C114.702 199.022 114.727 199.092 114.751 199.163C114.92 199.645 115.092 200.136 115.037 200.639C114.974 201.216 114.474 201.796 113.902 201.698L107.262 200.552C105.064 200.173 102.741 199.804 100.652 200.589C100.249 200.741 99.7837 200.475 99.5673 200.101C99.3509 199.728 99.3225 199.279 99.3037 198.848C99.2811 198.328 99.2641 197.804 99.247 197.278C99.1398 193.973 99.0305 190.606 97.5006 187.71L92.6195 178.47C91.8989 177.106 91.1615 175.681 91.1117 174.139C91.0785 173.109 91.3565 172.098 91.6321 171.105L94.0671 162.334C94.5798 160.487 95.1222 158.582 96.3362 157.099C99.2856 162.103 99.5767 168.576 97.0882 173.825C96.858 174.31 97.5612 174.81 98.0625 174.617C98.5638 174.423 98.8183 173.874 98.9951 173.367C99.7029 171.334 99.9511 169.191 100.2 167.045C100.401 165.309 100.602 163.571 101.047 161.888C101.32 160.856 101.714 159.803 102.51 159.094C103.306 158.384 104.605 158.141 105.44 158.805C106.078 159.314 106.286 160.183 106.407 160.99C106.728 163.12 106.726 165.298 106.403 167.428C106.395 167.478 106.388 167.528 106.38 167.579ZM117.836 150.262C118.815 151.011 119.773 151.745 120.947 151.609C122.44 151.436 123.37 149.9 123.803 148.461C123.898 148.146 123.983 147.824 124.067 147.501C124.369 146.349 124.673 145.187 125.464 144.32C125.694 144.068 126.025 143.833 126.352 143.932C126.616 144.012 126.77 144.28 126.893 144.527C127.067 144.878 127.232 145.235 127.396 145.592C127.861 146.598 128.326 147.604 129 148.478C129.914 149.663 131.336 150.594 132.822 150.431C134.152 150.286 135.191 149.344 136.204 148.426C136.411 148.238 136.618 148.051 136.825 147.872C139.264 145.769 142.44 144.538 145.66 144.45C145.225 145.535 145.515 146.719 145.799 147.88C145.867 148.16 145.936 148.438 145.993 148.714C146.448 150.886 146.218 153.197 145.344 155.238L123.843 156.893C118.824 157.279 113.792 157.666 108.76 157.489C108.443 157.478 108.117 157.463 107.824 157.337C107.272 157.101 106.944 156.512 106.825 155.923C106.559 154.603 107.167 153.228 108.089 152.246C109.011 151.264 110.215 150.603 111.398 149.958C112.628 149.287 113.994 148.594 115.366 148.88C116.279 149.071 117.064 149.671 117.836 150.262ZM158.551 181.583C155.294 181.516 152.472 178.858 151.505 175.747C151.307 175.112 151.718 174.415 152.284 174.066C152.851 173.718 153.536 173.635 154.197 173.561L158.97 173.025C157.518 170.204 156.485 167.168 155.913 164.048C155.861 163.765 155.813 163.467 155.903 163.194C156.06 162.713 156.577 162.461 157.056 162.3C160.934 160.996 165.59 162.579 167.871 165.975C170.151 169.371 169.852 174.281 167.176 177.375C166.017 178.714 164.499 179.703 162.899 180.464C161.535 181.112 160.061 181.614 158.551 181.583ZM174.008 164.815C174.588 166.729 174.755 168.742 174.835 170.74C173.533 170.543 172.219 170.431 170.903 170.406C170.645 167.045 168.408 164.008 165.468 162.361C162.527 160.714 158.977 160.358 155.654 160.922C155.626 160.448 155.54 159.954 155.453 159.459C155.225 158.155 154.997 156.85 155.841 155.924C156.35 155.365 157.126 155.141 157.87 155.002C161.258 154.371 164.871 155.033 167.816 156.823C170.76 158.614 173.01 161.517 174.008 164.815ZM150.119 175.408C150.113 175.47 150.108 175.531 150.105 175.589C150.083 176.054 150.3 176.48 150.514 176.901C150.571 177.015 150.629 177.127 150.681 177.24C150.929 177.775 151.05 178.48 150.635 178.899C149.631 179.912 148.743 181.041 147.996 182.256C147.811 182.557 147.356 182.581 147.052 182.402C146.748 182.223 146.56 181.903 146.384 181.597C145.273 179.66 144.135 177.634 143.996 175.406C143.979 175.129 144.009 174.793 144.255 174.664C144.363 174.607 144.491 174.605 144.614 174.605L149.582 174.59C149.701 174.589 149.826 174.591 149.929 174.649C150.173 174.788 150.145 175.11 150.119 175.408Z" fill="#00160A"/>
</g>
</svg>
