<svg width="149" height="122" viewBox="0 0 149 122" fill="none" xmlns="http://www.w3.org/2000/svg">
<path d="M56.6271 99.0049C56.6271 99.0049 61.23 96.8397 62.9484 95.3333C64.6667 93.827 66.8031 90.0846 66.8031 90.0846C66.8031 90.0846 90.2695 107.032 105.57 104.614C109.096 104.057 115.965 101.714 116.403 97.5853C117.599 86.311 101.049 83.4299 104.664 77.7126C106.871 74.2227 113.726 79.4167 113.726 79.4167L142.159 93.4021C142.159 93.4021 132.336 117.616 108.499 118.586C79.1754 119.78 56.6271 99.0049 56.6271 99.0049Z" fill="#FCFEFF"/>
<path fill-rule="evenodd" clip-rule="evenodd" d="M34.0844 4.17955C33.8175 4.07478 32.3844 2.31994 30.5649 2.00055C29.7381 1.85541 30.4885 2.9082 29.5786 2.91767C26.8686 2.94589 22.4644 2.43674 21.6486 2.91767C21.0422 3.27397 22.3776 4.51869 21.6486 4.57583C14.7702 5.11498 4.27679 11.9828 2.00013 15.3147C1.27559 16.375 7.13548 14.576 6.20183 15.1002C5.15392 15.6886 3.99172 19.5411 3.29685 22.5166C2.81578 24.5656 2.51289 27.2025 2.40599 30.0711C2.3169 32.5477 2.35253 32.9575 2.70888 34.3116C3.11868 35.8261 3.43939 36.2715 3.99172 36.0577C4.18771 35.9864 4.27679 35.7192 4.27679 35.2203C4.27679 34.8283 4.4906 33.6524 4.75786 32.6011L5.22111 30.7125L5.4171 31.4965C5.66654 32.4052 7.12755 35.2203 8.44602 37.2692C8.51712 37.378 8.82307 37.2397 9.09896 36.5728C9.35036 35.9652 9.24834 34.9944 9.67541 33.954C10.6482 31.584 12.5584 28.5027 14.7702 26.0361C18.0391 22.3908 19.1236 18.1721 22.1879 14.7856C27.9063 8.46572 35.0834 4.57174 34.0844 4.17955Z" fill="#FCFEFF"/>
<path fill-rule="evenodd" clip-rule="evenodd" d="M6.2831 15.9601C5.36578 16.6978 4.00412 22.681 3.98076 22.781C3.4997 24.83 3.03598 31.9454 3.50998 33.2925C3.98399 34.6396 5.31126 29.7835 5.31126 29.7835C5.31126 29.7835 7.31741 34.9928 9.09005 36.4211C9.16578 36.4821 6.98303 29.9761 6.2831 26.178C5.35914 21.1642 6.80517 15.5403 6.2831 15.9601Z" fill="#E7EAEE"/>
<path fill-rule="evenodd" clip-rule="evenodd" d="M40.4741 120.747C42.1845 120.373 45.0706 119.07 46.1756 118.625C47.2806 118.179 50.6477 113.424 51.8593 108.061C52.7323 104.106 53.1777 98.4757 52.6789 97.5314C52.6052 97.3974 52.3357 94.8371 53.0531 95.6731C54.6478 97.5314 56.5408 100.449 62.5138 95.2212C64.1406 93.7974 66.2969 91.9599 65.7291 90.3354C64.1406 85.7902 57.2547 76.638 56.2049 75.9447C54.9498 75.1158 48.6058 75.8202 39.1646 73.0336C28.4577 69.8734 23.9993 60.5676 19.8093 61.779C16.4208 62.7586 8.30237 68.7788 6.26489 72.5912C-3.35408 90.5895 8.30237 103.201 10.957 106.823L13.5344 107.937L13.6235 110.235L13.7483 111.678C13.9799 114.44 14.069 114.689 15.3162 115.616C18.4342 117.986 24.5811 120.195 30.1401 120.979C32.7236 121.335 38.336 121.21 40.4741 120.747Z" fill="#FCFEFF"/>
<path fill-rule="evenodd" clip-rule="evenodd" d="M14.5481 109.394L14.6729 110.837C14.9045 113.599 14.9936 113.848 16.2408 114.774C18.0802 116.172 20.9737 117.515 24.1788 118.541C26.4067 119.255 28.7851 119.816 31.0647 120.137C33.6482 120.494 39.2606 120.369 41.3987 119.906C42.4555 119.677 33.7626 112.847 28.6415 114.774C24.7088 116.254 15.4394 104.966 19.2082 102.017C23.436 98.7088 15.6889 85.6605 15.4394 82.8277C15.19 79.9949 14.2076 79.318 14.179 79.4174C14.1503 79.5168 14.1503 79.8557 14.2274 80.6723C14.5598 84.1923 14.5481 109.394 14.5481 109.394Z" fill="#E7EAEE"/>
<path fill-rule="evenodd" clip-rule="evenodd" d="M13.62 82.0192C13.994 81.9464 14.3563 82.1906 14.4291 82.5646C15.7738 89.4732 21.4618 94.1502 31.6328 96.596C41.8642 99.0562 48.8334 98.9235 52.5055 96.2974C52.8155 96.0757 52.5844 97.9741 52.3573 98.1197C49.9623 99.6556 41.8194 101.947 32.1021 99.876C19.6775 97.2277 13.8438 86.7804 13.0745 82.8283C13.0017 82.4543 13.2459 82.092 13.62 82.0192Z" fill="#2B74B9"/>
<path fill-rule="evenodd" clip-rule="evenodd" d="M8.43876 69.5546C8.76952 69.3654 21.11 83.5085 38.0452 86.7099C54.9805 89.9113 59.0808 87.8752 59.7399 83.5085C59.7968 83.1317 60.1484 82.8724 60.5252 82.9292C60.902 82.9861 61.1613 83.3377 61.1045 83.7145C60.2691 89.2486 52.4328 90.565 37.8131 88.0702C23.377 85.6068 13.4795 79.7539 8.18253 70.4962C7.99328 70.1654 8.10799 69.7439 8.43876 69.5546Z" fill="#2B74B9"/>
<path fill-rule="evenodd" clip-rule="evenodd" d="M79.5189 68.7701C79.0557 68.6098 78.5568 68.2534 78.2361 67.8437L77.7016 67.1844L79.5902 65.3136C82.4944 62.4629 84.7215 59.5408 86.6458 56.0665C87.2872 54.9084 88.9086 51.042 88.9086 50.6679C88.9086 50.5432 89.1046 50.0443 89.3362 49.5276C89.6925 48.7793 89.9598 48.4942 90.7259 48.0666C91.6346 47.532 92.668 47.3539 93.1134 47.6568C93.9686 48.2269 93.9686 50.0265 93.1134 53.1266C92.1691 56.5297 90.9041 58.9707 88.285 62.4807C87.8752 63.0152 87.109 64.0664 86.5567 64.7969C85.0779 66.7568 84.1157 67.7011 82.8151 68.4316C81.5323 69.1443 80.7839 69.2334 79.5189 68.7701ZM92.3117 67.1666L93.5945 67.7368C93.8605 67.8595 96.7949 69.2695 100.32 70.9632C106.003 73.6939 113.221 77.1621 113.265 77.1621C113.336 77.1621 113.67 76.389 113.746 75.4873C113.924 73.5452 114.583 70.9082 115.349 69.0731C115.706 68.2535 115.991 67.2291 115.991 67.1401C115.991 67.0994 115.701 66.9826 115.227 66.7913C114.662 66.5636 113.836 66.2304 112.926 65.7947C108.436 63.6388 99.6524 59.238 98.5655 58.5787C97.4965 57.9551 97.2827 57.9017 97.2827 58.3115C97.2827 58.846 96.1958 61.3226 95.3584 62.6589C94.913 63.3894 94.0399 64.7078 93.4163 65.5809L92.3117 67.1666ZM112.962 73.955C113.473 74.2511 112.588 74.6855 112.374 74.7568C111.115 74.8637 109.633 74.6269 108.418 73.9193C107.783 73.4691 102.784 70.6915 99.4675 68.849C97.9513 68.0067 96.7869 67.3598 96.5522 67.2201C95.8038 66.7746 95.0911 66.2936 94.9664 66.151C94.5923 65.67 94.9486 65.4562 95.9998 65.5452C96.6318 65.5988 111.858 73.3154 112.962 73.955ZM45.4011 118.826L45.4013 118.826L45.4018 118.826L45.4061 118.824C45.7362 118.685 46.0203 118.565 46.2363 118.478C47.3414 118.032 50.7085 113.278 51.92 107.915C52.7931 103.959 53.2385 98.3289 52.7396 97.3846C52.4388 96.8377 54.2258 98.6724 55.5566 100.039L55.5567 100.039L55.5568 100.039L55.5589 100.041L55.5608 100.043C55.9626 100.455 56.3225 100.825 56.5703 101.073C64.3386 108.788 75.902 114.988 87.9108 117.892C93.8974 119.353 98.1557 119.87 103.875 119.87C113.479 119.87 121.051 117.981 127.928 113.83C128.254 113.633 128.559 113.452 128.851 113.28L128.852 113.279L128.853 113.279C131.25 111.859 132.679 111.014 136.587 106.614C140.972 101.679 144.872 90.2221 146.173 86.2667C146.743 84.485 148.133 77.3983 148.133 75.6298C148.133 73.5361 147.402 72.5474 146.405 71.5318C144.641 69.8036 142.253 69.18 140.276 69.9283L139.349 70.2846L139.064 69.3403C138.654 67.9149 137.799 66.7747 136.481 65.9194C134.521 64.6188 134.236 64.5297 132.472 64.5297C131.1 64.5297 130.726 64.6009 129.853 65.0107L128.837 65.474L128.623 64.8326C128.213 63.5141 126.839 61.6761 125.772 61.1444C124.827 60.6729 123.189 60.6296 122.049 60.8415C119.554 61.3048 117.772 62.4629 117.042 64.0842C116.828 64.5831 116.561 64.9751 116.454 64.9751C116.365 64.9751 112.855 63.9948 108.668 62.1418C107.977 61.8349 107.326 61.5467 106.715 61.2757L106.701 61.2693L106.679 61.2597L106.675 61.258L106.675 61.258C99.1562 57.9254 97.5266 57.2031 97.6746 56.2981C97.7994 55.532 97.7637 55.1044 97.5499 54.4451C97.1758 53.3405 96.7481 53.0376 95.5366 53.0376C94.5744 53.0376 94.5744 53.0376 94.6814 52.5565C95.2515 49.8305 95.2337 48.2626 94.6279 47.2648C94.2181 46.6056 93.737 46.3383 92.6324 46.1779C91.991 46.0889 91.6881 46.1423 90.9754 46.5343C90.4943 46.7837 90.0845 46.9619 90.0489 46.9263C90.0132 46.8906 90.138 45.9107 90.334 44.7526C91.795 36.1825 90.6663 28.7985 86.9425 20.9589C86.9068 20.8839 86.8654 20.7952 86.8182 20.6937C85.6861 18.2632 81.1342 8.4904 68.1159 3.55916C67.5266 3.33595 66.969 3.12013 66.4332 2.91271C61.9987 1.19624 59.0507 0.0551443 51.9379 0.0669858C43.9655 0.0802583 41.2653 1.20729 36.0093 3.61261C35.2788 3.95114 34.6373 4.14713 34.5839 4.07586C34.5304 3.98677 34.1919 3.77297 33.8534 3.59479C33.5148 3.41662 32.7843 2.97119 32.2498 2.61485C30.7175 1.58145 29.7732 1.15384 29.2922 1.26074C28.7398 1.40328 28.7398 1.86652 29.2922 2.08033C29.5238 2.16942 29.791 2.47231 29.898 2.7752C30.1296 3.41662 30.3968 3.48789 30.5572 2.95337C30.6285 2.75739 30.7354 2.61485 30.7888 2.65048C30.8091 2.66062 30.8769 2.69238 30.9804 2.74083C31.2409 2.86275 31.7271 3.09037 32.2498 3.34535C32.9803 3.7017 33.7821 4.07586 33.9959 4.16495C34.3879 4.30748 34.2632 4.41439 32.5705 5.41215C25.9604 9.2963 20.5796 15.3363 17.5684 22.2138C17.1052 23.2472 16.6954 23.8886 16.2678 24.2449C15.1809 25.1536 13.0429 27.7371 12.544 28.7527C12.2767 29.305 11.7066 30.1603 11.2611 30.6591C10.8335 31.158 10.3703 31.7994 10.2099 32.0667C10.0674 32.3518 9.92486 32.5478 9.87141 32.5121C9.83577 32.4587 9.88922 31.5856 10.0139 30.5701C10.2812 28.2004 10.2812 27.5768 10.0674 27.5233C9.74669 27.4342 9.28344 28.6814 9.08745 30.2315C8.94491 31.1758 8.90928 32.6012 8.99836 34.0622L9.10527 36.3785L7.84024 34.3295C7.40606 33.6456 6.97848 32.9618 6.67436 32.4754L6.67411 32.475L6.6734 32.4739L6.67234 32.4722L6.67177 32.4712L6.67155 32.4709L6.67125 32.4704L6.67105 32.4701C6.47765 32.1607 6.33464 31.932 6.27233 31.8351C5.80908 31.158 5.54182 30.1424 5.73781 29.8039C5.84472 29.6079 5.8269 29.5188 5.64873 29.5188C5.27457 29.5188 4.54406 30.7126 4.06299 32.0845C3.83137 32.7259 3.59975 33.2605 3.52848 33.2605C3.26122 33.2605 3.38594 26.8819 3.67102 24.8329C4.25898 20.7884 5.80908 15.7996 6.50395 15.7996C6.64649 15.7996 6.77121 15.7283 6.77121 15.6214C6.77121 15.3007 6.30796 15.4254 5.9338 15.8352C5.09639 16.7439 3.99173 19.5412 3.29685 22.5167C2.81579 24.5657 2.5129 27.2026 2.40599 30.0712C2.31691 32.5478 2.35254 32.9576 2.70889 34.3117C3.11868 35.8261 3.43939 36.2716 3.99173 36.0578C4.18772 35.9865 4.2768 35.7192 4.2768 35.2204C4.2768 34.8284 4.49061 33.6524 4.75787 32.6012L5.22111 30.7126L5.4171 31.4966C5.66654 32.4052 7.12756 35.2204 8.44603 37.2693C9.35471 38.6591 9.37252 38.7482 9.67542 40.9219C9.83577 42.1512 10.3347 45.1415 11.4928 49.7414C12.516 53.8056 18.2686 57.8374 19.7049 58.8441L19.705 58.8441C19.8943 58.9768 20.0086 59.0569 20.0272 59.0776C20.2054 59.2736 20.4548 59.3805 20.5974 59.327C20.7577 59.2736 20.8468 59.3449 20.8468 59.5409C20.8468 59.719 20.9715 59.9506 21.1141 60.0576C21.2922 60.1823 21.417 60.6633 21.4526 61.5007C21.5417 63.1756 22.7889 66.3827 23.751 67.4339C24.3746 68.1109 25.6753 68.396 27.1185 68.1466C28.0628 68.004 28.33 67.8971 28.241 67.6833C28.1875 67.5408 28.526 67.719 28.9893 68.0753C34.4057 72.2089 39.8934 74.6855 46.0582 75.7545C48.4457 76.1643 52.4011 76.3959 54.557 76.2356C56.4634 76.1109 56.4634 76.1109 56.3743 76.485C56.2496 76.9839 56.41 77.2868 59.0291 81.7233C61.1137 85.2333 61.2919 85.4649 63.6081 87.8346C68.5257 92.9125 73.8887 96.8501 79.9643 99.8969C85.6837 102.748 94.8149 105.117 103.162 105.866C111.51 106.614 117.505 98.9525 117.487 96.9926C117.452 94.3022 117.078 92.5383 116.169 90.8279C115.278 89.1709 114.69 88.6007 112.017 86.819C109.042 84.8413 107.207 83.2199 105.995 81.4917C105.229 80.4048 104.944 79.1754 104.944 78.5162C104.944 78.0886 105.496 77.1264 106.316 76.9305C107.064 76.7345 107.207 76.7523 108.044 77.1621C108.543 77.3937 109.844 77.9995 110.913 78.5162C112 79.0151 113.051 79.514 113.265 79.6209C113.895 79.796 114.162 81.0298 114.306 81.6985C114.338 81.8479 114.364 81.9691 114.387 82.044C114.637 82.9705 115.817 84.1668 116.579 84.574C117.916 85.2893 121.212 85.3849 122.12 84.4049C122.352 84.1555 123.12 83.8488 123.278 83.9417C123.436 84.0346 124.008 84.8057 124.008 85.4293C124.026 86.4983 124.579 87.4782 125.755 88.4582C127.982 90.3112 129.71 90.7566 131.456 89.937C132.365 89.5094 133.109 89.3424 133.109 89.3424C133.109 89.3424 133.852 90.2901 133.897 90.6141C134.247 93.1456 137.995 94.2068 138.993 94.3137C139.221 94.3366 139.666 94.2387 140.118 94.1394C140.723 94.0065 141.34 93.8709 141.469 94.0172C141.724 94.3043 137.211 101.768 136.587 102.712C130.654 111.621 119.109 117.073 104.98 117.643C95.8038 118.017 84.5255 115.451 74.7439 110.783C68.49 107.772 62.9489 104.084 57.0158 98.9169C55.9824 98.026 54.7886 97.0105 54.361 96.6541C53.9334 96.3156 52.9178 95.1575 52.1338 94.0884C50.8154 92.3067 50.067 91.6653 50.067 92.2711C50.067 92.5383 50.9223 94.1775 51.9022 95.7989C52.2942 96.4403 52.5436 96.8857 52.4545 96.8145C52.3655 96.7432 52.0804 98.026 51.8131 99.6652C50.9401 104.921 49.4969 110.106 48.0359 113.331C47.2341 115.077 45.6968 116.381 45.2335 116.737C43.5231 118.038 40.9624 118.623 37.4168 118.979C32.9269 119.425 26.3167 118.427 21.2744 116.538C19.9381 116.039 16.4994 114.596 16.2678 114.436C16.2539 114.422 16.175 113.909 16.0648 113.194L16.0648 113.194L16.0646 113.193C16.0336 112.991 16.0001 112.774 15.9649 112.547C15.3235 108.146 14.4326 91.202 14.4326 83.3625C14.4326 80.1197 14.397 79.4071 14.1832 79.4071C13.7377 79.4071 13.5596 79.8347 13.3636 81.367C12.9181 84.8591 13.0072 103.086 13.4883 106.917L13.5952 107.79L12.9894 107.451C12.0629 106.917 8.53512 103.336 7.30573 101.679C6.26495 100.262 5.64637 98.4477 5.18357 97.0904L5.18352 97.0902C5.0759 96.7746 4.97671 96.4837 4.88259 96.2282C2.29909 89.0657 3.20777 81.0284 6.77121 73.7946C9.80014 67.6299 13.5239 64.209 18.976 62.552C19.8669 62.2847 20.6508 61.9996 20.7399 61.9284C21.0784 61.6076 18.9047 61.768 17.711 62.1422C13.8268 63.3359 9.7645 66.5965 7.00283 70.7657C3.11868 76.6097 1.3726 85.2333 2.60198 92.5918C2.88706 94.3379 4.04518 98.1151 4.36589 98.3824C4.39428 98.4108 4.54083 98.7182 4.76245 99.1832C5.37526 100.469 6.56211 102.959 7.41263 104.084C8.44603 105.491 11.564 108.556 12.8647 109.5L13.6843 110.088L13.809 111.531C14.0406 114.293 14.1297 114.543 15.3769 115.469C18.4949 117.839 24.6419 120.048 30.2008 120.832C32.7843 121.188 38.3968 121.064 40.5348 120.6C41.9091 120.3 44.0422 119.4 45.4007 118.826L45.4009 118.826L45.4011 118.826ZM100.757 103.87C90.4052 102.961 77.8975 98.0257 68.8464 90.3999C65.0335 87.175 60.0803 80.9037 58.1204 77.4293C57.7106 76.7166 57.4077 76.3781 57.0514 76.289C56.6772 76.1821 56.9979 76.0752 58.5302 75.8258C64.9979 74.7211 71.2873 72.0307 76.3653 68.2L77.1136 67.6477L77.3274 68.1644C77.8084 69.3225 79.6614 70.4984 81.0334 70.4984C81.5857 70.4984 83.4387 69.661 84.5612 68.8949L85.3273 68.3782L85.9509 69.0018C86.5211 69.5719 86.628 69.6076 87.697 69.6076C88.9264 69.6076 90.4052 69.0552 91.2248 68.2713L91.6702 67.8615L92.9353 68.6989C93.6123 69.18 95.5009 70.2312 97.1223 71.0686C99.5454 72.3158 102.111 73.759 104.552 75.2556L104.944 75.5051L104.57 76.004C104.178 76.5385 103.448 77.554 103.448 79.1041C103.448 80.8502 105.263 83.9874 108.739 86.1419C111.47 87.8346 116.169 91.164 115.991 96.0305C115.969 96.6183 115.314 98.0795 114.441 99.398C113.87 100.235 112.285 101.483 110.842 102.213C108.383 103.442 104.053 104.155 100.757 103.87ZM5.75563 23.8886C6.23669 23.9955 6.5574 24.1559 6.48613 24.2271C6.2545 24.4588 5.02512 24.3519 4.74005 24.0668C4.29462 23.6392 4.40152 23.3363 5.02512 23.2115C5.34583 23.1581 5.82689 22.8908 6.09415 22.6236C6.36141 22.3563 6.59303 22.2316 6.59303 22.3207C6.59303 22.5523 5.70217 23.3719 5.25675 23.5501C4.97167 23.6748 5.06076 23.7282 5.75563 23.8886ZM12.8469 24.1737C13.3636 23.8886 13.2567 23.6926 12.6509 23.7817C12.0451 23.8708 12.0095 23.7995 12.4014 23.1937C12.5618 22.9621 12.6509 22.6236 12.6153 22.4454C12.5618 22.2138 12.4371 22.3207 12.152 22.8908C11.9382 23.3006 11.6353 23.6392 11.4928 23.6392C11.0473 23.6392 11.0117 23.9955 11.4393 24.1559C11.9917 24.3875 12.4193 24.3875 12.8469 24.1737ZM6.68212 14.4455C6.25451 14.5167 4.91822 15.0513 3.74228 15.6392C2.54853 16.2094 1.53295 16.6904 1.46168 16.6726C-0.355676 16.4766 2.17437 13.4477 6.77121 10.3475C11.1721 7.37204 14.1475 5.80413 16.9092 5.00236C18.6375 4.50347 20.5795 4.43221 21.1319 4.842C21.4348 5.07363 21.3279 5.09144 20.0094 5.10926C17.1586 5.10926 13.8625 6.57027 8.49948 10.1515C5.71999 12.0045 2.49508 14.6593 2.49508 15.0869C2.49508 15.176 3.01178 14.9978 3.6532 14.7127C5.02512 14.0891 6.43268 13.7684 7.05628 13.911C7.71552 14.0891 7.57298 14.3208 6.68212 14.4455ZM13.5774 15.9778C15.2522 15.6392 15.3235 15.6214 15.3235 15.4432C15.3235 15.3542 14.6821 15.2651 13.8803 15.2294L12.4371 15.176L13.7734 13.6615C14.5039 12.8241 15.3591 11.9867 15.662 11.7907C16.3212 11.3631 16.3569 11.0602 15.8224 10.882L15.4126 10.7573L15.858 10.597C16.1074 10.5079 16.5707 10.4722 16.8914 10.5257C17.3724 10.597 17.4794 10.5613 17.4259 10.3119C17.3724 10.0624 17.1765 10.009 16.3034 10.0268C13.7556 10.0624 12.6687 10.7395 14.6642 11.0602C15.2166 11.1493 15.6798 11.2918 15.6798 11.3809C15.6798 11.4522 15.5907 11.5234 15.4838 11.5234C15.1453 11.5234 12.2767 14.4277 11.9204 15.1403C11.368 16.1916 11.6709 16.3519 13.5774 15.9778ZM25.3368 9.06468C24.8201 9.10031 24.6953 9.1894 24.731 9.43884L24.7365 9.47513L24.7365 9.47516C24.7565 9.60694 24.768 9.68264 24.7384 9.70563C24.6985 9.73667 24.5839 9.67163 24.3144 9.51879L24.2677 9.49229C23.9292 9.31412 23.8936 9.22503 24.0895 9.08249C24.2143 8.97559 24.5528 8.81523 24.8201 8.76178L25.3189 8.63706L24.9448 8.24508C24.7488 8.01346 24.6419 7.79965 24.6953 7.72838C24.8379 7.58585 26.584 7.78184 26.8334 7.97783C26.9403 8.06691 27.1007 8.04909 27.2076 7.94219C27.457 7.69275 27.7955 7.88874 27.7955 8.28072C27.7955 8.49452 27.7421 8.51234 27.5817 8.35199C27.4392 8.20945 27.3145 8.20945 27.1541 8.33417C27.0116 8.45889 26.9047 8.45889 26.8156 8.31635C26.7621 8.22727 26.4236 8.13818 26.0673 8.13818C25.7385 8.13818 25.5831 8.13818 25.5513 8.20083C25.5229 8.25702 25.5939 8.36361 25.7287 8.56579C26.0129 9.00985 25.9961 9.01122 25.3428 9.06418L25.3368 9.06468ZM22.6285 4.3253C22.6285 4.09367 22.4147 3.68388 22.1475 3.41662L21.6486 2.91774L24.3212 3.02464C25.8 3.09591 27.4748 3.25627 28.0628 3.41662C28.6507 3.55916 29.3278 3.66606 29.5772 3.66606C29.9514 3.66606 29.8801 3.59479 29.1853 3.22063C27.9737 2.59703 26.4236 2.29414 23.4481 2.08033C19.8847 1.83089 18.0851 2.16942 18.4237 3.06028C18.4771 3.23845 18.7622 3.32753 19.1898 3.32753C20.0629 3.32753 21.4882 3.84423 21.9693 4.3253C22.486 4.84199 22.6285 4.84199 22.6285 4.3253ZM13.9337 51.5053C15.3769 53.3583 17.2834 55.4607 18.1742 56.1734C18.7087 56.601 19.172 56.9573 19.2076 56.9573C19.2254 56.9573 18.8335 56.1378 18.3346 55.14C16.3212 51.1311 15.1453 47.1401 14.593 42.5432C14.4682 41.5276 14.2723 40.6724 14.0584 40.3161C13.6308 39.6034 13.6308 38.6769 14.0763 37.8038C14.3079 37.3406 14.4326 36.7526 14.4326 36.1112V35.1313L13.5774 36.0221C12.74 36.8952 11.9382 37.2515 11.9382 36.717C11.9382 36.325 13.2567 34.4364 13.9515 33.8484C14.5039 33.3852 14.5751 33.2248 14.7533 31.8351C14.878 30.9977 15.1631 29.5188 15.3947 28.5389C15.6442 27.5589 15.7867 26.7215 15.7511 26.6859C15.6264 26.5612 11.4393 31.37 10.8692 32.9041C10.744 33.2409 10.4059 33.8306 10.1387 34.187L9.67541 34.7817C9.67541 34.7817 9.81931 35.6146 9.9783 36.6613C10.1389 37.7189 10.2143 38.4459 10.2814 39.0934C10.3712 39.9595 10.4463 40.6835 10.691 41.8662C10.9761 43.3272 11.2611 44.5922 11.3324 44.6813C11.3859 44.7882 11.6175 45.6078 11.8491 46.5165C12.348 48.5298 13.1854 50.5253 13.9337 51.5053ZM86.236 68.3604L85.8618 67.9862C85.8618 67.9862 92.0719 60.0962 93.1847 57.189C94.0339 54.9704 94.5337 54.3412 95.208 54.3412C95.5851 54.3412 95.8929 54.4273 96.0355 54.6411C96.2849 55.0153 96.5253 55.4785 96.2046 57.0643C95.67 59.6299 94.8504 61.3226 92.3917 64.9751C91.8215 65.8125 91.091 66.739 90.7703 67.0597C90.022 67.7546 88.3384 68.4673 87.3585 68.6276C86.7349 68.7167 86.5567 68.6811 86.236 68.3604Z" fill="#00160A"/>
<path d="M135.572 85.7903C137.789 79.7509 137.453 78.4641 137.069 78.3382C137.069 78.3382 136.222 78.8192 135.848 79.8348C135.153 81.7413 132.775 86.7301 131.884 87.6209C130.832 88.6722 130.832 88.6722 129.763 88.6722C128.694 88.6722 125.611 87.0622 125.191 85.4753C124.52 82.9362 127.412 74.1155 127.483 73.6166L127.002 73.2781C126.681 73.581 122.509 86.2312 117.024 82.935C116.396 82.5576 115.064 80.7791 114.957 79.8348C114.364 77.091 117.088 67.4964 117.551 65.5257C117.966 63.7617 120.124 62.1245 122.779 62.1245C126.859 62.1245 126.311 65.6911 128.139 66.9478C128.949 67.5048 130.28 66.4951 130.69 66.4185C132.988 65.9908 133.869 66.4888 135.554 67.826C136.855 68.8583 137.817 70.9013 138.876 71.6211C139.465 72.021 140.089 71.4743 140.293 71.3716C141.132 70.9508 142.93 71.2647 143.429 71.6211C144.161 71.94 145.953 73.6628 146.236 74.6647C147.519 79.206 143.467 89.2739 141.937 91.1625C139.405 94.2887 133.355 91.8298 135.572 85.7903Z" fill="#FCFEFF"/>
<path fill-rule="evenodd" clip-rule="evenodd" d="M33.1407 69.2417C38.0226 72.3241 43.0565 74.3374 48.7936 74.8898C53.3192 75.3174 59.4211 74.7294 63.8041 73.304C67.4923 72.1103 72.4811 68.8033 75.8129 66.006C82.2806 60.5896 86.3607 52.1291 88.1424 43.1492C88.3919 41.8842 88.7723 38.7043 88.7545 35.5507C88.7545 31.8803 87.1392 21.8503 82.2449 16.0671C72.1506 4.1391 55.5576 -1.23411 41.6124 3.35695C36.5819 5.01309 31.2258 8.01369 27.1813 11.9335C22.0856 16.9045 18.3262 23.675 16.8295 30.5881C15.2616 37.8932 17.3012 46.6236 20.8468 53.7861C23.6798 59.4876 28.3479 66.195 33.1407 69.2417ZM80.7127 47.7104C77.363 57.7772 68.6326 65.296 57.6572 67.5766C55.9824 67.9152 54.8243 68.0399 52.4724 68.0755C50.8154 68.129 49.1584 68.1112 48.8199 68.0755C41.1406 67.149 35.2966 64.3161 29.9158 58.9353C27.5639 56.5656 26.5662 55.2828 25.1051 52.7527C22.8067 48.7438 21.5773 44.6459 21.2032 39.7105C19.9203 22.802 32.0182 8.70856 49.0515 7.24754C55.7329 6.67739 63.1449 8.72637 68.7751 12.7174C70.8598 14.1963 74.637 17.9379 75.8129 19.684C76.294 20.3788 80.9621 27.2028 81.7817 31.1226C82.8329 36.2183 82.4231 42.5969 80.7127 47.7104Z" fill="#FCFEFF"/>
<path fill-rule="evenodd" clip-rule="evenodd" d="M88.7609 35.5506C88.7609 47.5097 83.1038 60.5842 75.8031 66.168C72.32 68.832 67.7681 72.0577 63.8041 73.304C57.9949 75.1303 48.7936 74.8897 48.7936 74.8897C48.7936 74.8897 58.1809 73.6348 61.6596 72.2349C71.6351 68.2203 77.0806 62.0577 80.4432 56.1447C87.0807 44.473 88.7609 35.2601 88.7609 35.5506Z" fill="#E7EAEE"/>
<path fill-rule="evenodd" clip-rule="evenodd" d="M48.998 65.9371C44.2408 65.3314 39.5192 63.6387 35.7064 61.1265C33.4436 59.6477 30.0227 56.1733 28.3657 53.6967C25.996 50.1333 24.4281 46.3204 23.6619 42.2224C23.1096 39.247 23.1274 34.6679 23.6797 32.0132C24.2499 29.305 24.9804 27.2382 26.281 24.619C27.7955 21.5901 29.3991 19.3629 31.8044 16.9576C35.9023 12.8597 40.6595 10.2583 46.3254 9.01114C48.1606 8.61916 54.8064 8.29845 55.038 8.60134C55.0915 8.69043 55.4478 8.92205 55.822 9.11804C56.1962 9.33185 57.1939 10.0802 58.0135 10.8107C59.2429 11.8797 59.7952 12.5568 60.8643 14.2316C61.5948 15.3719 62.1827 16.4053 62.1827 16.4944C62.1827 16.6904 62.7529 17.0467 63.0736 17.0467C63.519 17.0467 63.8219 15.7104 63.911 13.3585C63.9645 12.0579 64.0714 10.9889 64.1426 10.9889C64.3921 10.9889 67.1359 12.5033 68.4188 13.3585C70.931 15.0334 73.4432 17.3852 75.2962 19.844C76.1336 20.9487 76.2583 21.2338 76.2583 21.9108C76.2583 22.5344 76.4365 23.0155 76.9888 23.9776C78.3786 26.4007 79.4654 29.4475 80.1247 32.8149C80.5523 35.0777 80.5523 39.3539 80.1069 41.7236C78.8953 48.2447 75.2962 54.7301 70.6103 58.8459C66.637 62.3203 62.4144 64.4583 57.4255 65.5095C55.7151 65.8837 50.5837 66.1331 48.998 65.9371ZM36.2587 53.7502C36.4191 53.572 36.526 53.3047 36.4725 53.18C36.4565 53.1426 36.2334 53.0377 35.9068 52.8842C35.1456 52.5263 33.8221 51.9041 33.2486 51.2558C30.968 48.6544 30.1306 46.7124 29.6139 42.7035C29.115 38.8015 29.5341 36.1636 30.4335 31.9241C30.8722 29.8559 32.0383 28.1476 32.7638 27.0848C33.2571 26.3622 33.5466 25.9379 33.2654 25.9019C32.5705 25.795 32.4636 25.8484 31.7331 26.5433C30.1652 28.0399 29.4525 29.2337 28.7042 31.5321C27.5461 35.1312 27.3223 44.8576 29.6139 49.2424C31.9055 53.6272 35.8489 54.2134 36.2587 53.7502ZM61.5948 38.7837C61.2922 41.5515 60.009 45.5542 58.5124 47.3003C57.8175 48.1199 55.2668 49.5275 53.1138 49.2424C51.0341 48.967 49.4078 47.9952 48.018 45.9106C46.8243 44.111 46.2077 41.9267 45.7909 39.1757C45.0711 34.4252 48.214 28.8951 49.5681 27.5232C50.9401 26.1157 51.92 25.6168 53.1672 25.599C54.3788 25.599 55.1627 25.8662 56.3921 26.7393C58.6371 28.3072 62.1827 33.4053 61.5948 38.7837ZM37.5772 24.0489C37.9335 23.6391 37.9869 23.4431 37.88 22.6769C37.8088 21.9642 37.6662 21.6792 37.2921 21.3763C36.6328 20.8418 35.8132 20.8418 35.2075 21.4119C34.7799 21.8217 34.7264 21.9642 34.7799 22.9442C34.8333 23.9954 34.8689 24.0667 35.4569 24.3874C36.2409 24.815 37.007 24.6903 37.5772 24.0489ZM48.6951 13.0556C45.488 15.3541 44.0983 16.2984 42.6551 17.1892C41.5148 17.9019 41.1584 17.9197 41.1584 17.2783C41.1584 16.9398 41.4079 16.5656 42.0493 15.9777L42.9401 15.1581L41.2119 14.9264C39.2698 14.677 37.3812 14.1425 36.9714 13.7327C36.2943 13.0378 36.8823 12.8775 38.8066 13.2338C39.6618 13.3763 41.3188 13.5545 42.4947 13.5902L44.6328 13.6792L46.1829 12.5568C49.586 10.098 53.1138 8.70824 54.8064 9.13585C55.8576 9.38529 55.7329 9.67037 54.5392 9.8129C53.1672 9.97326 52.3298 10.4365 48.6951 13.0556Z" fill="#FCFEFF"/>
<path d="M53.2742 46.8017C53.2742 46.7126 53.3811 46.6235 53.5236 46.6235C53.6661 46.6235 53.8443 46.7126 53.8978 46.8017C53.9512 46.9086 53.8443 46.9799 53.6483 46.9799C53.4345 46.9799 53.2742 46.9086 53.2742 46.8017Z" fill="#FCFEFF"/>
<path d="M54.3432 46.6413C54.3432 46.4453 54.7886 46.2671 55.2875 46.2671C55.6795 46.2849 55.6795 46.2849 55.3409 46.5344C54.949 46.8373 54.3432 46.8907 54.3432 46.6413Z" fill="#FCFEFF"/>
<path d="M51.5815 46.1778C51.5281 46.0352 51.4568 45.7858 51.4033 45.6432C51.3499 45.4651 51.439 45.376 51.6706 45.376C51.8666 45.376 52.0269 45.4829 52.0269 45.6254C52.0269 45.768 52.0804 45.9996 52.1338 46.1599C52.2051 46.3559 52.1517 46.445 51.9557 46.445C51.7953 46.445 51.6171 46.3203 51.5815 46.1778Z" fill="#FCFEFF"/>
<path d="M52.5258 45.7327C52.4367 45.1982 52.6327 45.02 53.2741 45.02C53.4701 45.02 53.6305 45.1982 53.7017 45.5011C53.8443 46.0178 53.6126 46.2672 52.989 46.2672C52.704 46.2672 52.5792 46.1425 52.5258 45.7327Z" fill="#FCFEFF"/>
<path d="M50.7085 45.8215C50.3699 45.5542 50.3699 45.5542 50.7441 45.5542C50.9757 45.5542 51.1361 45.6611 51.1361 45.8215C51.1361 46.1422 51.1361 46.1422 50.7085 45.8215Z" fill="#FCFEFF"/>
<path d="M54.2897 45.804C54.0581 45.5723 54.165 44.8775 54.4501 44.7706C54.9668 44.5746 55.1984 44.6637 55.3053 45.1269C55.3766 45.3942 55.4122 45.6258 55.3766 45.6436C55.234 45.804 54.3966 45.9109 54.2897 45.804Z" fill="#FCFEFF"/>
<path d="M55.8755 45.4297C55.822 45.3762 55.7686 45.1446 55.7686 44.9308C55.7686 44.6279 55.9111 44.5031 56.3387 44.4141C56.7129 44.3428 56.9445 44.3784 57.0514 44.521C57.2296 44.806 57.2296 45.1624 57.0692 45.2515C56.7485 45.4297 56.0002 45.5366 55.8755 45.4297Z" fill="#FCFEFF"/>
<path d="M49.8889 44.8771C49.8889 44.6633 50.0492 44.4851 50.2809 44.4316C50.7441 44.3069 50.7263 44.2891 50.8154 44.7523C50.851 45.0196 50.7619 45.1265 50.3878 45.1621C49.9958 45.2156 49.8889 45.1443 49.8889 44.8771Z" fill="#FCFEFF"/>
<path d="M51.243 44.895C50.9935 44.6278 51.1539 44.1289 51.4924 44.1289C51.7241 44.1289 51.8488 44.2536 51.8488 44.4674C51.8488 44.806 51.439 45.091 51.243 44.895Z" fill="#FCFEFF"/>
<path d="M52.312 44.3604C52.1695 44.0219 52.4724 43.7725 53.0603 43.7725C53.3276 43.7725 53.4523 43.8794 53.4523 44.111C53.4523 44.307 53.2919 44.4852 53.0603 44.5564C52.4724 44.699 52.4367 44.699 52.312 44.3604Z" fill="#FCFEFF"/>
<path d="M57.4612 44.3071C57.5146 44.218 57.6037 44.1289 57.6572 44.1289C57.7106 44.1289 57.6928 44.218 57.6394 44.3071C57.5859 44.414 57.4968 44.4852 57.4434 44.4852C57.3899 44.4852 57.4077 44.414 57.4612 44.3071Z" fill="#FCFEFF"/>
<path d="M53.9156 44.0043C53.773 43.6479 53.9512 43.4698 54.5213 43.3807C54.842 43.345 54.9846 43.4163 55.0202 43.6657C55.1449 44.2537 54.1294 44.5744 53.9156 44.0043Z" fill="#FCFEFF"/>
<path d="M49.6394 43.7015C49.4791 43.1135 49.5147 43.0601 49.9779 43.0601C50.2274 43.0601 50.4234 43.1313 50.4234 43.2204C50.4234 43.3095 50.4768 43.5055 50.5303 43.648C50.5837 43.8262 50.4768 43.9331 50.1739 43.9866C49.8354 44.0578 49.7107 43.9866 49.6394 43.7015Z" fill="#FCFEFF"/>
<path d="M55.5904 43.5052C55.5904 43.1844 55.7151 43.0419 56.0536 42.9528C56.5525 42.8281 56.8376 43.0775 56.8376 43.6477C56.8376 43.8793 56.6951 43.9506 56.214 43.9506C55.6617 43.9506 55.5904 43.8971 55.5904 43.5052Z" fill="#FCFEFF"/>
<path d="M49.1049 43.5056C49.0515 43.363 49.0871 43.2383 49.1762 43.2383C49.2831 43.2383 49.3544 43.363 49.3544 43.5056C49.3544 43.6481 49.3187 43.7728 49.2831 43.7728C49.2475 43.7728 49.1762 43.6481 49.1049 43.5056Z" fill="#FCFEFF"/>
<path d="M50.9044 43.6478C50.655 43.4161 50.7975 42.9173 51.1182 42.8282C51.3142 42.7747 51.5102 42.7925 51.5637 42.846C51.7775 43.042 51.6528 43.5587 51.3855 43.6656C51.047 43.7903 51.047 43.7903 50.9044 43.6478Z" fill="#FCFEFF"/>
<path d="M57.2652 43.523C57.0692 43.0063 57.283 42.6143 57.7819 42.5608C58.1561 42.5074 58.263 42.5786 58.263 42.8637C58.263 43.4517 58.067 43.7724 57.7106 43.7724C57.5147 43.7724 57.3187 43.6655 57.2652 43.523Z" fill="#FCFEFF"/>
<path d="M52.1517 43.2916C51.9378 43.0956 52.0091 42.7392 52.312 42.6323C52.6505 42.5076 53.3632 42.8639 53.1673 43.0599C52.9178 43.2737 52.2764 43.4341 52.1517 43.2916Z" fill="#FCFEFF"/>
<path d="M53.7018 42.846C53.5414 42.5966 54.1116 42.1689 54.5748 42.1689C54.7886 42.1689 54.8777 42.2758 54.842 42.4718C54.7708 42.8282 53.8621 43.1133 53.7018 42.846Z" fill="#FCFEFF"/>
<path d="M48.8198 42.7212C48.8198 42.6321 48.7664 42.4362 48.7129 42.2758C48.6595 42.1154 48.6773 41.9907 48.7842 41.9907C49.0158 41.9907 49.194 42.6678 48.9802 42.8103C48.8911 42.8638 48.8198 42.8281 48.8198 42.7212Z" fill="#FCFEFF"/>
<path d="M49.3009 42.3118C49.194 41.9198 49.4078 41.6348 49.8176 41.6348C50.0492 41.6348 50.2808 42.3296 50.1383 42.5613C49.9423 42.8641 49.39 42.686 49.3009 42.3118Z" fill="#FCFEFF"/>
<path d="M50.5481 42.4007C50.2808 42.1334 50.4412 41.492 50.7976 41.4029C51.0648 41.3316 51.2074 41.4207 51.3499 41.7414C51.4568 41.9731 51.5103 42.2047 51.4746 42.2403C51.2964 42.4007 50.655 42.5254 50.5481 42.4007Z" fill="#FCFEFF"/>
<path d="M55.3588 42.4005C55.1271 42.1689 55.234 42.0264 55.7686 41.8304C56.214 41.6879 56.3387 41.7057 56.4278 41.9195C56.5882 42.3471 55.6973 42.7569 55.3588 42.4005Z" fill="#FCFEFF"/>
<path d="M56.9267 41.9911C56.7485 41.706 56.9979 41.4565 57.4612 41.4565C58.0135 41.4565 58.1739 41.9198 57.675 42.0623C57.1405 42.2049 57.0514 42.1871 56.9267 41.9911Z" fill="#FCFEFF"/>
<path d="M58.4411 41.5631C58.4411 41.2958 58.7618 41.0107 58.9044 41.1533C59.0291 41.278 58.7797 41.8125 58.6015 41.8125C58.5124 41.8125 58.4411 41.7056 58.4411 41.5631Z" fill="#FCFEFF"/>
<path d="M48.5882 41.3317C48.517 41.2782 48.4635 41.0466 48.4813 40.8506C48.4813 40.5121 48.4991 40.5121 48.6595 40.9041C48.8377 41.3317 48.802 41.5455 48.5882 41.3317Z" fill="#FCFEFF"/>
<path d="M48.9268 41.0643C48.7664 40.4407 48.7842 40.3872 49.2475 40.3872C49.7642 40.3872 50.0849 41.0464 49.6929 41.2959C49.2831 41.5453 49.0515 41.474 48.9268 41.0643Z" fill="#FCFEFF"/>
<path d="M55.0559 41.4209C55.0559 41.3674 55.145 41.0823 55.2519 40.7616C55.5013 40.0489 56.0536 40.0133 56.1784 40.7082C56.2318 40.9754 56.2496 41.2071 56.2318 41.2249C56.1427 41.3318 55.0559 41.4921 55.0559 41.4209Z" fill="#FCFEFF"/>
<path d="M50.1918 40.9754C50.1205 40.922 50.067 40.7082 50.067 40.5122C50.067 40.2271 50.1205 40.2093 50.3343 40.3875C50.4768 40.5122 50.6016 40.726 50.6016 40.8507C50.6016 41.118 50.3878 41.1893 50.1918 40.9754Z" fill="#FCFEFF"/>
<path d="M56.606 40.6189C56.4991 40.0665 56.7307 39.8171 57.283 39.8884C57.5503 39.924 57.6394 40.0844 57.6394 40.4763C57.6394 40.9218 57.5681 41.0287 57.1761 41.0643C56.7841 41.1178 56.695 41.0287 56.606 40.6189Z" fill="#FCFEFF"/>
<path d="M58.3521 40.6901C58.1204 39.9774 58.1917 39.7636 58.6728 39.7102C59.1004 39.6567 59.1538 39.7102 59.1538 40.1734C59.1538 40.5654 59.0469 40.7258 58.7797 40.797C58.5837 40.8505 58.3877 40.797 58.3521 40.6901Z" fill="#FCFEFF"/>
<path d="M48.321 39.6745C48.321 39.336 48.3566 39.1934 48.4101 39.3716C48.4457 39.5319 48.4457 39.817 48.4101 39.9952C48.3566 40.1556 48.321 40.013 48.321 39.6745Z" fill="#FCFEFF"/>
<path d="M48.7664 39.9062C48.5348 39.6924 48.6417 38.9975 48.9267 38.8906C49.3365 38.7303 49.5325 38.9263 49.5325 39.5142C49.5325 39.8884 49.4434 40.0309 49.2118 40.0309C49.0336 40.0309 48.8198 39.9775 48.7664 39.9062Z" fill="#FCFEFF"/>
<path d="M49.8354 39.4251C49.7641 39.1578 49.7285 38.8727 49.7998 38.8193C49.9779 38.6411 50.0848 38.9262 50.0314 39.4429L49.9779 39.9418L49.8354 39.4251Z" fill="#FCFEFF"/>
<path d="M55.5904 39.3003C55.5904 39.1043 55.6795 38.9974 55.7686 39.0508C55.8755 39.1043 55.9467 39.2824 55.9467 39.425C55.9467 39.5675 55.8755 39.6744 55.7686 39.6744C55.6795 39.6744 55.5904 39.5141 55.5904 39.3003Z" fill="#FCFEFF"/>
<path d="M56.3922 39.5323C56.1427 39.265 56.3387 38.7839 56.7485 38.677C57.2652 38.5523 57.283 38.5523 57.4434 39.069C57.5503 39.3897 57.479 39.461 57.0158 39.5323C56.7307 39.5857 56.4456 39.5679 56.3922 39.5323Z" fill="#FCFEFF"/>
<path d="M58.0313 39.1934C57.8353 39.0153 57.8888 38.4273 58.0848 38.4273C58.1917 38.4273 58.2629 38.356 58.2629 38.2491C58.2629 38.16 58.156 38.071 58.0135 38.071C57.7106 38.071 57.4612 37.1979 57.7106 36.9485C58.0313 36.6278 58.3877 36.9663 58.6015 37.8393C58.7262 38.3026 58.8509 38.8371 58.9044 39.0153C58.9756 39.2469 58.9044 39.3182 58.5658 39.3182C58.3342 39.3182 58.0848 39.2647 58.0313 39.1934Z" fill="#FCFEFF"/>
<path d="M58.9935 38.2493C58.8688 37.7148 58.5481 36.6458 58.3164 35.8618C57.9601 34.7215 57.9245 34.4364 58.1204 34.3117C58.2452 34.2226 58.4055 34.1514 58.459 34.1514C58.655 34.1514 59.3676 37.8039 59.2964 38.5166L59.2429 39.2293L58.9935 38.2493Z" fill="#FCFEFF"/>
<path d="M48.1428 38.1603C48.1428 37.8752 48.1784 37.7683 48.2319 37.9465C48.2675 38.1068 48.2675 38.3563 48.2319 38.481C48.1784 38.5879 48.1428 38.4632 48.1428 38.1603Z" fill="#FCFEFF"/>
<path d="M48.4991 38.1244C48.5704 37.5008 49.0871 37.3583 49.2296 37.9284C49.3543 38.3917 49.39 38.3382 48.8555 38.5164C48.4813 38.6233 48.4457 38.5876 48.4991 38.1244Z" fill="#FCFEFF"/>
<path d="M56.018 37.9642C55.8755 37.4475 56.1784 37.1446 56.7485 37.2159C57.1761 37.2693 57.3365 38.0355 56.9802 38.2671C56.5347 38.5522 56.1249 38.4275 56.018 37.9642Z" fill="#FCFEFF"/>
<path d="M49.5325 37.8216C49.5325 37.5188 49.6216 37.3584 49.8176 37.3584C49.9958 37.3584 50.067 37.4831 50.0314 37.7504C49.9423 38.3205 49.5325 38.374 49.5325 37.8216Z" fill="#FCFEFF"/>
<path d="M47.9468 37.0732C47.9468 36.8772 48.0002 36.8237 48.0537 36.9663C48.1071 37.091 48.0893 37.2513 48.0359 37.3048C47.9824 37.3761 47.929 37.2692 47.9468 37.0732Z" fill="#FCFEFF"/>
<path d="M48.2853 37.0197C48.2853 36.7524 48.3922 36.6455 48.6595 36.6455C48.9089 36.6455 48.998 36.7346 48.9624 36.9484C48.8733 37.4116 48.2853 37.4651 48.2853 37.0197Z" fill="#FCFEFF"/>
<path d="M49.2653 36.8596C49.1406 36.5389 49.1406 36.5389 49.6751 36.3963C49.9958 36.2894 50.067 36.3429 50.067 36.6102C50.067 37.0378 49.4256 37.2516 49.2653 36.8596Z" fill="#FCFEFF"/>
<path d="M55.7151 36.6102C55.5904 36.1647 55.822 35.9331 56.4456 35.9331C56.7485 35.9331 56.8376 36.04 56.8376 36.3785C56.8376 36.6458 56.7307 36.824 56.5882 36.824C56.4456 36.824 56.214 36.8774 56.0715 36.9309C55.9111 36.9843 55.7864 36.8774 55.7151 36.6102Z" fill="#FCFEFF"/>
<path d="M57.2652 36.2003C57.1227 35.8439 57.3365 35.5767 57.7463 35.5767C57.9957 35.5767 58.0848 35.7014 58.0848 36.0221C58.0848 36.3428 57.9957 36.4675 57.7285 36.4675C57.5325 36.4675 57.3187 36.3428 57.2652 36.2003Z" fill="#FCFEFF"/>
<path d="M48.1072 35.9509C48.1072 35.5768 48.517 35.1491 48.6951 35.3451C48.7664 35.3986 48.8199 35.648 48.8199 35.8796C48.8199 36.1647 48.713 36.2894 48.4635 36.2894C48.2319 36.2894 48.1072 36.1647 48.1072 35.9509Z" fill="#FCFEFF"/>
<path d="M49.0871 35.7369C48.9446 35.2915 49.1049 35.0955 49.7107 35.0064C50.263 34.9351 50.4412 35.5231 49.9601 35.8795C49.4969 36.218 49.2118 36.1645 49.0871 35.7369Z" fill="#FCFEFF"/>
<path d="M55.5369 35.63C55.4122 35.5231 55.3588 34.8638 55.4657 34.8638C55.4835 34.8638 55.7508 34.7926 56.0715 34.7035C56.606 34.5431 56.6416 34.5609 56.6238 35.042C56.606 35.3983 56.4991 35.5765 56.2318 35.6478C55.7508 35.7725 55.6795 35.7725 55.5369 35.63Z" fill="#FCFEFF"/>
<path d="M54.8777 35.2206C54.8777 35.0958 54.9311 35.0424 55.0024 35.0958C55.0559 35.1671 55.0559 35.274 55.0024 35.3453C54.9311 35.3987 54.8777 35.3453 54.8777 35.2206Z" fill="#FCFEFF"/>
<path d="M56.8732 34.9354C56.9267 34.6325 57.479 34.1871 57.6037 34.3296C57.6572 34.3831 57.7463 34.5969 57.7997 34.8285C57.9244 35.1849 57.871 35.2205 57.3721 35.2205C56.9445 35.2205 56.8198 35.1492 56.8732 34.9354Z" fill="#FCFEFF"/>
<path d="M48.2853 34.9172C48.2853 34.8282 48.3744 34.65 48.4635 34.5074C48.606 34.2936 48.6417 34.3115 48.6417 34.65C48.6417 34.8638 48.5704 35.042 48.4635 35.042C48.3744 35.042 48.2853 34.9885 48.2853 34.9172Z" fill="#FCFEFF"/>
<path d="M48.8198 34.5255C48.8198 34.0266 49.194 33.8663 49.4791 34.2404C49.6572 34.5077 49.6572 34.5968 49.4791 34.7215C49.1049 34.9531 48.8198 34.8818 48.8198 34.5255Z" fill="#FCFEFF"/>
<path d="M54.2363 34.2939C53.9156 33.9376 53.9156 33.9197 54.2185 34.0266C54.3966 34.0979 54.6282 34.1514 54.7173 34.1514C54.8064 34.1514 54.8777 34.2761 54.8777 34.4186C54.8777 34.7928 54.6282 34.7572 54.2363 34.2939Z" fill="#FCFEFF"/>
<path d="M50.4056 34.2761C49.6394 33.6881 49.5325 32.3696 50.2452 32.3696C50.7263 32.3696 51.1717 33.1179 51.1004 33.8128C51.047 34.4542 50.8332 34.5968 50.4056 34.2761Z" fill="#FCFEFF"/>
<path d="M55.2875 34.3829C55.3587 34.3294 55.4656 34.3294 55.5369 34.3829C55.5904 34.4541 55.5369 34.5076 55.4122 34.5076C55.2875 34.5076 55.234 34.4541 55.2875 34.3829Z" fill="#FCFEFF"/>
<path d="M57.9779 33.6879C58.0313 33.5275 58.0848 33.3672 58.0848 33.3315C58.0848 33.2959 58.1739 33.2603 58.263 33.2603C58.3699 33.2603 58.4411 33.4206 58.4411 33.6166C58.4411 33.8304 58.3164 33.9729 58.1561 33.9729C57.9601 33.9729 57.9066 33.8839 57.9779 33.6879Z" fill="#FCFEFF"/>
<path d="M48.6417 33.6347C48.6417 33.2249 49.0158 32.5479 49.2296 32.5479C49.6038 32.5479 49.3365 33.6882 48.9446 33.7594C48.7842 33.7951 48.6417 33.7416 48.6417 33.6347Z" fill="#FCFEFF"/>
<path d="M52.6505 33.4388L52.116 33.3141L52.5971 33.1893C53.096 33.0468 53.4523 33.1537 53.4523 33.4566C53.4523 33.6348 53.4345 33.6348 52.6505 33.4388Z" fill="#FCFEFF"/>
<path d="M52.0269 32.5836C52.0269 31.8531 52.4367 31.7462 52.8109 32.3876C53.0603 32.8152 53.0781 32.9043 52.8465 32.9043C52.704 32.9043 52.4724 32.9577 52.312 33.0112C52.0982 33.1003 52.0269 32.9934 52.0269 32.5836Z" fill="#FCFEFF"/>
<path d="M55.1271 32.8327C54.3254 32.4764 53.8087 31.5321 53.8087 30.4096C53.8087 29.6078 53.8799 29.4118 54.361 28.9664C54.6639 28.6813 54.9668 28.4497 55.0559 28.4497C55.4478 28.4497 56.891 29.8216 57.3721 30.6769L57.9244 31.6568L57.3365 32.2804C56.6594 32.9931 55.9111 33.1891 55.1271 32.8327Z" fill="#FCFEFF"/>
<path d="M51.4033 32.3696C51.3499 32.2805 51.3855 32.1914 51.4746 32.1914C51.5815 32.1914 51.6706 32.2805 51.6706 32.3696C51.6706 32.4765 51.6349 32.5478 51.5993 32.5478C51.5459 32.5478 51.4568 32.4765 51.4033 32.3696Z" fill="#FCFEFF"/>
<path d="M49.0693 32.0843C49.1227 31.924 49.1762 31.7636 49.1762 31.728C49.1762 31.6924 49.3365 31.6567 49.5325 31.6567C49.9779 31.6567 49.9958 31.9418 49.5503 32.1913C49.0693 32.4407 48.9445 32.4229 49.0693 32.0843Z" fill="#FCFEFF"/>
<path d="M50.4768 31.8708C50.067 31.8173 49.9423 31.5857 50.2096 31.4253C50.2809 31.3719 50.6016 31.2828 50.9223 31.2115C51.4033 31.1046 51.4924 31.1403 51.4924 31.4431C51.4924 31.8173 51.1183 31.9777 50.4768 31.8708Z" fill="#FCFEFF"/>
<path d="M51.8488 31.265C51.8488 31.0512 51.8666 30.9265 51.9022 30.9621C51.92 30.9977 52.0626 31.1759 52.1873 31.3541C52.4011 31.6035 52.3833 31.657 52.1338 31.657C51.9557 31.657 51.8488 31.5144 51.8488 31.265Z" fill="#FCFEFF"/>
<path d="M49.3544 31.1402C49.3544 31.0333 49.4435 30.9086 49.5325 30.8551C49.6394 30.8017 49.7107 30.873 49.7107 31.0155C49.7107 31.1759 49.6394 31.3006 49.5325 31.3006C49.4435 31.3006 49.3544 31.2293 49.3544 31.1402Z" fill="#FCFEFF"/>
<path d="M50.0136 30.8728C49.8711 30.5165 51.1361 30.1245 51.3499 30.463C51.5103 30.7481 51.3499 30.8728 50.6728 31.0154C50.2631 31.1044 50.0849 31.0688 50.0136 30.8728Z" fill="#FCFEFF"/>
<path d="M51.6884 30.3027C51.6884 30.1067 51.7418 30.0532 51.7953 30.1958C51.8487 30.3205 51.8309 30.4808 51.7775 30.5343C51.724 30.6056 51.6706 30.4987 51.6884 30.3027Z" fill="#FCFEFF"/>
<path d="M50.1739 30.0178C50.3878 29.6258 51.0114 28.9844 51.1717 28.9844C51.3499 28.9844 51.3677 29.8218 51.1895 29.9287C51.1004 29.9643 50.8154 30.0534 50.5481 30.1247C50.1561 30.2138 50.067 30.196 50.1739 30.0178Z" fill="#FCFEFF"/>
<path d="M51.5994 29.6077C51.4034 29.0732 51.4924 28.8416 51.9201 28.7703C52.3655 28.6812 52.3655 28.6812 52.0804 29.2336C51.7241 29.9462 51.7419 29.9462 51.5994 29.6077Z" fill="#FCFEFF"/>
<path d="M51.4924 28.5389C51.4924 28.5033 51.8488 28.2538 52.2942 28.0044C52.8287 27.6837 53.2029 27.5768 53.4701 27.6481C53.7908 27.755 53.7018 27.8262 52.9178 28.2004C52.0448 28.5924 51.4924 28.7349 51.4924 28.5389Z" fill="#FCFEFF"/>
<path d="M61.381 12.7526C60.8999 12.0577 59.8843 10.9353 59.1538 10.2582C58.4233 9.58114 57.9422 9.02881 58.0848 9.02881C58.4768 9.02881 61.47 9.8484 62.2184 10.1691C62.842 10.4364 62.8598 10.472 62.6994 11.0243C62.6103 11.345 62.5391 12.1468 62.5391 12.8061C62.5391 13.4831 62.4856 14.0176 62.4144 14.0176C62.3253 14.0176 61.8798 13.4475 61.381 12.7526Z" fill="#FCFEFF"/>
<path d="M25.1229 66.7211C24.3924 66.3469 24.2321 66.1331 23.3056 64.2979C21.9693 61.6966 21.9337 61.0908 23.1987 62.5696C23.6976 63.1576 24.8557 64.3692 25.7644 65.2601C27.3144 66.7567 27.3857 66.8636 26.869 66.7923C26.4949 66.7389 26.3523 66.7745 26.4414 66.9171C26.6552 67.2378 25.9782 67.1487 25.1229 66.7211Z" fill="#FCFEFF"/>
<path fill-rule="evenodd" clip-rule="evenodd" d="M54.9825 99.1828C54.8347 98.8316 54.9995 98.427 55.3507 98.2791L55.7346 98.1162C59.4668 96.5193 61.609 95.5601 63.0646 94.0369C64.5201 92.5137 64.6943 90.2763 64.9678 88.9149C65.0428 88.5413 65.8888 89.1975 66.2624 89.2725C66.636 89.3476 66.8781 89.7113 66.803 90.0849C66.4743 91.7217 65.5888 93.2822 64.1634 94.7635C62.7427 96.2399 59.9923 97.8223 55.8862 99.551C55.535 99.6989 55.1304 99.534 54.9825 99.1828Z" fill="#00160A"/>
<path fill-rule="evenodd" clip-rule="evenodd" d="M71.86 28.0918C72.1875 27.8969 72.611 28.0043 72.8059 28.3318C74.7576 31.6105 75.8031 35.3584 75.8031 39.2577C75.8031 51.0711 66.2265 60.6477 54.4131 60.6477C51.2741 60.6477 48.2294 59.9707 45.4414 58.6807C45.0955 58.5207 43.7891 57.2466 45.1049 57.7648C46.4207 58.283 51.5119 59.4461 54.4498 59.4461C65.501 59.4461 73.3191 50.309 73.3191 39.2577C73.3191 35.6086 71.86 32.3695 71.6201 29.0377C71.5923 28.6515 71.5326 28.2868 71.86 28.0918Z" fill="#00160A"/>
<path fill-rule="evenodd" clip-rule="evenodd" d="M3.52395 80.3144C3.76784 80.0216 4.20292 79.4299 4.49573 79.6738C5.69693 80.6743 6.97875 81.8335 8.3499 82.0573C9.77671 82.2901 11.4694 82.2901 13.4258 82.0533C13.8041 82.0075 14.1479 82.277 14.1937 82.6553C14.2395 83.0336 13.9699 83.3775 13.5916 83.4233C11.5141 83.6748 9.69348 83.6748 8.12765 83.4193C6.50615 83.1547 4.99821 82.4403 3.61252 81.2861C3.31971 81.0423 3.28006 80.6072 3.52395 80.3144Z" fill="#00160A"/>
<path d="M18.1742 56.1735C17.2834 55.4608 15.3769 53.3583 13.9337 51.5054C13.1854 50.5254 12.348 48.5299 11.8491 46.5165C11.6175 45.6079 11.3859 44.7883 11.3324 44.6814C11.2611 44.5923 10.9761 43.3272 10.691 41.8662C10.2634 39.7994 10.3538 39.1336 9.97831 36.6614C9.81931 35.6147 9.67542 34.7818 9.67542 34.7818L10.1387 34.187C10.4059 33.8307 10.744 33.241 10.8692 32.9042C11.4393 31.3701 15.6264 26.5613 15.7511 26.686C15.7867 26.7216 15.6442 27.559 15.3947 28.539C15.1631 29.5189 14.878 30.9977 14.7533 31.8351C14.5751 33.2249 14.5039 33.3852 13.9515 33.8485C13.2567 34.4365 11.9382 36.3251 11.9382 36.7171C11.9382 37.2516 12.74 36.8952 13.5774 36.0222L14.4326 35.1313V36.1113C14.4326 36.7527 14.3079 37.3407 14.0763 37.8039C13.6308 38.677 13.6308 39.6035 14.0584 40.3161C14.2723 40.6725 14.4682 41.5277 14.593 42.5433C15.1453 47.1401 16.3212 51.1312 18.3346 55.1401C18.8335 56.1378 19.2254 56.9574 19.2076 56.9574C19.172 56.9574 18.7087 56.6011 18.1742 56.1735Z" fill="#FCFEFF"/>
<path fill-rule="evenodd" clip-rule="evenodd" d="M92.3117 67.1668L93.5945 67.7369C93.8605 67.8597 96.7949 69.2697 100.32 70.9634C106.003 73.6941 113.221 77.1622 113.265 77.1622C113.336 77.1622 113.67 76.3891 113.746 75.4874C113.924 73.5453 114.583 70.9084 115.349 69.0732C115.706 68.2536 115.991 67.2293 115.991 67.1402C115.991 67.0995 115.701 66.9827 115.227 66.7914C114.662 66.5638 113.836 66.2306 112.926 65.7949C108.436 63.639 99.6524 59.2381 98.5655 58.5789C97.4965 57.9553 97.2827 57.9018 97.2827 58.3116C97.2827 58.8461 96.1958 61.3227 95.3584 62.659C94.913 63.3895 94.0399 64.708 93.4163 65.581L92.3117 67.1668ZM112.962 73.9551C113.473 74.2513 112.588 74.6856 112.374 74.7569C111.115 74.8638 109.633 74.6271 108.418 73.9195C107.783 73.4692 102.784 70.6917 99.4674 68.8492C97.9513 68.0069 96.7869 67.36 96.5522 67.2202C95.8038 66.7748 95.0912 66.2937 94.9664 66.1512C94.5923 65.6701 94.9486 65.4563 95.9998 65.5454C96.6318 65.599 111.858 73.3155 112.962 73.9551Z" fill="#FCFEFF"/>
<path d="M79.5189 68.7703C79.0557 68.61 78.5568 68.2536 78.2361 67.8438L77.7016 67.1846L79.5902 65.3138C82.4944 62.463 84.6325 59.3475 86.5567 55.8732C87.1981 54.715 89.1046 50.0445 89.3362 49.5278C89.6925 48.7794 89.9598 48.4944 90.7259 48.0667C91.6346 47.5322 92.668 47.3541 93.1134 47.6569C93.9687 48.2271 93.9687 50.0266 93.1134 53.1268C92.1691 56.5299 90.9041 58.9709 88.285 62.4809C87.8752 63.0154 87.109 64.0666 86.5567 64.7971C85.0779 66.757 84.1158 67.7013 82.8151 68.4318C81.5323 69.1445 80.7839 69.2336 79.5189 68.7703Z" fill="#FCFEFF"/>
<path d="M86.236 68.3604L85.8618 67.9863C85.8618 67.9863 92.0719 60.0963 93.1847 57.189C94.0339 54.9704 94.5336 54.3413 95.208 54.3413C95.585 54.3413 95.8929 54.4274 96.0354 54.6412C96.2849 55.0154 96.5252 55.4786 96.2045 57.0643C95.67 59.63 94.8504 61.3226 92.3917 64.9752C91.8215 65.8126 91.091 66.7391 90.7703 67.0598C90.022 67.7547 88.3384 68.4673 87.3585 68.6277C86.7349 68.7168 86.5567 68.6812 86.236 68.3604Z" fill="#FCFEFF"/>
<path fill-rule="evenodd" clip-rule="evenodd" d="M96.6673 60.1102C97.0266 59.2881 97.2827 58.5711 97.2827 58.3116C97.2827 57.9018 97.4965 57.9553 98.5655 58.5789C99.6524 59.2381 108.436 63.639 112.926 65.7949C114.601 66.5966 115.991 67.0511 115.991 67.1402C115.991 67.2293 96.2863 60.9817 96.6673 60.1102Z" fill="#E7EAEE"/>
<path fill-rule="evenodd" clip-rule="evenodd" d="M35.7064 61.1264C33.4436 59.6476 30.0227 56.1733 28.3657 53.6967C25.996 50.1332 24.4281 46.3203 23.6619 42.2224C23.1096 39.2469 23.1274 34.6679 23.6797 32.0131C24.2499 29.3049 24.9804 27.2381 26.2811 24.619C27.7955 21.59 29.3991 19.3629 31.8044 16.9576C34.1631 14.5988 23.6797 24.3532 26.2811 41.8059C28.3657 56.4312 37.3246 62.1927 35.7064 61.1264Z" fill="#E7EAEE"/>
</svg>
