<svg width="228" height="237" viewBox="0 0 228 237" fill="none" xmlns="http://www.w3.org/2000/svg">
<path d="M123.732 188.631C123.413 190.368 123.286 192.097 122.728 193.658C122.004 195.685 120.327 196.909 118.391 197.532C116.264 198.216 114.073 198.696 111.896 199.199C111.173 199.366 110.406 199.334 109.659 199.38C106.967 199.549 104.275 199.706 101.584 199.881C100.116 199.976 98.6505 200.118 97.1817 200.203C95.7734 200.284 94.3616 200.378 92.9529 200.355C92.6402 200.35 90.6862 200.644 87.9522 200.844C87.4212 200.883 88.2476 203.864 87.2929 204.177C85.1661 204.873 79.9569 204.678 79.0481 203.199C78.1392 201.721 78.4615 201.098 77.4539 200.671C72.5266 198.58 67.4512 198.092 65.9639 193.658C64.974 190.707 66.8582 183.716 66.3103 178.348C64.9053 164.585 62.111 149.228 62.0198 149.15C62.0291 149.139 59.0442 149.404 58.8219 148.267C56.0639 134.156 54.8062 115.559 62.0198 110.87C66.3635 108.046 74.6377 105.146 83.8108 102.777C85.144 102.433 85.9311 100.397 87.2929 100.077C87.5976 100.005 88.5296 98.1653 89.329 96.3172C90.1339 94.4563 90.8109 92.5867 92.4634 92.505C95.8603 92.3369 101.72 87.8143 105.695 89.2256C109.336 90.5179 111.181 97.7923 112.587 96.9114C114.004 96.0235 115.258 97.565 117.198 97.565C131.089 97.565 141.55 124.994 143.005 131.743C140.574 135.39 133.374 135.39 126.57 137.551C125.444 136.107 123.182 131.779 122.451 129.343C121.699 126.837 121.44 132.52 121.387 134.534C121.319 137.139 121.544 139.753 121.668 142.361C121.749 144.081 121.885 145.798 121.979 147.516C122.146 150.534 122.321 153.552 122.451 156.572C122.543 158.697 122.503 160.829 122.635 162.951C122.77 165.125 123.049 167.289 123.252 169.458C123.371 170.734 123.481 172.011 123.568 173.29C123.642 174.368 123.746 175.451 123.717 176.528C123.661 178.616 123.451 180.7 123.442 182.787C123.437 183.876 123.788 184.963 123.861 186.059C123.915 186.882 123.782 187.718 123.732 188.631Z" fill="white"/>
<path d="M145.943 58.4799C145.047 57.5981 144.499 56.4963 143.795 55.5157C143.774 55.4868 143.754 55.4565 143.74 55.4242C143.188 54.1812 142.65 52.9385 142.388 51.5798C142.235 50.7865 142.242 50.0132 142.358 49.2263C142.415 48.8348 142.44 48.4373 142.514 48.05C142.744 46.8611 143.302 45.8257 143.956 44.8411C144.153 44.545 144.379 44.2693 144.571 43.9694C145.289 42.8466 146.302 42.1237 147.481 41.6199C148.249 41.2922 149.037 41.0158 149.788 40.6451C149.88 40.5995 149.982 40.5587 150.083 40.5488C151.325 40.4266 152.568 40.2997 153.812 40.1965C155.025 40.0958 156.241 40.1237 157.455 40.205C158.112 40.249 158.773 40.268 159.428 40.3371C160.85 40.4872 162.224 40.8208 163.544 41.4205C164.465 41.8395 165.395 42.2312 166.278 42.738C167.294 43.3204 168.155 44.0936 168.971 44.9337C169.344 45.3183 169.63 45.7689 169.885 46.2427C170.038 46.5255 170.173 46.8216 170.351 47.0857C171.389 48.6218 171.613 50.3321 171.361 52.1404C171.302 52.5669 171.17 52.9828 171.205 53.4219C171 54.2979 170.801 55.1774 170.299 55.9361C169.904 56.531 169.477 57.0981 168.946 57.5722C168.762 57.7366 168.576 57.902 168.41 58.0851C168.049 58.4823 167.609 58.7669 167.192 59.0892C166.293 59.7835 165.293 60.2736 164.302 60.7893C164.18 60.8533 164.049 60.9043 163.917 60.9458C163.387 61.1136 162.855 61.2756 162.323 61.4387C161.725 61.6221 161.129 61.8168 160.525 61.9836C159.581 62.245 158.602 62.2487 157.64 62.3815C157.504 62.4002 157.36 62.39 157.225 62.3658C156.198 62.1847 155.158 62.1296 154.126 61.9958C153.955 61.9737 153.786 61.9274 153.617 61.8907C152.462 61.6408 151.3 61.4189 150.179 61.0217C149.899 60.9223 149.645 60.9448 149.384 61.1044C149.085 61.2865 148.768 61.4356 148.456 61.5932C147.796 61.9261 147.222 62.3944 146.628 62.8311C146.459 62.955 146.282 63.0676 146.103 63.1738C145.964 63.2558 145.726 63.1326 145.69 62.9614C145.645 62.7514 145.6 62.5435 145.66 62.3226C145.994 61.0908 145.982 59.8308 145.943 58.4799Z" fill="white"/>
<path fill-rule="evenodd" clip-rule="evenodd" d="M87.7445 99.0525C87.7445 99.0525 89.2566 96.9004 89.7786 95.7787C90.3006 94.657 90.7915 92.5049 90.7915 92.5049C90.7915 92.5049 101.581 108.385 99.8741 108.592C96.4613 109.005 87.7445 99.0525 87.7445 99.0525Z" fill="#E7EAEE"/>
<path d="M134.273 149.887C132.565 147.064 128.935 140.483 127.263 137.704C127.225 137.639 135.008 130.199 141.937 132.083C142.625 132.27 143.948 135.057 144.597 135.39C145.804 136.009 145.589 132.985 147.899 128.725C151.538 122.017 158.241 112 160.872 106.02C161.941 103.589 161.185 101.695 161.073 101.164C160.655 99.2008 159.675 97.5993 158.26 96.2541C157.342 95.3816 157.306 93.4344 158.351 92.8979C159.122 92.5018 159.992 92.3763 160.872 92.8333C161.877 93.3551 162.877 93.8487 163.568 94.8213C163.662 94.9527 163.826 95.0299 163.957 95.1322C164.02 94.9664 164.09 94.803 164.145 94.6346C164.702 92.9451 165.215 91.238 165.825 89.5696C166.365 88.0952 166.962 86.6375 167.641 85.228C167.864 84.7634 168.428 84.1651 168.824 84.1745C169.408 84.1884 169.788 84.843 169.876 85.5293C169.922 85.8932 169.972 86.2572 170.038 86.6177C170.067 86.776 170.14 86.9255 170.194 87.0791C170.299 86.9475 170.397 86.8082 170.512 86.686C170.859 86.3173 171.166 85.8822 171.573 85.6083C172.132 85.2318 172.769 85.6502 172.724 86.3734C172.661 87.3724 172.586 88.388 172.355 89.3544C171.938 91.0921 171.398 92.7979 170.916 94.519C170.888 94.6215 170.915 94.741 170.917 94.8526C171.025 94.7921 171.187 94.7602 171.234 94.6666C171.537 94.0548 171.862 93.4475 172.091 92.8049C172.463 91.7663 173.025 90.8768 173.839 90.1744C174.028 90.011 174.335 89.995 174.588 89.9111C174.661 90.1553 174.843 90.4302 174.789 90.6386C174.398 92.1463 174.059 93.6816 173.514 95.131C172.141 98.7826 170.674 102.396 169.232 106.02C168.398 108.114 167.43 110.158 166.723 112.296C166.001 114.476 165.581 116.761 164.927 118.968C164.232 121.307 163.432 123.613 162.652 125.924C161.465 129.436 160.397 133.002 159.009 136.427C157.925 139.104 156.513 141.651 155.093 144.162C154.029 146.043 152.81 147.852 151.486 149.545C150.708 150.539 149.603 151.264 148.617 152.074C147.04 153.371 145.248 154.199 143.287 154.666C141.03 155.204 139.026 154.785 137.342 153.073C136.322 152.036 135.322 150.978 134.273 149.887Z" fill="white"/>
<path fill-rule="evenodd" clip-rule="evenodd" d="M81.1718 80.2813C80.9543 80.7384 80.9684 81.1385 81.2518 81.5267C81.3788 81.7007 81.5162 81.8666 81.6535 82.0324C81.8009 82.2106 81.9484 82.3887 82.083 82.5767C82.2863 82.8609 82.4964 83.1413 82.7065 83.4219C83.2581 84.1584 83.8102 84.8957 84.2432 85.7014C84.8551 86.84 85.5637 87.6796 86.8496 87.9207C87.3716 88.0187 87.5686 88.4522 87.6311 89.0231C87.7181 89.8176 87.8604 90.623 88.1142 91.3743C88.2958 91.912 88.7759 92.2683 89.3875 92.1995C89.6742 92.1673 89.9598 92.1169 90.2452 92.0666C90.6844 91.9892 91.1231 91.9119 91.5638 91.9009C91.9862 91.8904 92.5341 92.0051 92.8181 92.2882C93.5768 93.0448 94.2755 93.8675 94.9733 94.6893L94.9734 94.6894C95.1176 94.8592 95.2618 95.029 95.4065 95.1982C95.46 95.2607 95.5124 95.3237 95.5645 95.3863C96.0742 95.9984 96.5479 96.5672 97.5607 96.2019C98.7632 95.7683 100.028 95.574 101.332 95.6623C102.529 95.7432 102.996 95.3219 103.364 94.1041C103.402 93.9792 103.434 93.8515 103.466 93.724C103.528 93.4776 103.589 93.2315 103.693 93.0057C103.732 92.9201 103.771 92.8333 103.809 92.7461L103.81 92.7461C104.022 92.2692 104.24 91.7817 104.568 91.4071C105.16 90.7303 105.929 90.8343 106.716 91.1246C107.602 91.4513 108.062 91.2509 108.444 90.4133C108.606 90.0589 108.66 90.0634 108.956 90.2903C109.195 90.4738 109.572 90.5586 109.878 90.5351C110.633 90.4771 111.389 90.3672 112.13 90.2027C112.397 90.1433 112.751 89.9233 112.843 89.6842C112.955 89.3923 113.067 89.1005 113.179 88.8086L113.18 88.8073C113.815 87.159 114.451 85.5083 114.96 83.8172C115.787 81.0667 116.403 78.2506 116.402 75.3452C116.401 73.3991 116.346 71.4528 116.291 69.5067L116.291 69.5063C116.277 69.013 116.263 68.5197 116.25 68.0264C116.244 67.7922 116.238 67.5578 116.233 67.3234C116.209 66.2559 116.184 65.1871 116.081 64.1274C115.895 62.2152 115.655 60.3085 115.416 58.4021C115.375 58.0816 115.335 57.7612 115.295 57.4407C115.178 56.5018 115.041 55.5655 114.905 54.6292L114.904 54.6284C114.859 54.3187 114.814 54.0089 114.77 53.699L114.673 53.0284L114.673 53.0275C114.46 51.5387 114.246 50.0499 114.021 48.563C114.012 48.5049 114.004 48.4448 113.996 48.3838L113.996 48.3838C113.954 48.0744 113.91 47.7428 113.742 47.5336C113.592 47.3468 113.442 47.1593 113.293 46.9718L113.293 46.9717C112.334 45.7716 111.373 44.5681 110.304 43.4821C109.465 42.6302 108.454 41.946 107.461 41.2741L107.332 41.1867C104.619 39.3493 101.58 38.5222 98.386 38.3039C97.5107 38.2441 96.6311 38.2579 95.7511 38.2717C95.2243 38.28 94.6973 38.2882 94.1712 38.2807C93.6909 38.2738 93.4308 38.4328 93.1191 38.8684C92.7055 39.4463 92.0874 39.9113 91.4771 40.2829C89.9531 41.2112 88.6119 42.3014 87.5818 43.8341C86.2288 45.8473 84.9891 47.9186 84.1789 50.2279C83.554 52.0089 83.1216 53.8382 82.9725 55.7542C82.9244 56.3728 82.8044 56.9833 82.6844 57.5941C82.4522 58.776 82.2196 59.9593 82.5066 61.2055C82.6302 61.7425 82.7022 62.2933 82.7741 62.8437C82.8584 63.4889 82.9426 64.1336 83.1099 64.7549L83.2025 65.0976C83.7364 67.071 84.2604 69.0075 84.1561 71.1311C84.0441 73.4138 83.2649 75.4081 82.3623 77.5689C82.2469 77.834 82.1334 78.1001 82.0198 78.3662C81.7456 79.0089 81.4714 79.6516 81.1718 80.2813ZM116.886 65.313V65.313C116.882 65.3507 116.879 65.3878 116.894 65.4136C116.94 65.4937 116.995 65.568 117.051 65.6423C117.073 65.6716 117.095 65.7009 117.116 65.7306C117.14 65.7086 117.165 65.6876 117.189 65.6666L117.189 65.6665C117.243 65.6211 117.296 65.5756 117.339 65.5213C117.461 65.3671 117.584 65.2136 117.707 65.0601C118.058 64.6232 118.408 64.1864 118.737 63.7325C119.462 62.7315 120.171 61.7174 120.866 60.6932C121.275 60.0893 120.868 59.839 120.382 59.8032C119.371 59.7287 118.515 60.1729 117.646 60.692C117.026 61.0629 116.568 61.3736 116.731 62.3526L116.755 62.7916C116.8 63.6115 116.845 64.4313 116.889 65.2512C116.89 65.2708 116.888 65.292 116.886 65.313ZM82.2628 65.7158C82.2409 65.7529 82.219 65.79 82.2031 65.8259C81.7707 65.6116 81.3697 65.3557 80.9727 65.1023C80.6252 64.8805 80.2808 64.6606 79.921 64.4724C79.1079 64.047 78.8218 63.2742 78.5614 62.5063C78.2618 61.6225 78.9287 60.7783 79.8328 60.7847C79.8731 60.785 79.9135 60.7851 79.9539 60.7853C80.2762 60.7864 80.6034 60.7876 80.9134 60.8583C81.5222 60.997 81.5826 61.4875 81.6408 61.9601C81.6588 62.1067 81.6767 62.2517 81.7107 62.3838C81.9281 63.2296 82.0869 64.092 82.2456 64.9536C82.2784 65.1319 82.3112 65.3101 82.3445 65.4881C82.3572 65.5559 82.31 65.6359 82.2628 65.7158Z" fill="white"/>
<ellipse cx="111.264" cy="75.524" rx="2.128" ry="2.212" fill="#2B74B9"/>
<ellipse cx="89.072" cy="73.628" rx="2.128" ry="2.212" fill="#2B74B9"/>
<path fill-rule="evenodd" clip-rule="evenodd" d="M99.1321 46.9748C100.345 47.2455 101.66 47.5741 102.885 46.8824C103.3 46.6481 103.69 46.3597 104.068 46.0638C104.299 45.8833 104.507 45.6593 104.688 45.4243C106.127 43.5591 107.19 43.8377 109.172 45.0555C111.707 46.6135 114.644 51.1519 106.782 51.1519C102.822 51.1519 87.0058 48.9105 89.2142 46.6825C90.1167 45.7719 91.2991 45.1624 92.3467 44.4048C92.7412 44.1195 93.1429 43.8338 93.4911 43.493C93.9955 42.9991 94.3016 43.2599 94.6165 43.7139C95.0304 44.3106 95.4625 44.8937 95.9266 45.524C97.0181 46.0521 98.0306 46.7288 99.1321 46.9748Z" fill="#E7EAEE"/>
<path fill-rule="evenodd" clip-rule="evenodd" d="M141.505 132.299C141.094 132.556 140.684 132.813 140.242 132.987C139.175 133.408 138.093 133.788 136.999 134.173L136.999 134.173L136.999 134.173L136.999 134.173L136.999 134.173L136.999 134.173L136.999 134.173L136.998 134.173C136.306 134.417 135.61 134.662 134.909 134.919C134.698 135.005 134.513 135.061 134.333 135.115C134.291 135.128 134.249 135.141 134.207 135.154C133.582 135.347 132.957 135.543 132.332 135.738L132.332 135.738C130.763 136.229 129.194 136.719 127.618 137.179C126.979 137.365 126.451 137.157 126.105 136.439C125.243 134.657 124.32 132.905 123.392 131.158C123.328 131.037 123.169 130.97 123.01 130.903C122.936 130.872 122.862 130.841 122.798 130.804C122.774 130.889 122.735 130.981 122.697 131.073L122.697 131.073C122.614 131.272 122.531 131.47 122.592 131.591C123.627 133.658 124.689 135.711 125.8 137.733C125.938 137.984 126.435 138.213 126.71 138.157C128.169 137.858 129.617 137.492 131.056 137.096C131.612 136.943 132.162 136.764 132.712 136.585L132.712 136.585C133.504 136.327 134.296 136.069 135.104 135.889C137.88 135.271 140.536 134.379 142.918 132.729C143.774 132.137 144.009 131.231 143.592 130.292C143.447 129.964 143.299 129.637 143.151 129.31C142.641 128.183 142.13 127.054 141.73 125.886C140.504 122.303 139.124 118.789 137.5 115.385C136.472 113.231 135.38 111.106 134.22 109.026C132.67 106.247 131.047 103.47 128.554 101.493C126.823 100.119 124.97 98.8261 122.999 97.8874C120.118 96.5154 116.954 96.2149 113.806 95.9868C113.163 95.9402 112.487 95.6894 111.919 95.3599C110.779 94.6992 110.317 93.5288 109.851 92.3504C109.8 92.2214 109.748 92.0923 109.697 91.9638C109.467 91.3953 109.837 91.2889 110.07 91.2388C110.669 91.1097 111.303 91.0075 111.906 91.0709C112.845 91.1695 113.362 90.7149 113.707 89.9052C114.553 87.9191 115.293 85.8994 115.852 83.7975C116.626 80.8875 117.287 77.9777 117.217 74.9281C117.186 73.6063 117.193 72.2835 117.2 70.9608C117.204 70.271 117.208 69.5813 117.206 68.8916C117.206 68.7035 117.184 68.5066 117.162 68.3104C117.118 67.9159 117.074 67.5238 117.206 67.2095C117.531 66.4364 118.065 65.7426 118.582 65.0758C118.992 64.5484 119.42 64.0362 119.848 63.5241L119.848 63.524C120.366 62.9034 120.884 62.2828 121.37 61.6354C121.761 61.1141 122.052 60.45 121.659 59.7576C121.274 59.0814 120.657 58.807 119.941 58.975C119.818 59.0038 119.694 59.031 119.57 59.0583C118.669 59.2564 117.759 59.4567 117.123 60.2867C116.817 60.6856 116.64 60.6869 116.561 60.1085C116.503 59.6789 116.419 59.2529 116.335 58.827L116.335 58.8269L116.335 58.8268L116.335 58.8268L116.335 58.8267L116.335 58.8267L116.335 58.8266L116.335 58.8266L116.335 58.8265L116.335 58.8265L116.335 58.8264L116.335 58.8264L116.335 58.8263L116.335 58.8263L116.335 58.8262C116.249 58.3854 116.162 57.9445 116.103 57.4997C116.03 56.9513 115.982 56.3995 115.933 55.8478L115.933 55.8476L115.933 55.8475L115.933 55.8474L115.933 55.8473L115.933 55.8472L115.933 55.8471L115.933 55.847L115.933 55.8469L115.933 55.8468L115.933 55.8467L115.933 55.8466L115.933 55.8465L115.933 55.8464L115.933 55.8463L115.932 55.8462C115.885 55.3127 115.838 54.7791 115.769 54.2486C115.673 53.5033 115.563 52.7595 115.454 52.0158L115.454 52.0157L115.454 52.0156L115.454 52.0155L115.454 52.0154L115.454 52.0153L115.454 52.0152L115.454 52.0151L115.454 52.015L115.454 52.0149L115.454 52.0148L115.454 52.0147L115.454 52.0146L115.454 52.0145L115.454 52.0144C115.289 50.889 115.124 49.7639 115.002 48.6335C114.93 47.962 114.751 47.4242 114.317 46.9347C114.092 46.6809 113.864 46.4295 113.636 46.178L113.635 46.1776C112.935 45.4064 112.234 44.6343 111.63 43.7882C109.963 41.4536 107.596 40.2291 105.139 39.1187C103.556 38.4031 101.92 37.8913 100.179 37.788C99.4131 37.7425 98.6477 37.6858 97.8824 37.6291L97.8824 37.6291C97.1008 37.5712 96.3193 37.5133 95.537 37.4673C94.8936 37.4296 94.2393 37.4026 93.6038 37.4858C93.2878 37.5272 92.9718 37.7898 92.7111 38.02C92.4537 38.2473 92.2088 38.4904 91.964 38.7335C91.6486 39.0466 91.3334 39.3595 90.992 39.6381C90.632 39.9319 90.2507 40.2016 89.87 40.471L89.8699 40.471L89.8698 40.471C89.2447 40.9132 88.621 41.3545 88.0949 41.8998C87.4902 42.5266 87.0071 43.282 86.5249 44.036L86.5249 44.036L86.5249 44.036C86.3474 44.3135 86.17 44.5909 85.9867 44.8615C84.6264 46.8706 83.5812 49.0419 83.0058 51.4321C82.6497 52.9116 82.348 54.4058 82.0487 55.8992L82.0012 56.1354C81.7816 57.2287 81.5615 58.3246 81.4232 59.4302L81.4171 59.4791C81.3078 60.3548 81.2995 60.4213 80.4912 60.1107C79.6566 59.7899 78.9373 60.0066 78.3497 60.5951C77.7724 61.1734 77.7088 61.9536 77.9095 62.7399C78.4974 65.0431 80.1908 66.0074 82.2152 66.5818C82.3919 66.632 82.587 66.8112 82.6712 66.9842C83.5441 68.7787 83.5818 70.6874 83.0294 72.5383C82.5207 74.2427 81.9181 75.9168 81.3155 77.591C81.0496 78.3296 80.7838 79.0683 80.5259 79.8096C80.2605 80.5729 80.1149 81.2728 80.7231 82.0122C82.0312 83.6025 83.2805 85.2484 84.2241 87.1138C84.5983 87.8535 85.1726 88.3861 85.9429 88.5468C86.6767 88.6998 86.7763 89.077 86.8627 89.7927C86.9766 90.7359 87.2786 91.7272 87.7689 92.5174C87.9245 92.7683 88.3442 92.8362 88.7738 92.9056L88.7739 92.9056L88.7739 92.9056H88.7739C89.0013 92.9424 89.2314 92.9796 89.4267 93.0446C89.5862 93.0978 89.8393 93.3188 89.8197 93.4086C89.7851 93.5673 89.7514 93.7267 89.7177 93.8862L89.7176 93.8867L89.7175 93.8872L89.7173 93.888L89.7171 93.8888L89.7169 93.8896L89.7169 93.8896L89.7169 93.8897L89.7169 93.8897L89.7169 93.8897L89.7169 93.8898L89.7169 93.8898L89.7169 93.8898L89.7169 93.8899L89.7168 93.8899L89.7168 93.8899L89.7168 93.89L89.7168 93.89L89.7168 93.89L89.7168 93.8901C89.554 94.6602 89.3905 95.4343 89.1155 96.1613C88.5132 97.7534 87.2322 98.7494 85.9889 99.7161L85.9888 99.7162L85.9886 99.7163C85.8188 99.8483 85.6497 99.9798 85.483 100.112C83.3123 101.837 80.73 102.785 78.1357 103.602C76.9163 103.986 75.6793 104.31 74.4422 104.633L74.4416 104.633C73.6393 104.843 72.8369 105.053 72.0392 105.279C71.542 105.42 71.0507 105.587 70.5596 105.754C69.8313 106.001 69.1036 106.249 68.3582 106.411C65.4947 107.036 62.9687 108.32 60.7501 110.287C59.2589 111.61 58.4584 113.388 57.6535 115.176L57.536 115.436C56.4481 117.846 55.4943 120.416 55.3599 123.024C55.3222 123.756 55.376 124.492 55.4297 125.228C55.4569 125.601 55.4841 125.973 55.4995 126.345C55.5341 127.182 55.5637 128.018 55.5933 128.855C55.6577 130.675 55.7222 132.495 55.8376 134.311C55.9019 135.324 56.0752 136.33 56.2483 137.335C56.298 137.623 56.3476 137.912 56.3947 138.2C56.5228 138.985 56.6657 139.767 56.8087 140.55C56.904 141.072 56.9994 141.594 57.0904 142.116C57.1497 142.457 57.2133 142.798 57.277 143.138C57.4483 144.055 57.6197 144.971 57.7067 145.896C57.7867 146.746 57.7634 147.607 57.7402 148.467C57.7333 148.722 57.7264 148.976 57.7223 149.23C57.7149 149.677 57.7901 150.04 58.3074 149.918C58.8186 149.798 59.3209 149.637 59.8229 149.476L59.8231 149.476L59.8232 149.475L59.8233 149.475L59.8234 149.475C59.9811 149.425 60.1387 149.374 60.2966 149.325C60.8295 149.158 61.156 149.353 61.2248 149.923C61.2928 150.486 61.3527 151.051 61.4125 151.615L61.4126 151.615C61.5035 152.472 61.5943 153.329 61.7135 154.181C62.0031 156.254 62.3217 158.322 62.6653 160.386C63.2961 164.174 64.2053 167.895 65.3999 171.53C66.4619 174.761 67.6106 177.963 68.7704 181.159C69.4383 182.999 70.1528 184.822 70.8672 186.644L70.8673 186.644L70.868 186.646L70.8682 186.646C71.0505 187.111 71.2328 187.576 71.4143 188.042C72.1508 189.929 72.9032 191.811 73.6568 193.691C73.8316 194.128 74.0044 194.565 74.1772 195.003L74.1774 195.003C74.684 196.286 75.1907 197.569 75.7501 198.826C76.2357 199.918 76.7877 200.978 77.3393 202.038C77.5021 202.35 77.6648 202.663 77.8259 202.976C77.8759 203.074 77.9764 203.143 78.0769 203.213C78.1236 203.245 78.1702 203.277 78.2118 203.312C78.2319 203.255 78.2552 203.198 78.2786 203.141C78.3332 203.007 78.3879 202.873 78.4004 202.736C78.4102 202.628 78.3514 202.51 78.2951 202.398C78.2803 202.368 78.2656 202.339 78.2525 202.31C78.065 201.902 77.8711 201.496 77.6772 201.09L77.6766 201.089C77.2697 200.238 76.8627 199.387 76.5153 198.51C75.3118 195.472 74.1573 192.413 73.0069 189.353C72.49 187.978 71.9847 186.598 71.4793 185.218C70.9819 183.86 70.4844 182.502 69.9759 181.148C69.6598 180.306 69.3255 179.471 68.9913 178.636C68.393 177.141 67.7949 175.646 67.3009 174.115C66.252 170.865 65.3136 167.571 64.4639 164.258C63.9851 162.391 63.656 160.48 63.3275 158.573C63.2684 158.231 63.2094 157.888 63.1495 157.545C62.9838 156.598 62.8783 155.64 62.7729 154.681C62.7369 154.354 62.7009 154.027 62.6625 153.701C62.4957 152.282 62.3385 150.862 62.1857 149.441C62.1347 148.967 62.3365 148.743 62.8013 148.59C64.5808 148.005 66.3518 147.391 68.1228 146.778L68.1229 146.778L68.1232 146.778L68.1249 146.777C68.7536 146.559 69.3824 146.341 70.0115 146.125C70.4794 145.964 70.9776 145.809 71.4897 145.651C73.386 145.063 75.4732 144.416 76.9164 143.154C77.0001 143.081 77.2188 143.039 77.2712 143.093C77.3655 143.189 77.4321 143.372 77.4222 143.512C77.3724 144.212 77.3119 144.913 77.2514 145.613C77.1321 146.994 77.0129 148.374 76.9755 149.758C76.9281 151.512 77.0091 153.272 77.09 155.029L77.09 155.03C77.1007 155.262 77.1114 155.493 77.1217 155.725C77.1716 156.839 77.2516 157.963 77.444 159.059C77.9334 161.847 78.9491 164.455 80.1416 166.989C80.315 167.358 80.5212 167.712 80.727 168.066C81.035 168.596 81.3421 169.124 81.5375 169.695C81.8362 170.569 82.152 171.436 82.4678 172.303L82.4679 172.304C83.3352 174.686 84.2027 177.069 84.7177 179.575C84.8797 180.364 85.0689 181.146 85.258 181.928L85.258 181.929C85.4679 182.797 85.6778 183.665 85.8506 184.541C86.117 185.892 86.3245 187.257 86.5319 188.62L86.5319 188.62C86.5797 188.934 86.6275 189.249 86.676 189.563C86.7353 189.946 86.8014 190.33 86.8676 190.714C87.0471 191.756 87.2268 192.798 87.2701 193.846C87.3563 195.932 87.3836 198.02 87.4109 200.108C87.4255 201.222 87.4401 202.337 87.4637 203.452C87.4672 203.618 87.5351 203.782 87.603 203.947C87.6346 204.023 87.6662 204.1 87.6913 204.177C87.7333 204.099 87.7856 204.022 87.8379 203.945C87.951 203.779 88.064 203.613 88.0737 203.441C88.1262 202.502 88.1569 201.562 88.1877 200.622L88.1877 200.622L88.1877 200.622L88.1878 200.621L88.1878 200.621L88.1878 200.621L88.1878 200.621L88.1878 200.62L88.1878 200.62L88.1878 200.62L88.1878 200.619L88.1879 200.619L88.1879 200.619L88.1879 200.618L88.1879 200.618V200.618C88.2078 200.011 88.2277 199.404 88.2534 198.797C88.2656 198.508 88.2946 198.219 88.3235 197.93C88.3669 197.497 88.4103 197.064 88.3972 196.633C88.3834 196.181 88.3711 195.73 88.3587 195.278L88.3587 195.276C88.3021 193.208 88.2454 191.138 88.0585 189.082C87.9332 187.703 87.6189 186.339 87.3061 184.981C87.2461 184.72 87.1861 184.46 87.1275 184.199C86.9871 183.576 86.8501 182.951 86.7131 182.326C86.2272 180.11 85.7409 177.893 85.1024 175.725C84.0537 172.165 82.6303 168.747 80.995 165.421C80.2516 163.909 79.6286 162.295 79.2112 160.656C78.3915 157.437 78.3205 154.11 78.2499 150.802L78.2432 150.491C78.2104 148.968 78.2706 147.443 78.3309 145.918L78.3309 145.918C78.3514 145.398 78.372 144.878 78.3888 144.358C78.4109 143.675 78.4614 142.992 78.5119 142.311C78.5229 142.161 78.534 142.012 78.5447 141.862C78.5936 141.183 78.6533 140.504 78.713 139.824L78.7131 139.824C78.8435 138.34 78.974 136.855 78.9918 135.369C79.0061 134.174 78.9315 132.978 78.8568 131.782L78.8568 131.782C78.795 130.791 78.7331 129.8 78.7218 128.808C78.7058 127.409 78.3174 126.116 77.9287 124.822C77.8054 124.412 77.6821 124.002 77.5707 123.588C77.5278 123.429 77.3695 123.303 77.2112 123.178C77.1379 123.12 77.0646 123.062 77.0027 123C76.9786 123.09 76.9438 123.182 76.909 123.274C76.833 123.475 76.7571 123.675 76.7918 123.853C76.8613 124.209 76.9651 124.559 77.0686 124.909C77.2135 125.399 77.3581 125.888 77.4081 126.388C77.6318 128.628 77.8438 130.878 77.8785 133.127C77.893 134.068 77.8223 135.012 77.7517 135.955C77.6728 137.007 77.594 138.059 77.6337 139.107C77.6903 140.601 76.9567 141.396 75.9744 142.154C74.6824 143.152 72.8369 143.729 71.1801 144.246C70.7411 144.383 70.3154 144.516 69.9167 144.652C67.4402 145.494 64.9785 146.383 62.5168 147.272C61.5005 147.639 60.4841 148.006 59.4667 148.37L59.4495 148.376C59.1094 148.498 58.8288 148.599 58.8293 147.995C58.8299 147.259 58.7565 146.522 58.6834 145.788L58.6795 145.749C58.638 145.331 58.5972 144.913 58.5565 144.495C58.399 142.88 58.2416 141.265 58.0367 139.656C57.9116 138.674 57.7596 137.695 57.6076 136.716C57.426 135.546 57.2445 134.376 57.1087 133.2C56.9178 131.547 56.8046 129.876 56.7916 128.212C56.7785 126.527 56.8285 124.84 56.8784 123.154C56.898 122.493 56.9176 121.831 56.9334 121.169C56.9757 119.394 57.8144 117.765 58.6323 116.176C58.9383 115.582 59.2414 114.993 59.4988 114.404C60.8043 111.419 63.2625 109.773 66.0296 108.61C67.3594 108.051 68.7467 107.638 70.1332 107.226C70.6426 107.074 71.1518 106.923 71.6581 106.764C72.7915 106.408 73.9278 106.062 75.064 105.716L75.0664 105.715C77.3095 105.032 79.5526 104.348 81.7735 103.594C83.7543 102.921 85.6405 101.957 87.2005 100.465C87.6278 100.056 87.8381 100.129 88.215 100.503C89.4455 101.726 90.7053 102.917 91.9649 104.108L92.1818 104.313C94.3293 106.343 96.7195 108.003 99.3772 109.214C99.7709 109.394 100.416 109.368 100.782 109.147C101.607 108.648 102.379 108.052 103.149 107.456C103.308 107.333 103.466 107.211 103.625 107.089C103.945 106.844 104.265 106.6 104.585 106.356L104.585 106.356L104.586 106.356L104.586 106.356L104.586 106.356L104.586 106.356L104.586 106.356L104.586 106.355L104.586 106.355L104.586 106.355L104.586 106.355L104.586 106.355L104.586 106.355L104.586 106.355L104.587 106.355C105.917 105.341 107.248 104.326 108.542 103.264C109.917 102.135 110.901 100.647 111.882 99.1645C112.039 98.9274 112.195 98.6904 112.353 98.455C112.416 98.3626 112.196 97.8862 112.056 97.8566C111.505 97.7406 111.252 98.1139 110.986 98.5052C110.936 98.5797 110.885 98.6548 110.832 98.7273C110.612 99.0257 110.397 99.3321 110.182 99.639L110.182 99.6392C109.515 100.59 108.845 101.547 108.002 102.285C106.658 103.463 105.246 104.557 103.834 105.651L103.834 105.651L103.833 105.651L103.833 105.651L103.833 105.652L103.833 105.652L103.833 105.652L103.833 105.652L103.833 105.652L103.833 105.652L103.833 105.652L103.833 105.652L103.833 105.652L103.833 105.652L103.833 105.652C102.828 106.43 101.824 107.208 100.843 108.017C100.233 108.521 99.7839 108.484 99.1941 108.138C99.0671 108.063 98.9401 107.989 98.8131 107.915L98.8063 107.911C97.4304 107.108 96.0659 106.311 94.8756 105.174C93.3462 103.713 91.741 102.337 90.1362 100.962L90.1359 100.962L90.1354 100.961L90.135 100.961C89.676 100.568 89.217 100.174 88.7599 99.7791C88.336 99.4126 88.4122 99.186 88.7767 98.8394C89.9983 97.6779 90.6536 96.241 90.8313 94.5072C90.8421 94.4015 90.8458 94.2853 90.8495 94.1645V94.1645V94.1645V94.1644V94.1644V94.1644V94.1643V94.1643V94.1643V94.1642C90.8666 93.6176 90.8865 92.9789 91.5899 92.8084C92.266 92.6445 92.7702 93.1038 93.1738 93.6129C93.4323 93.939 93.679 94.2754 93.9256 94.6117L93.9258 94.6119L93.9259 94.6121L93.9261 94.6123L93.9262 94.6125L93.9264 94.6127L93.9265 94.6129L93.9267 94.6131L93.9268 94.6133L93.927 94.6135L93.9271 94.6137L93.9273 94.6139L93.9274 94.6141L93.9276 94.6143L93.9277 94.6145L93.9278 94.6145C94.2354 95.034 94.5431 95.4534 94.8732 95.8528L94.9353 95.928C95.5664 96.6934 96.2616 97.5363 97.3588 97.142C98.8929 96.5906 100.441 96.4879 102.036 96.4684C102.489 96.4628 103.118 96.1105 103.351 95.716C103.735 95.0637 104.019 94.3474 104.303 93.6314L104.303 93.6313C104.412 93.3544 104.522 93.0775 104.638 92.8044C105.044 91.8421 105.468 91.4826 106.487 91.8682C106.929 92.0358 107.515 92.1692 107.916 92.0036C108.709 91.6757 108.859 92.0732 109.082 92.663L109.109 92.7357C109.629 94.1035 110.157 95.4753 111.411 96.3674C112.238 96.9555 113.173 97.1182 114.11 97.2811C114.197 97.2963 114.284 97.3114 114.371 97.3269C115.185 97.4719 116.002 97.6019 116.819 97.7319L116.819 97.7319L116.819 97.7319L116.819 97.732L116.819 97.732L116.819 97.732L116.819 97.732L116.819 97.732L116.819 97.732L116.819 97.732L116.819 97.732L116.819 97.7321L116.819 97.7321L116.82 97.7321L116.82 97.7321L116.82 97.7321C117.995 97.9191 119.17 98.1061 120.336 98.3376C123.376 98.9406 125.981 100.563 128.213 102.663C129.773 104.13 131.032 105.977 132.26 107.778L132.296 107.83C133.188 109.138 133.913 110.575 134.634 112.003L134.634 112.003L134.636 112.008C134.719 112.171 134.801 112.334 134.884 112.497C135.106 112.936 135.331 113.375 135.556 113.814L135.556 113.815L135.557 113.816L135.557 113.817L135.557 113.818L135.558 113.819L135.558 113.82L135.559 113.821L135.559 113.822L135.56 113.823C136.592 115.841 137.626 117.862 138.501 119.952C139.513 122.37 140.436 124.828 141.359 127.286L141.359 127.286L141.36 127.287L141.36 127.287L141.36 127.287L141.36 127.288L141.36 127.288L141.36 127.289L141.36 127.289L141.361 127.289L141.361 127.29L141.361 127.29L141.361 127.291L141.361 127.291L141.362 127.292L141.362 127.293L141.363 127.294L141.363 127.296L141.363 127.297L141.364 127.298L141.364 127.299L141.365 127.3L141.365 127.301L141.366 127.302L141.366 127.304L141.367 127.305L141.367 127.306L141.367 127.307L141.368 127.308C141.814 128.497 142.261 129.687 142.718 130.871C142.871 131.269 142.92 131.522 142.454 131.75C142.128 131.91 141.817 132.104 141.505 132.299ZM82.0199 78.3662C82.1335 78.1001 82.247 77.834 82.3624 77.5689C83.265 75.4081 84.0442 73.4138 84.1562 71.1311C84.2605 69.0075 83.7365 67.071 83.2026 65.0975L83.11 64.7549C82.9427 64.1337 82.8585 63.489 82.7742 62.8437L82.7742 62.8437L82.7742 62.8436L82.7742 62.8436L82.7742 62.8436L82.7741 62.8435L82.7741 62.8435L82.7741 62.8435L82.7741 62.8434L82.7741 62.8434L82.7741 62.8434L82.7741 62.8433L82.7741 62.8433L82.7741 62.8433L82.7741 62.8432L82.7741 62.8432C82.7022 62.293 82.6303 61.7423 82.5067 61.2055C82.2197 59.9593 82.4523 58.776 82.6845 57.5941C82.8045 56.9832 82.9245 56.3728 82.9726 55.7542C83.1217 53.8382 83.5541 52.0089 84.179 50.2278C84.9892 47.9186 86.2289 45.8473 87.5819 43.8341C88.612 42.3014 89.9532 41.2111 91.4772 40.2829C92.0875 39.9113 92.7056 39.4463 93.1192 38.8684C93.4309 38.4328 93.691 38.2738 94.1713 38.2807C94.6974 38.2882 95.2244 38.28 95.7512 38.2717C96.6311 38.2579 97.5108 38.2441 98.3861 38.3039C101.58 38.5222 104.619 39.3493 107.332 41.1867L107.461 41.2741C108.454 41.946 109.465 42.6302 110.304 43.4821C111.373 44.5681 112.334 45.7716 113.293 46.9717L113.293 46.9717L113.293 46.9724L113.294 46.973L113.294 46.9731C113.443 47.1602 113.593 47.3472 113.742 47.5336C113.91 47.7428 113.954 48.0744 113.996 48.3838C114.004 48.4448 114.012 48.5049 114.021 48.563C114.246 50.0499 114.46 51.5388 114.673 53.0277L114.77 53.699C114.814 54.006 114.858 54.3129 114.903 54.6198L114.903 54.6201L114.903 54.6205L114.903 54.6209L114.904 54.6216L114.904 54.6223L114.904 54.623L114.904 54.6237L114.904 54.6245L114.904 54.6252L114.904 54.6259L114.904 54.6266L114.904 54.6273L114.904 54.6281L114.904 54.6283C115.041 55.5649 115.178 56.5015 115.295 57.4407C115.335 57.7582 115.375 58.0756 115.415 58.393L115.415 58.3974L115.416 58.4019L115.416 58.402C115.655 60.3084 115.895 62.2152 116.081 64.1274C116.184 65.1871 116.209 66.2559 116.233 67.3234L116.233 67.3253C116.239 67.5591 116.244 67.7929 116.25 68.0264C116.263 68.5181 116.277 69.0097 116.291 69.5014L116.291 69.5023L116.291 69.5033L116.291 69.5043L116.291 69.5053L116.291 69.5061V69.5061V69.5061V69.5062V69.5062V69.5063V69.5063V69.5064V69.5064V69.5065V69.5065V69.5066V69.5066V69.5067V69.5067C116.346 71.4527 116.401 73.399 116.402 75.3452C116.403 78.2506 115.787 81.0667 114.96 83.8172C114.451 85.5082 113.815 87.1589 113.18 88.8072C113.067 89.0995 112.955 89.3918 112.843 89.6842C112.752 89.9233 112.397 90.1433 112.13 90.2027C111.389 90.3672 110.633 90.4771 109.878 90.5351C109.572 90.5586 109.195 90.4738 108.956 90.2902C108.66 90.0634 108.606 90.0589 108.445 90.4133C108.062 91.2509 107.602 91.4513 106.716 91.1246C105.929 90.8343 105.16 90.7303 104.568 91.4071C104.24 91.7817 104.022 92.2693 103.81 92.7462L103.768 92.8383L103.73 92.9242L103.693 93.0057C103.59 93.2315 103.528 93.4776 103.466 93.724C103.434 93.8515 103.402 93.9792 103.365 94.1041C102.996 95.3219 102.529 95.7432 101.333 95.6623C100.028 95.574 98.7633 95.7682 97.5607 96.2019C96.548 96.5672 96.0743 95.9984 95.5646 95.3863L95.5646 95.3862C95.5125 95.3237 95.46 95.2607 95.4066 95.1982C95.2619 95.029 95.1177 94.8592 94.9734 94.6893C94.2756 93.8675 93.5769 93.0448 92.8182 92.2882C92.5342 92.0051 91.9863 91.8904 91.5639 91.9009C91.1231 91.9119 90.6845 91.9892 90.2453 92.0666C89.9599 92.1169 89.6743 92.1673 89.3876 92.1995C88.776 92.2683 88.2959 91.912 88.1143 91.3743C87.8605 90.623 87.7182 89.8176 87.6312 89.0231C87.5687 88.4522 87.3717 88.0186 86.8497 87.9207C85.5638 87.6796 84.8552 86.84 84.2433 85.7014C83.8103 84.8956 83.2582 84.1584 82.7066 83.4219C82.4965 83.1413 82.2864 82.8609 82.0831 82.5767C81.9485 82.3887 81.801 82.2106 81.6536 82.0325L81.6536 82.0324L81.6535 82.0324C81.5162 81.8665 81.3789 81.7006 81.2519 81.5267C80.9685 81.1385 80.9544 80.7384 81.1719 80.2813C81.4715 79.6516 81.7457 79.0089 82.0199 78.3662ZM116.755 62.7911L116.731 62.3524C116.568 61.3733 117.026 61.0626 117.646 60.6917C118.515 60.1726 119.371 59.7284 120.383 59.803C120.868 59.8388 121.275 60.089 120.866 60.6929C120.171 61.7171 119.462 62.7312 118.737 63.7322C118.409 64.1859 118.058 64.6226 117.708 65.0593L117.708 65.0594L117.708 65.0595L117.708 65.0597L117.707 65.0604L117.707 65.0611L117.706 65.0613L117.706 65.0615L117.706 65.0618L117.706 65.062L117.706 65.0622L117.705 65.0625L117.705 65.0627L117.705 65.0629C117.583 65.2154 117.46 65.3679 117.339 65.5211C117.296 65.5753 117.243 65.6208 117.189 65.6663C117.165 65.6873 117.14 65.7084 117.116 65.7303C117.095 65.7007 117.073 65.6714 117.051 65.6421C116.996 65.5678 116.94 65.4935 116.894 65.4134C116.879 65.3875 116.882 65.3504 116.886 65.3128C116.888 65.2917 116.891 65.2705 116.889 65.2509C116.845 64.4383 116.801 63.6257 116.756 62.8131L116.756 62.8125L116.756 62.812L116.756 62.8115L116.756 62.8109L116.755 62.7911ZM82.2629 65.7155C82.241 65.7526 82.2191 65.7898 82.2032 65.8256C81.7708 65.6114 81.3698 65.3554 80.9728 65.102L80.9728 65.102C80.6253 64.8802 80.2809 64.6604 79.9211 64.4721C79.108 64.0467 78.8219 63.274 78.5615 62.506C78.2619 61.6222 78.9288 60.778 79.8329 60.7844L79.9541 60.785C80.2763 60.7862 80.6035 60.7874 80.9134 60.858C81.5223 60.9967 81.5827 61.4872 81.6409 61.9598C81.6589 62.1065 81.6768 62.2514 81.7108 62.3836C81.9282 63.2294 82.087 64.0917 82.2456 64.9533C82.2785 65.1316 82.3113 65.3098 82.3446 65.4879C82.3573 65.5557 82.3101 65.6356 82.2629 65.7155ZM130.468 143.571L130.47 143.574L130.473 143.578C131.729 145.669 132.99 147.767 134.273 149.887C134.601 150.228 134.924 150.566 135.244 150.901C135.949 151.637 136.641 152.36 137.342 153.073C139.027 154.785 141.03 155.204 143.287 154.666C145.248 154.199 147.04 153.371 148.617 152.074C148.867 151.869 149.124 151.67 149.381 151.47L149.381 151.47L149.382 151.469L149.382 151.469L149.383 151.469L149.383 151.468L149.383 151.468L149.383 151.468L149.383 151.468L149.383 151.468L149.384 151.468L149.384 151.468L149.384 151.468L149.384 151.468L149.384 151.468L149.384 151.468L149.384 151.468L149.384 151.467L149.384 151.467L149.384 151.467C150.143 150.878 150.905 150.287 151.486 149.545C152.81 147.852 154.029 146.043 155.093 144.162C156.513 141.651 157.925 139.104 159.009 136.427C160.02 133.932 160.861 131.362 161.702 128.793L161.702 128.793L161.703 128.793L161.703 128.793L161.703 128.793L161.703 128.792L161.703 128.792L161.703 128.792L161.703 128.792L161.703 128.792L161.703 128.792L161.703 128.792L161.703 128.792L161.703 128.792L161.703 128.791C162.016 127.834 162.33 126.877 162.652 125.924C162.769 125.576 162.888 125.227 163.006 124.879L163.006 124.879C163.671 122.917 164.337 120.954 164.927 118.968C165.213 118.004 165.454 117.024 165.695 116.045L165.695 116.044L165.696 116.044C166.006 114.783 166.317 113.523 166.723 112.296C167.189 110.887 167.768 109.519 168.347 108.151C168.647 107.443 168.947 106.734 169.232 106.02C169.53 105.27 169.829 104.521 170.129 103.772L170.131 103.766L170.132 103.765C171.279 100.895 172.426 98.0248 173.514 95.1312C173.946 93.9838 174.248 92.7826 174.549 91.5839C174.628 91.2684 174.708 90.953 174.789 90.6388C174.826 90.4963 174.753 90.3227 174.679 90.1492C174.645 90.0689 174.611 89.9885 174.588 89.9112C174.508 89.9377 174.423 89.9574 174.338 89.9771C174.153 90.0199 173.968 90.0627 173.839 90.1746C173.025 90.8769 172.463 91.7665 172.092 92.805C171.901 93.3371 171.646 93.8449 171.392 94.3511L171.392 94.3512C171.339 94.4563 171.286 94.5614 171.234 94.6667C171.202 94.7308 171.116 94.7659 171.03 94.8011C171.014 94.8078 170.997 94.8146 170.981 94.8216C170.959 94.8314 170.937 94.8416 170.917 94.8527C170.917 94.8359 170.916 94.8189 170.915 94.8018C170.913 94.7829 170.912 94.7638 170.91 94.7448C170.904 94.6669 170.897 94.5891 170.916 94.5191C171.071 93.9682 171.231 93.4188 171.391 92.8695C171.731 91.7027 172.071 90.536 172.355 89.3545C172.586 88.3882 172.661 87.3726 172.724 86.3735C172.769 85.6504 172.132 85.2319 171.573 85.6084C171.283 85.8036 171.044 86.0806 170.805 86.3572L170.804 86.3574C170.708 86.4689 170.612 86.5802 170.512 86.6861C170.434 86.77 170.363 86.862 170.292 86.954C170.259 86.996 170.227 87.038 170.194 87.0792C170.177 87.0313 170.159 86.9837 170.14 86.9361C170.099 86.8314 170.058 86.7267 170.038 86.6178C169.972 86.2574 169.922 85.8933 169.876 85.5294C169.788 84.8431 169.408 84.1885 168.824 84.1747C168.428 84.1653 167.864 84.7636 167.641 85.2281C166.962 86.6376 166.365 88.0954 165.825 89.5698C165.406 90.715 165.034 91.8784 164.661 93.0419L164.661 93.0421L164.661 93.0423L164.661 93.0425L164.661 93.0427L164.66 93.0428L164.66 93.043L164.66 93.0432L164.66 93.0434L164.66 93.0436L164.66 93.0438L164.66 93.0439L164.66 93.0441L164.66 93.0443L164.66 93.0445L164.66 93.0449L164.66 93.0453L164.659 93.0457L164.659 93.046L164.659 93.0464L164.659 93.0468C164.489 93.5767 164.32 94.1066 164.145 94.6347C164.107 94.7498 164.063 94.8625 164.018 94.9752C163.998 95.0275 163.977 95.0798 163.957 95.1323C163.915 95.0999 163.871 95.0701 163.826 95.0402C163.729 94.9757 163.632 94.9112 163.568 94.8215C162.904 93.8866 161.954 93.3943 160.989 92.8942L160.872 92.8334C159.992 92.3765 159.122 92.502 158.351 92.8981C157.306 93.4346 157.343 95.3817 158.26 96.2542C159.675 97.5994 160.655 99.201 161.073 101.164C161.64 103.83 161.103 106.24 159.586 108.447L159.361 108.774C158.605 109.873 157.849 110.973 157.154 112.113C155.372 115.034 153.609 117.966 151.886 120.924L151.783 121.1L151.783 121.1C150.19 123.834 148.595 126.571 147.122 129.375C146.456 130.643 145.917 131.983 145.377 133.323L145.377 133.323L145.377 133.323L145.377 133.323L145.377 133.323L145.377 133.323L145.377 133.323L145.377 133.323L145.377 133.323L145.377 133.323L145.377 133.323L145.377 133.323L145.377 133.323L145.377 133.324L145.377 133.324C145.186 133.797 144.996 134.269 144.8 134.739C144.625 135.158 144.501 135.306 144.167 134.879C143.918 134.56 143.632 134.26 143.32 134.01C143.224 133.933 143.079 133.922 142.934 133.912C142.868 133.907 142.802 133.902 142.74 133.891C142.736 133.939 142.726 133.992 142.716 134.045C142.693 134.161 142.67 134.276 142.716 134.329C142.775 134.398 142.834 134.468 142.893 134.538C143.201 134.902 143.512 135.27 143.885 135.544C145.048 136.398 145.186 136.299 145.7 134.89C145.764 134.714 145.828 134.537 145.892 134.359L145.892 134.359C146.338 133.127 146.786 131.887 147.393 130.745C149.044 127.642 150.785 124.59 152.538 121.548C154.272 118.54 156.036 115.549 157.843 112.589C158.251 111.92 158.705 111.279 159.158 110.639C159.793 109.742 160.427 108.846 160.934 107.877C162.818 104.275 162.543 100.691 160.349 97.2985C160.131 96.962 159.849 96.6693 159.567 96.3771C159.256 96.055 158.946 95.7336 158.724 95.3548C158.485 94.9466 158.458 94.207 158.66 93.7844C158.797 93.4993 159.562 93.2977 159.938 93.4195C161.746 94.005 163.464 94.7661 163.844 97.0543C163.861 97.1615 163.981 97.2503 164.101 97.3392C164.157 97.3805 164.213 97.4218 164.259 97.4649C164.28 97.4307 164.305 97.3973 164.33 97.364C164.383 97.292 164.436 97.22 164.46 97.1387C164.684 96.3753 164.899 95.6092 165.114 94.8432L165.114 94.8426L165.214 94.4865C165.377 93.9078 165.535 93.3273 165.692 92.7467L165.692 92.7464L165.692 92.7461L165.692 92.7458L165.692 92.7455L165.692 92.7452L165.693 92.7448L165.693 92.7445L165.693 92.7442L165.693 92.7439L165.693 92.7436L165.693 92.7433L165.693 92.743L165.693 92.7427L165.693 92.7424L165.693 92.7422C166.064 91.3758 166.434 90.0094 166.874 88.6674C167.149 87.8259 167.55 87.0277 167.95 86.2314L167.95 86.2314L167.95 86.2313C168.074 85.984 168.198 85.7369 168.318 85.4887C168.401 85.3184 168.617 85.1999 168.796 85.1109C168.843 85.0877 169.055 85.2566 169.067 85.3533C169.087 85.5212 169.115 85.6918 169.144 85.863C169.223 86.3403 169.303 86.8221 169.207 87.2605C169.014 88.15 168.749 89.0224 168.484 89.8952L168.484 89.8954C168.334 90.3904 168.183 90.8856 168.046 91.3841C167.733 92.52 167.444 93.6642 167.189 94.8153C167.167 94.9143 167.271 95.0434 167.375 95.1725C167.424 95.2323 167.472 95.2921 167.507 95.3489C167.556 95.3053 167.612 95.2647 167.668 95.224C167.79 95.1361 167.912 95.0481 167.952 94.9304C168.208 94.1586 168.442 93.3787 168.676 92.5988L168.677 92.5981C168.757 92.3289 168.838 92.0598 168.92 91.791C169.467 89.9906 170.048 88.2068 171.344 86.8012C171.424 86.7134 171.533 86.6531 171.641 86.5928C171.691 86.5648 171.742 86.5368 171.789 86.506C171.806 86.569 171.83 86.6339 171.854 86.6988C171.906 86.8385 171.958 86.9781 171.931 87.0984C171.476 89.104 171.002 91.1049 170.519 93.1034C170.448 93.3986 170.364 93.6911 170.28 93.9835L170.28 93.9836C170.145 94.4545 170.01 94.9249 169.928 95.4055C169.891 95.6188 169.981 95.8555 170.071 96.0923C170.112 96.2 170.153 96.3078 170.182 96.4133C170.263 96.3839 170.353 96.3623 170.444 96.3407C170.641 96.2936 170.838 96.2465 170.933 96.1179C171.416 95.4611 171.863 94.767 172.251 94.0446C172.479 93.62 172.677 93.1783 172.875 92.7364C173.04 92.3689 173.205 92.0013 173.388 91.6434C173.453 91.5148 173.593 91.427 173.732 91.3392C173.796 91.2988 173.861 91.2584 173.917 91.214C173.911 91.2802 173.908 91.3479 173.905 91.4157C173.899 91.5619 173.893 91.708 173.846 91.838L173.636 92.4162L173.636 92.4167C173.134 93.7965 172.633 95.1767 172.094 96.5406C171.873 97.1019 171.624 97.6518 171.376 98.2017C171.135 98.7363 170.893 99.2709 170.676 99.816C170.272 100.831 169.883 101.852 169.493 102.873L169.493 102.873L169.493 102.873L169.493 102.873L169.493 102.873L169.493 102.873L169.493 102.873L169.493 102.873L169.493 102.874L169.493 102.874L169.493 102.874L169.493 102.874L169.493 102.874L169.493 102.874L169.493 102.874L169.493 102.875C168.798 104.694 168.104 106.514 167.329 108.296C166.232 110.819 165.354 113.408 164.621 116.061C164.329 117.118 164.029 118.174 163.694 119.217C163.335 120.331 162.965 121.441 162.594 122.551C161.869 124.721 161.145 126.89 160.512 129.088C159.581 132.324 158.545 135.508 157.172 138.567C155.708 141.828 153.901 144.892 151.796 147.732C150.807 149.066 149.558 150.303 148.192 151.195C146.633 152.213 144.962 153.153 143.093 153.543C141.85 153.803 140.598 153.955 139.458 153.272C137.36 152.015 135.793 150.14 134.41 148.133C133.368 146.62 132.382 145.065 131.395 143.51L131.395 143.509L131.395 143.509L131.395 143.509L131.394 143.509L131.394 143.508L131.394 143.508L131.394 143.508L131.394 143.508L131.394 143.508L131.394 143.507L131.393 143.507L131.393 143.507L131.393 143.507L131.393 143.506C130.826 142.613 130.26 141.72 129.682 140.834C129.588 140.69 129.424 140.594 129.259 140.499L129.259 140.499C129.183 140.455 129.107 140.411 129.038 140.361C129.034 140.444 129.03 140.526 129.026 140.609C129.014 140.828 129.002 141.048 129.014 141.266C129.016 141.312 129.066 141.353 129.118 141.395C129.159 141.428 129.201 141.463 129.225 141.502C129.629 142.174 130.033 142.846 130.437 143.519L130.447 143.536L130.468 143.571ZM123.732 188.631C123.638 189.142 123.561 189.653 123.484 190.159C123.301 191.371 123.122 192.556 122.728 193.658C122.004 195.684 120.327 196.909 118.391 197.532C116.487 198.144 114.532 198.593 112.582 199.041L112.582 199.041C112.353 199.093 112.125 199.146 111.896 199.199C111.378 199.318 110.838 199.336 110.299 199.353H110.299C110.085 199.36 109.871 199.367 109.659 199.38C108.589 199.447 107.519 199.512 106.449 199.578C104.827 199.676 103.206 199.775 101.584 199.88C100.924 199.923 100.264 199.976 99.6046 200.028H99.6044H99.6042H99.604H99.6039H99.6037H99.6035H99.6034H99.6032H99.603H99.6028H99.6027H99.6025H99.6023C98.7958 200.092 97.9892 200.156 97.1817 200.203L96.7879 200.226C95.5102 200.301 94.2303 200.376 92.9529 200.355C92.062 200.341 91.172 200.229 90.2833 200.117L90.2786 200.116C90.0476 200.087 89.8167 200.058 89.586 200.03C89.4923 200.019 89.4076 199.927 89.3228 199.835C89.2836 199.792 89.2443 199.749 89.2042 199.714C89.2353 199.679 89.2651 199.637 89.295 199.595C89.3598 199.502 89.4247 199.41 89.5034 199.395C89.5445 199.387 89.5857 199.378 89.6271 199.37C89.6685 199.361 89.7101 199.352 89.7518 199.344C90.1241 199.265 90.5044 199.184 90.8649 199.232C93.3572 199.567 95.8292 199.348 98.3061 199.058C99.5176 198.916 100.735 198.83 101.952 198.743L102.23 198.723C103.077 198.662 103.925 198.612 104.773 198.563C106.38 198.468 107.987 198.373 109.587 198.206C112.692 197.88 115.764 197.301 118.67 196.061C120.35 195.344 121.506 193.98 121.944 192.182L121.989 192C122.473 190.018 122.964 188.005 122.769 185.921C122.724 185.435 122.646 184.95 122.569 184.466C122.45 183.724 122.332 182.983 122.329 182.24C122.325 181.263 122.394 180.286 122.463 179.309C122.524 178.458 122.584 177.606 122.596 176.754C122.607 175.995 122.511 175.233 122.415 174.472L122.415 174.471L122.415 174.471L122.415 174.471L122.415 174.47L122.415 174.47L122.415 174.469L122.415 174.469C122.375 174.146 122.334 173.823 122.302 173.5C122.273 173.219 122.247 172.938 122.221 172.656C122.151 171.907 122.081 171.158 121.975 170.415C121.596 167.74 121.449 165.055 121.492 162.351C121.503 161.643 121.461 160.934 121.419 160.225L121.418 160.224C121.39 159.743 121.361 159.262 121.349 158.781C121.322 157.7 121.303 156.619 121.283 155.537C121.256 153.995 121.228 152.454 121.178 150.913C121.137 149.647 121.067 148.382 120.997 147.118L120.997 147.117C120.952 146.306 120.908 145.495 120.87 144.683C120.84 144.018 120.818 143.352 120.797 142.686L120.797 142.685L120.797 142.684L120.797 142.683L120.797 142.682L120.797 142.681L120.797 142.68C120.771 141.882 120.745 141.084 120.704 140.287C120.674 139.719 120.624 139.15 120.573 138.581C120.478 137.512 120.383 136.444 120.428 135.382C120.477 134.229 120.673 133.083 120.868 131.936C120.955 131.425 121.042 130.913 121.117 130.401C121.166 130.059 121.217 129.717 121.268 129.375L121.268 129.374L121.268 129.374L121.268 129.374L121.268 129.374L121.268 129.374L121.268 129.373L121.268 129.373L121.268 129.373L121.268 129.373L121.268 129.373L121.268 129.372L121.268 129.372L121.268 129.372C121.406 128.444 121.544 127.515 121.657 126.584C121.72 126.058 121.767 125.529 121.814 125.001L121.814 125L121.814 125L121.814 124.999L121.814 124.999L121.814 124.999L121.814 124.999L121.814 124.999L121.814 124.999L121.814 124.999L121.814 124.998L121.814 124.998L121.814 124.998L121.814 124.998L121.814 124.998C121.868 124.387 121.923 123.776 122.002 123.169C122.02 123.035 122.166 122.918 122.312 122.802C122.38 122.748 122.447 122.694 122.502 122.639C122.531 122.703 122.57 122.768 122.609 122.833C122.692 122.972 122.776 123.112 122.762 123.241C122.576 124.999 122.362 126.755 122.139 128.509C122.056 129.162 121.953 129.815 121.85 130.468C121.637 131.822 121.423 133.175 121.387 134.534C121.337 136.472 121.448 138.415 121.56 140.357C121.598 141.025 121.636 141.693 121.668 142.361C121.714 143.341 121.778 144.319 121.842 145.297L121.842 145.298L121.842 145.298L121.842 145.298L121.842 145.298L121.842 145.299L121.842 145.299L121.842 145.299L121.842 145.299L121.842 145.3L121.842 145.3L121.842 145.3L121.842 145.3L121.842 145.301L121.842 145.303C121.891 146.04 121.939 146.778 121.979 147.516C122 147.887 122.02 148.258 122.041 148.629L122.064 149.035L122.064 149.037L122.064 149.039L122.064 149.04L122.064 149.04L122.064 149.041L122.064 149.042L122.064 149.042L122.064 149.043L122.064 149.043L122.064 149.044L122.064 149.045L122.064 149.045L122.064 149.046L122.064 149.046C122.204 151.554 122.343 154.062 122.451 156.571C122.491 157.492 122.506 158.414 122.521 159.337C122.541 160.543 122.56 161.748 122.635 162.951C122.723 164.376 122.874 165.797 123.024 167.218L123.024 167.22C123.103 167.966 123.182 168.712 123.252 169.458C123.371 170.734 123.481 172.011 123.568 173.29C123.582 173.488 123.596 173.685 123.611 173.883C123.676 174.765 123.741 175.648 123.717 176.528C123.693 177.431 123.64 178.334 123.586 179.236C123.517 180.42 123.447 181.603 123.442 182.786C123.439 183.396 123.548 184.005 123.657 184.615C123.743 185.095 123.829 185.576 123.861 186.059C123.897 186.614 123.849 187.174 123.798 187.76L123.798 187.76C123.773 188.044 123.748 188.333 123.732 188.631ZM65.2243 191.654C65.8925 194.6 67.7232 196.784 70.0709 198.596L70.2661 198.677C71.2896 199.103 72.2743 199.513 73.2789 199.86C73.4713 199.926 73.6966 199.89 73.9219 199.854C74.0253 199.838 74.1288 199.821 74.229 199.814C74.171 199.751 74.1134 199.687 74.0558 199.623L74.0557 199.623C73.8867 199.436 73.7178 199.248 73.5401 199.07C73.5172 199.047 73.4732 199.051 73.4267 199.054C73.3867 199.058 73.345 199.061 73.3134 199.048C73.0509 198.938 72.7756 198.845 72.5001 198.751C71.8697 198.537 71.2386 198.323 70.7594 197.916C69.5903 196.923 68.5242 195.755 67.5917 194.517C66.6702 193.294 66.2004 191.824 66.2872 190.212C66.3186 189.628 66.3354 189.044 66.3522 188.459C66.376 187.633 66.3998 186.807 66.4647 185.985C66.514 185.36 66.6076 184.739 66.7013 184.117C66.7839 183.569 66.8666 183.021 66.9188 182.47C67.0331 181.264 67.1045 180.053 67.1758 178.843C67.1928 178.554 67.2099 178.264 67.2275 177.975C67.2342 177.865 67.1649 177.712 67.0816 177.646C67.0131 177.592 66.8195 177.591 66.7715 177.648C66.7381 177.688 66.7021 177.728 66.6655 177.77C66.5056 177.95 66.3344 178.143 66.3103 178.348C66.2096 179.203 66.1396 180.062 66.0696 180.921L66.0696 180.921C66.0378 181.311 66.0059 181.702 65.9712 182.092C65.9608 182.21 65.9374 182.326 65.914 182.442C65.8962 182.53 65.8784 182.618 65.8663 182.707C65.7987 183.202 65.7258 183.696 65.6529 184.19L65.6529 184.191C65.4765 185.386 65.3002 186.582 65.1995 187.784C65.1918 187.875 65.184 187.967 65.1761 188.059L65.1761 188.059L65.176 188.06C65.0732 189.262 64.966 190.515 65.2243 191.654ZM106.587 109.449C107.018 109.137 107.452 108.832 107.885 108.528C109.61 107.318 111.312 106.123 112.708 104.54C113.443 103.706 114.095 102.792 114.748 101.878L114.748 101.877C115.035 101.475 115.322 101.073 115.616 100.677C115.649 100.633 115.677 100.581 115.704 100.53C115.754 100.436 115.803 100.344 115.879 100.304C116.032 100.224 116.203 100.179 116.373 100.135C116.444 100.116 116.515 100.098 116.585 100.076C116.562 100.149 116.545 100.226 116.527 100.303C116.489 100.469 116.451 100.635 116.362 100.762C116.18 101.023 115.998 101.285 115.816 101.547L115.815 101.548C115.08 102.607 114.345 103.666 113.544 104.668C112.822 105.572 112.026 106.446 111.136 107.164C109.591 108.409 108.004 109.618 106.332 110.665C104.503 111.811 102.583 112.811 100.652 113.764C99.6952 114.235 98.652 114.174 97.7043 113.532C94.8395 111.593 92.0463 109.556 89.665 106.979C89.0062 106.267 88.3975 105.499 87.8216 104.712C87.7283 104.585 87.7406 104.374 87.753 104.163L87.753 104.163C87.7586 104.066 87.7643 103.969 87.7597 103.88C87.8452 103.896 87.9404 103.903 88.0356 103.91C88.2428 103.925 88.45 103.941 88.5569 104.056C88.8454 104.367 89.1094 104.704 89.3733 105.04C89.6792 105.43 89.985 105.819 90.3284 106.169C91.2145 107.072 92.1464 107.935 93.1196 108.735C94.2866 109.695 95.4868 110.611 96.6867 111.527L96.6868 111.527L96.687 111.527L96.6874 111.527C96.9538 111.73 97.2203 111.934 97.4863 112.138C97.6621 112.272 97.8514 112.388 98.0406 112.503L98.0407 112.503C98.2378 112.624 98.4348 112.744 98.6164 112.886C99.3741 113.477 100.027 113.089 100.626 112.734C100.774 112.646 100.919 112.56 101.062 112.491C102.481 111.807 103.853 111.018 105.246 110.217L105.246 110.216L105.246 110.216L105.247 110.216L105.247 110.216C105.691 109.96 106.137 109.703 106.587 109.449ZM167.759 101.106L167.76 101.105L167.764 101.099C167.998 100.802 168.235 100.499 168.482 100.187C168.651 100.167 168.813 100.165 168.969 100.163H168.969C169.141 100.16 169.307 100.158 169.469 100.132C169.605 100.111 169.733 100.03 169.861 99.9491C169.918 99.9128 169.975 99.8766 170.034 99.8457C169.988 99.7901 169.945 99.7255 169.902 99.6609C169.809 99.5212 169.717 99.3815 169.591 99.333C168.409 98.8747 166.322 100.561 166.384 101.916C166.39 102.042 166.46 102.166 166.531 102.289C166.563 102.346 166.596 102.403 166.622 102.461C166.663 102.419 166.705 102.378 166.747 102.337C166.838 102.248 166.929 102.159 167.008 102.06C167.258 101.745 167.506 101.429 167.759 101.106L167.759 101.106ZM108.497 78.3547C108.879 78.4488 109.221 78.5843 109.564 78.7198L109.564 78.7199C109.512 78.8101 109.465 78.9056 109.418 79.0011C109.317 79.207 109.216 79.413 109.066 79.5663C107.219 81.4457 104.97 82.5436 102.468 83.0891C102.165 83.1552 101.827 83.0686 101.497 82.984L101.497 82.9839L101.496 82.9837L101.495 82.9834C101.396 82.958 101.297 82.9328 101.201 82.9119C101.11 82.8925 100.974 82.6368 100.991 82.6187C101.026 82.5795 101.062 82.5364 101.099 82.4924L101.099 82.4924C101.233 82.3314 101.376 82.1597 101.536 82.1348C104.044 81.7445 106.147 80.547 107.965 78.7486C108.051 78.6636 108.152 78.5953 108.263 78.5199C108.337 78.4702 108.415 78.4174 108.497 78.3547ZM164.457 102.451C164.832 101.482 164.529 100.563 164.186 99.6078C164.095 99.4989 164.007 99.3924 163.921 99.2882L163.92 99.2875C163.671 98.9876 163.438 98.7058 163.193 98.4348C163.177 98.4172 162.88 98.6182 162.889 98.6406C163.013 98.9442 163.158 99.2394 163.315 99.5267C163.797 100.408 163.859 101.366 163.842 102.351C163.839 102.488 163.918 102.626 163.996 102.765C164.032 102.829 164.068 102.893 164.097 102.957C164.135 102.904 164.178 102.853 164.221 102.802C164.314 102.691 164.408 102.58 164.457 102.451ZM96.8448 45.9985L96.8449 45.9985C97.6027 46.403 98.3447 46.799 99.1322 46.9748L99.255 47.0023C100.433 47.2665 101.701 47.5508 102.885 46.8824C103.3 46.6481 103.69 46.3597 104.069 46.0639C104.299 45.8834 104.507 45.6594 104.688 45.4244C106.127 43.5592 107.19 43.8377 109.172 45.0555C111.707 46.6135 112.631 49.2729 113.524 51.9186C113.97 53.2403 114.25 54.6265 114.529 56.0053C114.567 56.1905 114.604 56.3755 114.642 56.5603C114.826 57.4611 114.904 58.39 114.972 59.3109C115.054 60.4033 115.092 61.4995 115.13 62.5949L115.137 62.7959C115.158 63.3956 115.169 63.9962 115.18 64.5967V64.5967V64.5967V64.5968V64.5968V64.5968V64.5969V64.5969C115.202 65.7661 115.224 66.9352 115.318 68.0979C115.463 69.8766 115.19 71.591 114.808 73.2916C114.369 75.25 112.936 76.1943 111.201 76.6343C110.47 76.8196 109.706 76.8732 108.945 76.9266L108.945 76.9266C108.682 76.9451 108.419 76.9635 108.158 76.9874C105.47 77.2327 102.799 77.5785 100.203 78.3786C99.3976 78.6268 98.6282 78.5126 97.953 78.046C96.5899 77.1041 95.0501 76.7597 93.4799 76.4958C90.5517 76.0036 87.7717 75.1732 85.6257 72.858C85.0592 72.2468 84.6958 71.5927 84.7323 70.6722C84.797 69.0398 84.5703 67.4332 84.3439 65.8284L84.3439 65.8283C84.2146 64.9118 84.0854 63.9957 84.0105 63.0758C83.7843 60.2944 83.8835 57.5001 84.7016 54.7298C85.614 51.64 87.0059 48.9105 89.2142 46.6825C89.8208 46.0705 90.5537 45.5946 91.2872 45.1182C91.6452 44.8858 92.0032 44.6533 92.3468 44.4048L92.4046 44.3631L92.4046 44.363C92.7804 44.0915 93.16 43.8172 93.4912 43.493C93.9956 42.9992 94.3017 43.2599 94.6166 43.7139C94.9924 44.2557 95.3832 44.7862 95.7993 45.351L95.7999 45.3519L95.8001 45.3522L95.9267 45.524C96.2378 45.6745 96.5425 45.8372 96.8447 45.9984L96.8447 45.9984L96.8447 45.9984L96.8448 45.9985L96.8448 45.9985L96.8448 45.9985ZM112.069 50.2147L112.069 50.2144C111.978 49.9902 111.887 49.7661 111.799 49.5405C110.961 47.3907 109.481 45.8822 107.455 44.9749C107.14 44.834 106.592 44.9158 106.308 45.1243C106.072 45.2979 105.906 45.5706 105.739 45.8457C105.644 46.0012 105.549 46.1575 105.44 46.297C104.471 47.5433 103.334 48.5177 101.675 48.364C100.648 48.269 99.6107 48.132 98.6166 47.8611C97.0585 47.4366 95.6397 46.6748 94.6317 45.3166L94.5334 45.1838C93.8712 44.2877 93.863 44.2766 92.9603 44.9064C92.6628 45.1139 92.3569 45.3128 92.0508 45.5118L92.0507 45.5119C91.2878 46.0079 90.5239 46.5046 89.8867 47.1377C87.7321 49.2786 86.3171 51.852 85.4681 54.8982C84.7029 57.6437 84.6567 60.3659 84.7822 63.1187C84.8841 65.3542 85.2264 67.584 85.5681 69.7986L85.5906 69.9452C85.7402 70.9262 85.894 71.9351 86.7177 72.6944C88.2779 74.1327 90.1267 74.9065 92.1144 75.3183C92.3833 75.374 92.6525 75.4277 92.9214 75.4814L92.922 75.4815L92.9225 75.4816L92.923 75.4817L92.9236 75.4818C94.8192 75.8599 96.7032 76.2358 98.4105 77.2958C98.8089 77.5432 99.4117 77.5977 99.887 77.5204C100.957 77.3464 102.022 77.1437 103.088 76.941L103.088 76.9409L103.088 76.9408C104.192 76.7308 105.296 76.5208 106.405 76.3427C107.033 76.2417 107.67 76.1873 108.306 76.1329L108.306 76.1329L108.306 76.1329L108.307 76.1329L108.307 76.1329L108.307 76.1328L108.307 76.1328L108.307 76.1328H108.307C109.176 76.0585 110.044 75.9843 110.888 75.792C112.05 75.527 113.357 75.1173 113.734 73.7032C114.1 72.3288 114.416 70.8998 114.467 69.4838C114.536 67.5263 114.457 65.5616 114.377 63.5996C114.363 63.2427 114.348 62.886 114.335 62.5294C114.307 61.8028 114.249 61.0774 114.19 60.352C114.125 59.5534 114.06 58.7549 114.037 57.955C113.965 55.4625 113.146 53.1774 112.295 50.803L112.196 50.5272C112.154 50.4229 112.112 50.3188 112.069 50.2147ZM110.574 58.7755C109.227 57.6815 107.647 57.4575 105.911 57.6391C105.75 57.6691 105.613 57.7026 105.486 57.7335C105.38 57.7595 105.281 57.7837 105.181 57.8026C103.54 58.1126 102.134 58.8087 101.167 60.3055C101.066 60.4625 100.687 60.5422 100.478 60.4877C99.5559 60.2474 98.7001 60.2272 97.984 61.0021C97.8952 61.0981 97.8128 61.2003 97.7304 61.3026C97.6925 61.3496 97.6545 61.3967 97.616 61.4431C97.6014 61.3746 97.5814 61.3056 97.5613 61.2366C97.518 61.0876 97.4747 60.9387 97.4867 60.7947C97.6299 59.0824 96.8409 58.0162 95.4041 57.2963C94.0593 56.6225 92.6469 56.4787 91.1943 56.4806C88.9817 56.4834 87.0973 57.9727 86.3195 60.1508C85.8445 61.4808 85.9733 62.7741 86.3829 64.0027C86.7827 65.2019 87.2372 66.4838 88.4255 67.1487C88.5758 67.2328 88.7271 67.321 88.8793 67.4098L88.8796 67.41L88.8798 67.4101C89.5777 67.8171 90.2963 68.2362 91.0392 68.3285L91.1063 68.3369L91.2401 68.3539C92.3422 68.4943 93.5242 68.6449 94.5653 67.8717C96.1389 66.703 96.9972 65.051 97.4528 63.1763C97.6678 62.2917 98.102 61.7594 98.8608 61.4058C100.003 60.8737 100.719 61.3417 100.838 62.571C100.978 64.0088 101.282 65.4232 102.093 66.6549C103.043 68.098 104.332 68.9755 105.924 69.5858C107.843 70.3214 109.222 69.8731 110.613 68.7037C113.199 66.5305 113.456 61.1163 110.574 58.7755ZM104.569 58.8406C105.653 58.5044 106.831 58.3957 107.98 58.7141C109.284 58.8162 110.141 59.5807 110.773 60.5093C111.407 61.4414 111.983 62.498 111.942 63.7061C111.899 65.002 111.43 66.1689 110.647 67.1884C109.974 68.0633 109.099 68.6223 108.06 68.8621C107.842 68.9123 107.597 68.8468 107.356 68.7823C107.27 68.7592 107.184 68.7362 107.1 68.7187C104.335 68.1425 102.484 66.5688 101.934 63.5847C101.898 63.3945 101.854 63.2058 101.81 63.0177L101.809 63.0174C101.631 62.2608 101.454 61.5125 101.901 60.7041C102.512 59.5979 103.548 59.1571 104.569 58.8406ZM96.5211 60.7898C96.6934 62.3103 96.2201 63.6775 95.5687 64.9991C95.4378 65.1799 95.3253 65.3521 95.219 65.5147L95.219 65.5148C95.0634 65.7528 94.9212 65.9705 94.7541 66.165C93.834 67.2363 92.7342 67.573 91.3387 67.2669C90.3606 67.0523 89.4904 66.7892 88.6771 66.1424C87.6973 65.3632 87.2771 64.2879 86.996 63.1563C86.5481 61.3535 87.1583 59.8403 88.4015 58.5458C89.4053 57.5006 90.6749 57.3706 91.9432 57.5031C93.1643 57.6306 94.3565 57.9456 95.4339 58.6966C96.2062 59.2349 96.4258 59.9484 96.5211 60.7898ZM96.2052 54.4966C97.0147 54.544 97.6868 54.4551 98.2996 53.9407C98.4118 53.8465 98.6473 53.911 98.8829 53.9754C98.991 54.005 99.0991 54.0346 99.1953 54.0488C99.1499 54.1032 99.1061 54.1594 99.0623 54.2155L99.0622 54.2155C98.9675 54.3369 98.8728 54.4582 98.7626 54.5618C97.7372 55.5252 96.6087 55.4579 95.3605 55.0565C94.2695 54.7057 93.1238 54.4349 91.9883 54.3617C90.2832 54.2516 88.8249 54.9412 87.6845 56.3079C87.5861 56.4259 87.4336 56.4953 87.2812 56.5647C87.2105 56.5968 87.1399 56.629 87.0746 56.666C87.0955 56.5703 87.1072 56.4666 87.1189 56.3629C87.1441 56.1396 87.1693 55.9163 87.2857 55.7733C89.1885 53.4348 91.6663 53.338 94.2895 53.9213C94.657 54.003 95.0171 54.1208 95.3925 54.2437L95.3925 54.2437C95.6535 54.3291 95.9218 54.4169 96.2052 54.4966ZM108.764 55.0882C107.214 54.8412 105.671 54.8691 104.28 55.9438C104.077 56.0998 103.877 56.2491 103.68 56.3959L103.68 56.3959C103.285 56.6901 102.904 56.9741 102.542 57.2817C102.46 57.3511 102.447 57.5086 102.435 57.6662L102.435 57.6663C102.429 57.7388 102.423 57.8112 102.411 57.8751C102.465 57.8678 102.522 57.8654 102.579 57.8629C102.706 57.8576 102.832 57.8522 102.929 57.7939C103.206 57.6267 103.458 57.41 103.707 57.196L103.719 57.186C105.262 55.8592 106.977 55.3236 108.953 55.9181C109.64 56.1247 110.333 56.3149 111.032 56.4665C111.146 56.4911 111.277 56.4283 111.408 56.3656C111.468 56.3368 111.528 56.3079 111.587 56.2876C111.542 56.2384 111.501 56.1812 111.459 56.1241C111.368 55.9999 111.277 55.8758 111.159 55.8336C111.01 55.78 110.86 55.7246 110.71 55.6692L110.71 55.6691L110.709 55.6688L110.709 55.6688L110.709 55.6687C110.069 55.4319 109.425 55.1936 108.764 55.0882ZM100.382 72.4005C99.4491 72.4694 98.5553 72.526 97.6639 72.4994C97.5457 72.4959 97.4318 72.3403 97.3179 72.1848L97.3178 72.1847C97.2653 72.113 97.2128 72.0412 97.1598 71.9844C97.2284 71.9543 97.2966 71.9171 97.3649 71.8799C97.5136 71.7988 97.6623 71.7177 97.8142 71.7105C98.6352 71.6717 99.4586 71.6746 100.281 71.6841C100.477 71.6864 100.673 71.7191 100.869 71.7518C100.959 71.7668 101.048 71.7817 101.138 71.7938L101.137 71.794L101.137 71.794C100.899 71.9824 100.66 72.1708 100.382 72.4005ZM105.313 60.4932C104.747 61.1475 104.809 62.5252 105.473 63.2211C106.821 63.2625 107.63 61.8577 107.002 60.6755C106.654 60.0192 105.803 59.9274 105.313 60.4932ZM93.3411 59.6238C93.6249 60.495 93.4393 61.3972 92.8067 61.8833C92.6228 62.0246 92.1568 62.0687 92.027 61.937C91.2957 61.195 91.1731 59.9393 92.2196 59.2874C92.6962 58.9905 93.0362 59.1281 93.3411 59.6238ZM144.898 55.6408C145.31 56.2829 145.724 56.9296 146.285 57.483C146.322 58.7372 146.333 59.907 146.023 61.0506C145.968 61.2557 146.009 61.4488 146.051 61.6437C146.085 61.8027 146.305 61.9171 146.434 61.8409C146.601 61.7423 146.765 61.6377 146.921 61.5227C147.027 61.4454 147.131 61.367 147.235 61.2887C147.679 60.956 148.122 60.6235 148.617 60.3734C148.678 60.343 148.738 60.3129 148.799 60.2828C149.029 60.1682 149.259 60.0535 149.478 59.9196C149.721 59.7714 149.956 59.7506 150.216 59.8428C151.113 60.1609 152.038 60.3579 152.963 60.5548C153.11 60.5862 153.258 60.6177 153.405 60.6496C153.45 60.6592 153.494 60.6695 153.538 60.6799C153.651 60.7062 153.764 60.7325 153.878 60.7472C154.246 60.795 154.615 60.8319 154.984 60.8689C155.575 60.9281 156.166 60.9872 156.752 61.0907C156.878 61.1132 157.012 61.1226 157.138 61.1053C157.435 61.0642 157.735 61.0364 158.034 61.0086C158.633 60.9531 159.231 60.8976 159.815 60.7359C160.215 60.6252 160.611 60.5014 161.008 60.3775C161.166 60.328 161.324 60.2786 161.483 60.2299C161.557 60.2074 161.63 60.1848 161.704 60.1623C162.124 60.0336 162.543 59.9049 162.962 59.7724C163.084 59.7338 163.205 59.6864 163.319 59.627C163.418 59.5756 163.517 59.5244 163.616 59.4733C164.436 59.0483 165.256 58.624 166 58.0486C166.094 57.9761 166.189 57.9057 166.283 57.8354C166.58 57.6153 166.876 57.3959 167.13 57.1164C167.284 56.9471 167.455 56.7941 167.625 56.6422L167.627 56.6402C168.12 56.2 168.516 55.6735 168.882 55.1212C169.339 54.4301 169.526 53.631 169.712 52.8329L169.723 52.7869C169.701 52.5031 169.753 52.2297 169.806 51.9562C169.829 51.8368 169.852 51.7174 169.868 51.5971C170.102 49.9182 169.894 48.3303 168.931 46.9042C168.813 46.7301 168.716 46.541 168.619 46.352C168.579 46.2748 168.54 46.1976 168.498 46.1215C168.262 45.6816 167.997 45.2632 167.65 44.9062C166.894 44.1263 166.094 43.4083 165.152 42.8676C164.484 42.4838 163.787 42.1711 163.088 41.8577C162.931 41.7869 162.773 41.7161 162.615 41.6444C161.391 41.0876 160.116 40.7779 158.797 40.6386C158.391 40.5957 157.983 40.5736 157.574 40.5515C157.371 40.5405 157.168 40.5295 156.966 40.516C155.84 40.4404 154.712 40.4145 153.586 40.5081C152.624 40.5879 151.663 40.6831 150.702 40.7782C150.511 40.7972 150.319 40.8162 150.127 40.8351C150.033 40.8443 149.939 40.8822 149.853 40.9246C149.402 41.1472 148.937 41.3332 148.472 41.5192C148.218 41.6207 147.964 41.7222 147.713 41.8296C146.619 42.2973 145.679 42.9684 145.013 44.0109C144.917 44.1617 144.811 44.3059 144.705 44.4501C144.616 44.5721 144.526 44.6942 144.443 44.8202C143.836 45.7344 143.318 46.6957 143.105 47.7995C143.063 48.0159 143.039 48.2359 143.014 48.4559C142.997 48.6014 142.981 48.7469 142.96 48.8915C142.852 49.6221 142.846 50.3401 142.988 51.0767C143.231 52.3382 143.73 53.4919 144.242 54.6459C144.255 54.6759 144.274 54.7041 144.293 54.7309C144.505 55.026 144.701 55.3329 144.898 55.6408ZM146.879 60.3651C146.874 60.3656 146.869 60.3661 146.864 60.3668C146.861 60.3728 146.869 60.3813 146.887 60.392C146.884 60.3831 146.882 60.3741 146.879 60.3651ZM146.958 60.3622C146.932 60.3625 146.905 60.3628 146.879 60.3651C146.825 60.1748 146.855 59.9824 146.906 59.7995C147.032 59.3521 147.087 58.8928 147.142 58.4335C147.175 58.1624 147.207 57.8913 147.254 57.6226C147.283 57.4536 147.247 57.281 147.074 57.1979C146.525 56.9344 146.167 56.456 145.824 55.9728C145.538 55.5699 145.266 55.149 145.044 54.7056C144.837 54.2932 144.684 53.8477 144.543 53.4043C144.362 52.8327 144.206 52.2519 144.061 51.6692C143.93 51.1478 143.917 50.6096 143.922 50.0734C143.923 49.9571 143.93 49.8406 143.938 49.7242C143.948 49.5728 143.958 49.4214 143.953 49.2704C143.901 47.6228 144.538 46.2131 145.352 44.8654C145.863 44.0185 146.597 43.3998 147.434 42.9612C148.408 42.4508 149.421 42.0034 150.498 41.7645C151.505 41.5411 152.519 41.3559 153.553 41.3199C153.936 41.3066 154.314 41.2851 154.692 41.1499C154.953 41.0565 155.252 41.059 155.54 41.0613C155.576 41.0616 155.611 41.0619 155.647 41.062C156.032 41.0633 156.42 41.0901 156.803 41.1344C156.837 41.1382 156.87 41.1421 156.904 41.146C157.286 41.1904 157.667 41.2347 158.054 41.2399C158.311 41.2436 158.569 41.3021 158.824 41.3597C158.853 41.3663 158.882 41.3728 158.911 41.3793C159.586 41.5305 160.241 41.7524 160.896 41.9744C161.312 42.1152 161.727 42.256 162.148 42.3788C162.389 42.5011 162.63 42.6228 162.871 42.7446C163.41 43.0171 163.95 43.2896 164.487 43.5679C165.533 44.1102 166.366 44.9397 167.197 45.7682L167.285 45.856C167.858 46.4264 168.198 47.1545 168.452 47.9142C168.693 48.6394 168.861 49.3883 168.912 50.165C168.996 51.4594 168.782 52.6905 168.341 53.8995C167.881 55.1588 167.139 56.2044 166.114 56.9906C164.791 58.0062 163.351 58.8285 161.779 59.3669C161.108 59.5967 160.438 59.8258 159.742 59.9768C158.692 60.2043 157.633 60.2236 156.57 60.2353C156.527 60.2357 156.483 60.2336 156.44 60.2315C156.387 60.2289 156.333 60.2263 156.28 60.2284C154.349 60.3033 152.516 59.8093 150.702 59.1966C150.529 59.138 150.354 59.0859 150.178 59.0337C150.076 59.0031 149.973 58.9725 149.871 58.9407C149.672 58.8787 149.486 58.9135 149.318 59.031C148.994 59.258 148.647 59.443 148.299 59.6281C147.902 59.8397 147.505 60.0514 147.142 60.326C147.096 60.3605 147.027 60.3613 146.958 60.3622Z" fill="#00160A"/>
<path fill-rule="evenodd" clip-rule="evenodd" d="M123.899 113.389C124.038 113.262 124.18 113.133 124.328 113.005C124.427 112.87 124.528 112.741 124.626 112.615C124.866 112.309 125.093 112.019 125.252 111.693C125.646 110.884 125.436 110.593 124.605 110.205C124.226 110.028 123.878 109.781 123.53 109.534L123.53 109.534L123.529 109.533C123.301 109.371 123.073 109.209 122.835 109.066L122.782 109.034C122.46 108.84 122.109 108.629 121.759 108.599C119.927 108.442 118.356 110.955 119.086 112.775C119.841 114.657 121.345 115.226 122.919 114.194C123.264 113.968 123.574 113.685 123.899 113.389ZM119.751 112.009C119.702 111.375 119.786 110.794 120.231 110.317C120.346 110.226 120.443 110.16 120.529 110.102C120.612 110.045 120.683 109.997 120.748 109.94C121.519 109.273 122.013 109.317 122.78 109.964C123.233 110.347 123.774 110.644 124.315 110.878C124.731 111.058 124.774 111.304 124.518 111.56C124.355 111.722 124.194 111.889 124.033 112.057L124.033 112.057L124.032 112.058C123.464 112.649 122.89 113.245 122.216 113.652C121.19 114.272 119.849 113.283 119.751 112.009ZM73.1337 113.211L73.2514 113.103C73.9108 112.494 74.5434 111.911 75.2508 111.452C76.0365 110.942 76.9294 111.16 77.6204 111.832C78.6828 112.865 79.3876 112.745 80.0807 111.864C80.1475 111.779 80.2209 111.695 80.3058 111.631C80.3981 111.562 80.4894 111.486 80.5813 111.41C80.993 111.067 81.4163 110.715 81.9818 110.941C82.6791 111.22 82.9593 111.878 83.1794 112.628C83.6807 114.336 82.6615 115.787 81.3851 116.543C79.9187 117.412 78.3391 117.751 76.7186 118.003C75.5544 118.184 73.3114 117.132 72.8068 116.276C72.1555 115.171 72.5528 114.231 73.1337 113.211ZM79.9756 116.271C80.0437 116.236 80.112 116.201 80.1802 116.166C81.38 115.549 82.5729 114.936 82.3712 113.142C82.3605 113.047 82.3554 112.948 82.3503 112.849C82.3272 112.398 82.3039 111.943 81.7604 111.886C81.4145 111.849 80.9583 112.15 80.6718 112.431C79.4851 113.595 78.5007 113.705 77.2563 112.485C76.8768 112.113 76.4516 111.727 75.7299 112.024C74.4734 112.541 73.9147 113.617 73.4858 114.767C73.2903 115.291 73.3408 116.028 74.097 116.275C74.3214 116.349 74.5469 116.437 74.7727 116.525C75.3498 116.75 75.9297 116.976 76.5034 116.965C77.4104 116.947 78.3135 116.708 79.2579 116.458C79.4943 116.395 79.7333 116.332 79.9756 116.271ZM106.667 158.488C106.635 158.555 106.604 158.622 106.572 158.69C106.056 159.795 105.557 160.863 104.397 161.334C103.19 161.823 101.24 161.985 100.291 160.731C99.7288 159.989 99.6916 159.003 100.322 158.298C100.521 158.075 100.733 157.859 100.944 157.642C101.481 157.093 102.019 156.542 102.363 155.883C102.692 155.253 102.839 154.521 102.986 153.789C103.054 153.451 103.122 153.113 103.208 152.785C103.48 151.741 103.766 150.683 104.752 150.103C105.463 149.686 106.028 149.957 106.559 150.63C107.524 151.852 107.431 153.232 107.34 154.599V154.599V154.599V154.599V154.599V154.599V154.599V154.599V154.599V154.599V154.6V154.6V154.6V154.6C107.317 154.954 107.293 155.307 107.288 155.656C107.278 156.336 107.083 157.014 106.883 157.707C106.808 157.965 106.733 158.225 106.667 158.488ZM104.272 153.467L104.272 153.468C104.101 154.593 103.929 155.727 103.195 156.633C102.638 157.319 102.01 157.955 101.349 158.535C100.725 159.082 100.618 159.726 101.179 160.309C102.168 161.336 104.564 160.869 105.262 159.465C105.677 158.631 106.03 157.752 106.308 156.859C106.824 155.206 106.505 153.59 105.919 152.023C105.83 151.785 105.58 151.474 105.386 151.459C105.203 151.444 104.948 151.743 104.808 151.962C104.606 152.277 104.479 152.644 104.32 153.154C104.304 153.257 104.288 153.359 104.273 153.462L104.272 153.463L104.272 153.464L104.272 153.465L104.272 153.467ZM104.427 118.642C103.697 118.097 103.004 118.089 102.255 118.267C101.029 118.559 99.7042 120.043 99.7042 121.563C99.7042 123.093 100.359 124.212 101.566 124.934C102.731 125.631 103.957 126.117 105.402 125.979C107.094 125.819 108.373 125.13 109.065 123.522C109.209 123.188 109.196 122.78 109.182 122.372C109.176 122.185 109.17 121.998 109.179 121.818C109.03 121.819 108.877 121.807 108.723 121.795C108.379 121.769 108.034 121.743 107.74 121.858C107.193 122.072 106.901 121.875 106.717 121.451C106.209 120.278 105.44 119.399 104.427 118.642ZM101.857 119.511C102.562 119.166 103.861 118.782 104.632 119.511C105.402 120.24 105.694 120.924 105.888 121.391C106.355 122.519 107.012 122.89 108.122 122.579C108.227 122.55 108.339 122.55 108.452 122.55C108.503 122.55 108.555 122.549 108.607 122.547C108.591 122.6 108.577 122.654 108.563 122.708C108.532 122.825 108.502 122.941 108.455 123.05C107.359 125.632 103.834 125.247 102.187 124.157C101.182 123.492 100.611 122.625 100.659 121.361C100.693 120.486 101.132 119.866 101.857 119.511ZM108.514 140.475L108.514 140.475C108.119 140.864 107.737 141.239 107.286 141.46C106.3 141.944 105.248 141.695 104.289 141.205C102.67 140.377 101.671 139.119 101.772 137.128C101.843 135.709 102.658 134.881 103.759 134.199C104.687 133.624 105.594 133.503 106.564 133.988C107.29 134.351 107.49 135.055 107.687 135.75C107.726 135.889 107.766 136.027 107.809 136.163C107.866 136.339 107.881 136.531 107.897 136.721C107.913 136.929 107.93 137.136 107.999 137.322C108.1 137.593 108.345 137.927 108.589 137.997C109.788 138.343 109.908 138.649 109.152 139.701C109.132 139.729 109.122 139.766 109.11 139.809C109.097 139.853 109.083 139.905 109.054 139.964C108.866 140.129 108.689 140.303 108.514 140.475ZM107.502 140.088C107.537 140.069 107.573 140.053 107.608 140.036C107.686 140 107.763 139.965 107.827 139.911C108.585 139.267 108.582 139.265 107.853 138.608L107.815 138.574C107.602 138.382 107.429 138.078 107.356 137.792C107.281 137.498 107.229 137.194 107.177 136.892L107.177 136.892C107.093 136.401 107.01 135.912 106.827 135.466C106.665 135.069 106.14 134.667 105.722 134.585C104.866 134.417 102.979 136.004 102.903 136.91C102.801 138.132 103.154 139.172 104.245 139.856C105.269 140.498 106.289 140.869 107.502 140.088ZM63.8167 124.657C65.5711 123.486 66.6943 121.932 66.9283 119.662C66.9283 119.461 66.9349 119.267 66.9413 119.078V119.078V119.078V119.078V119.078V119.078V119.078V119.078V119.078V119.078V119.078C66.9551 118.675 66.9679 118.298 66.913 117.931C66.7939 117.137 66.5421 116.364 65.4874 116.542C64.9714 116.629 64.4413 116.875 64.007 117.185C63.1086 117.825 62.8053 118.885 62.5169 119.893L62.491 119.984C62.0638 121.473 61.4008 122.522 59.7023 122.521C59.4062 122.52 58.9247 123.098 58.8492 123.478C58.6433 124.513 59.636 125.574 60.7031 125.617C61.8464 125.662 62.8482 125.304 63.8167 124.657ZM61.5556 124.723C61.4631 124.744 61.3707 124.764 61.2798 124.789C60.5115 124.878 60.1452 124.46 59.7919 124.057L59.7918 124.057C59.7641 124.025 59.7364 123.994 59.7086 123.963C59.6519 123.899 59.682 123.639 59.7527 123.586L59.804 123.547C60.0269 123.378 60.2692 123.194 60.5249 123.149C61.8171 122.921 62.5321 122.139 62.979 120.869C63.3554 119.799 63.9213 118.783 64.5301 117.831C64.7247 117.527 65.3335 117.382 65.7354 117.412C65.8924 117.424 66.1076 118.117 66.116 118.503C66.1819 121.558 64.5486 123.461 62.1378 124.55C61.9543 124.633 61.755 124.678 61.5556 124.723L61.5556 124.723ZM64.9792 132.025C65.2926 131.039 65.9746 130.408 66.6473 129.785C66.8852 129.565 67.122 129.346 67.3409 129.112C67.7751 128.649 68.7755 129.256 68.9972 130.041C69.0897 130.368 69.1801 130.697 69.2704 131.026C69.4979 131.853 69.7254 132.681 69.9895 133.496C70.2185 134.203 70.1238 134.756 69.6365 135.309C69.2674 135.728 68.9337 136.207 68.6906 136.714C68.0928 137.962 67.2132 138.272 65.8789 137.187C64.1165 135.753 64.3509 133.951 64.9792 132.025ZM69.1559 133.803L68.8591 133.031C68.5865 132.322 68.314 131.612 68.0429 130.903C67.9873 130.757 67.9365 130.61 67.8857 130.462C67.8623 130.394 67.8389 130.327 67.8151 130.259C67.7464 130.293 67.6754 130.324 67.6043 130.355L67.6043 130.355L67.6042 130.355L67.6042 130.355C67.4501 130.422 67.2961 130.489 67.165 130.589C66.1933 131.329 65.7338 132.431 65.5302 133.582C65.368 134.499 65.3292 135.544 66.0296 136.303C66.3511 136.651 66.8639 136.859 67.3264 136.98C67.3972 136.998 67.5237 136.769 67.658 136.526C67.7341 136.388 67.8127 136.246 67.885 136.142C68.0076 135.965 68.1348 135.791 68.262 135.618C68.4709 135.333 68.6798 135.048 68.8681 134.749C68.9965 134.545 69.0511 134.29 69.128 133.932L69.1559 133.803ZM87.0848 129C85.4822 128.37 83.8857 128.751 83.7943 130.909C83.8911 131.14 83.9805 131.371 84.0686 131.599C84.3187 132.245 84.5588 132.866 84.9291 133.387C86.2653 135.266 87.9557 135.831 89.8353 135.048C91.0305 134.55 91.0358 133.413 90.2356 132.7C89.4836 132.03 88.8362 131.275 88.4381 130.26C88.2294 129.728 87.6242 129.212 87.0848 129ZM88.6801 134.231C87.816 134.395 86.9459 134.559 86.2606 133.72C85.4089 132.849 84.8204 131.965 84.7446 130.792C84.7141 130.32 84.8935 130.064 85.3182 129.889C85.9145 129.642 87.2868 129.943 87.4191 130.555C87.6066 131.423 88.1007 132.051 88.5953 132.68L88.5953 132.681L88.5953 132.681L88.5953 132.681L88.5953 132.681L88.5954 132.681L88.5954 132.681L88.5954 132.681L88.5954 132.681L88.5955 132.681C88.7907 132.929 88.986 133.177 89.1625 133.441C89.2652 133.594 89.3746 133.872 89.3093 133.984C89.2293 134.121 88.974 134.176 88.785 134.211L88.6801 134.231ZM83.1579 151.087C83.1896 150.886 83.2086 150.684 83.2272 150.487C83.2706 150.028 83.3114 149.594 83.5071 149.259C84.0139 148.39 83.8955 147.642 83.48 146.837C83.4392 146.758 83.4169 146.669 83.3946 146.58C83.373 146.494 83.3515 146.408 83.3133 146.331C82.9756 145.648 83.134 144.979 83.7239 144.694C84.1387 144.494 84.8322 144.557 85.251 144.792C86.6121 145.555 87.2294 146.91 87.4393 148.437C87.6227 149.772 87.3349 151.068 86.8125 152.293C86.1387 153.872 84.7781 153.671 83.9103 152.735C83.6377 152.441 83.4913 152.02 83.3364 151.576C83.2802 151.414 83.2228 151.25 83.1579 151.087ZM85.8628 146.704C85.7816 146.619 85.7017 146.533 85.6219 146.447L85.6219 146.447C85.4254 146.234 85.2289 146.022 85.0111 145.837C84.9189 145.758 84.786 145.732 84.653 145.705C84.5927 145.693 84.5323 145.681 84.4757 145.665C84.4624 145.73 84.4388 145.802 84.4152 145.874C84.3643 146.029 84.3134 146.184 84.365 146.278C84.936 147.325 84.8059 148.29 84.2077 149.276C84.0815 149.484 84.0354 149.744 83.9891 150.005L83.9891 150.005C83.9663 150.133 83.9434 150.263 83.9107 150.386C83.733 151.056 84.2068 152.327 84.8101 152.52L84.8615 152.537C85.1832 152.642 85.6167 152.784 85.8725 152.225C86.6956 150.428 86.9688 148.653 85.8628 146.704ZM132.699 129.555C133.723 130.023 135.444 129.867 136.739 128.386C136.835 128.233 136.93 128.084 137.024 127.937L137.025 127.936C137.319 127.476 137.6 127.035 137.838 126.571C138.433 125.41 137.401 123.622 136.128 123.648C135.765 123.656 135.405 123.727 135.044 123.799C134.708 123.865 134.372 123.932 134.035 123.947C133.012 123.993 132.201 124.37 131.63 125.263C130.642 126.806 131.013 128.785 132.699 129.555ZM134.321 125.122L134.321 125.122C134.371 125.121 134.422 125.12 134.472 125.12C134.592 125.099 134.706 125.084 134.813 125.071C135.105 125.035 135.342 125.005 135.475 124.868C135.911 124.417 136.29 124.626 136.626 124.9C136.989 125.197 137.19 125.561 137.015 126.14C136.603 127.506 135.86 128.513 134.5 128.876C133.739 129.08 133.026 128.884 132.498 128.198C132.021 127.579 131.948 126.923 132.3 126.221C132.656 125.511 133.154 125.031 133.995 125.117C134.103 125.128 134.212 125.125 134.321 125.122ZM114.622 127.063C115.626 126.373 116.583 126.33 117.494 127.112C117.752 127.333 117.98 127.617 118.152 127.916C118.228 128.047 118.273 128.202 118.318 128.356C118.376 128.553 118.433 128.749 118.554 128.888C119.093 129.506 118.756 130.06 118.315 130.287C117.202 130.859 116.028 131.326 114.842 131.71C114.217 131.913 113.383 131.145 113.231 130.411C112.898 128.801 113.526 127.739 114.622 127.063ZM117.367 129.337C117.29 129.228 117.214 129.118 117.137 129.008C116.952 128.741 116.766 128.473 116.566 128.218L116.549 128.195C116.414 128.024 116.242 127.803 116.069 127.784C114.775 127.637 113.666 129.192 114.194 130.407C114.349 130.765 114.668 131.148 115.046 130.729C115.569 130.148 116.214 130.03 116.897 129.905L116.944 129.896C117.133 129.862 117.28 129.585 117.367 129.337ZM111.936 163.279L111.936 163.279C111.909 163.413 111.881 163.552 111.838 163.698C111.845 163.805 111.872 163.901 111.899 163.992C111.925 164.08 111.949 164.164 111.951 164.249C111.996 166.292 114.563 167.87 116.165 167.629C117.285 167.46 117.898 167.037 118.059 165.965C118.202 165.012 117.977 163.968 117.259 163.359C116.431 162.658 115.432 162.13 114.439 161.696C113.259 161.181 112.514 161.593 112.052 162.823C111.998 162.965 111.968 163.118 111.936 163.279L111.936 163.279ZM113.111 162.913C113.181 162.776 113.251 162.638 113.31 162.499C113.451 162.534 113.592 162.567 113.732 162.6L113.734 162.601L113.737 162.601L113.737 162.601C115.064 162.916 116.296 163.207 116.887 164.58C117.168 165.231 117.487 166.012 116.718 166.519C116.347 166.763 115.78 166.839 115.331 166.774C114.215 166.613 112.628 165.362 112.775 163.828C112.805 163.515 112.958 163.214 113.111 162.913ZM113.867 142.651C115.161 142.778 116.188 143.373 116.402 144.791C116.477 145.294 116.783 145.36 117.119 145.434C117.168 145.444 117.217 145.455 117.267 145.467C118.01 145.652 118.601 146.289 118.484 147.293C118.399 148.021 118.039 148.318 117.036 148.26C116.365 148.221 115.661 148.146 115.042 147.897C113.04 147.092 112.466 145.379 112.607 143.567C112.66 142.886 113.144 142.609 113.867 142.651ZM116.81 146.29C115.952 146.346 115.542 145.812 115.475 145.033C115.404 144.211 114.838 143.948 114.279 143.689L114.215 143.659C113.816 143.473 113.347 143.956 113.412 144.412C113.657 146.114 115.522 147.592 117.194 147.459C117.811 147.409 117.733 147.078 117.51 146.741C117.437 146.63 117.304 146.562 117.146 146.482C117.041 146.429 116.926 146.37 116.81 146.29ZM97.8181 174.083V174.083C97.8209 173.606 97.8235 173.157 98.0188 172.832C98.4953 172.042 99.0697 171.315 99.6441 170.588L99.6442 170.588L99.6442 170.588C99.8781 170.292 100.112 169.996 100.339 169.696C100.73 169.18 101.337 168.88 101.831 169.16C102.334 169.443 102.821 170.021 103.013 170.581C103.468 171.914 102.894 173.059 102.035 174.037C101.792 174.314 101.516 174.56 101.24 174.806L101.239 174.806C101.022 175 100.804 175.194 100.602 175.403C99.4802 176.566 98.4804 176.024 97.7963 174.738C97.8155 174.52 97.8168 174.299 97.8181 174.083ZM100.581 174.407C101.727 173.624 102.467 172.607 102.418 171.097C102.401 170.569 102.211 170.217 101.751 169.994C101.267 169.76 100.937 170.075 100.788 170.415C100.412 171.274 99.8751 172.007 99.3369 172.742L99.3368 172.742C99.1506 172.997 98.9643 173.251 98.7845 173.511C98.6014 173.775 98.7145 174.414 98.8995 174.761C99.1149 175.165 99.5461 175.097 99.9103 174.787C99.9992 174.711 100.107 174.659 100.23 174.598C100.336 174.547 100.453 174.489 100.581 174.407ZM93.9577 164.86C94.4536 163.665 94.5285 162.383 94.256 161.052C94.2333 161.028 94.2158 161.011 94.2021 160.998C94.1805 160.977 94.1684 160.965 94.1608 160.951C93.6111 159.934 93.0358 159.479 92.3899 159.702C91.5723 159.983 91.2675 160.619 91.2385 161.542C91.2178 162.2 90.9665 162.781 90.1152 163.039C88.8516 163.423 88.9427 164.6 89.7222 165.237C90.0199 165.48 90.3987 165.621 90.7736 165.76C90.8915 165.804 91.009 165.848 91.1235 165.895C91.8405 166.187 93.6039 165.713 93.9577 164.86ZM93.402 161.59C93.4339 161.646 93.4658 161.702 93.5002 161.754C93.5002 162.051 93.5186 162.336 93.5363 162.609C93.5733 163.181 93.6068 163.701 93.4611 164.158C93.0875 165.332 90.8678 165.541 90.1598 164.525C90.0841 164.416 90.2949 163.885 90.44 163.85C91.6135 163.566 92.0492 162.776 92.0894 161.597C92.0981 161.341 92.3346 161.035 92.5506 160.876C92.6317 160.816 92.974 161.083 93.1576 161.248C93.2584 161.339 93.3302 161.465 93.402 161.59Z" fill="#2B74B9"/>
</svg>
