<svg width="81" height="58" viewBox="0 0 81 58" fill="none" xmlns="http://www.w3.org/2000/svg">
<path opacity="0.03" d="M12.7359 57.7152C4.25257 57.7152 -1.90356 49.5471 0.540482 41.4236C1.92261 36.8295 4.66845 32.3471 9.89023 29.6283C24.1798 22.1883 22.921 24.2283 29.6566 11.7261C36.3921 -0.776066 54.6477 -3.74192 64.2133 5.06469C77.7427 17.5206 68.6422 27.4436 77.204 36.0053C77.2932 36.0946 77.3812 36.1843 77.468 36.2744C85.204 44.3068 79.3826 57.7152 68.2309 57.7152H12.7359Z" fill="#292A2E"/>
<path d="M48.9482 13.6248V6.96094H17.1016V13.6247C17.1019 17.1092 18.2448 20.4976 20.3552 23.2703C22.4656 26.0431 25.427 28.0474 28.7855 28.9761C29.2785 29.1144 29.7127 29.4102 30.022 29.8183C30.3313 30.2263 30.4987 30.7243 30.4987 31.2364C30.4987 31.7484 30.3313 32.2464 30.022 32.6544C29.7127 33.0625 29.2785 33.3583 28.7855 33.4967C25.4269 34.4253 22.4654 36.4296 20.355 39.2025C18.2446 41.9755 17.1018 45.3639 17.1016 48.8485V55.5125H48.9482V48.8485C48.9478 45.364 47.8049 41.9757 45.6945 39.2029C43.5841 36.4301 40.6228 34.4258 37.2643 33.4972C36.7712 33.3588 36.3369 33.0631 36.0276 32.655C35.7183 32.247 35.5508 31.7489 35.5508 31.2369C35.5508 30.7248 35.7183 30.2268 36.0276 29.8187C36.3369 29.4106 36.7712 29.1149 37.2643 28.9766C40.6228 28.048 43.5842 26.0437 45.6946 23.2709C47.8049 20.4981 48.9479 17.1097 48.9482 13.6252" fill="#70B2E2"/>
<path opacity="0.8" d="M48.9482 13.6248V6.96094H17.1016V13.6247C17.1019 17.1092 18.2448 20.4976 20.3552 23.2703C22.4656 26.0431 25.427 28.0474 28.7855 28.9761C29.2785 29.1144 29.7127 29.4102 30.022 29.8183C30.3313 30.2263 30.4987 30.7243 30.4987 31.2364C30.4987 31.7484 30.3313 32.2464 30.022 32.6544C29.7127 33.0625 29.2785 33.3583 28.7855 33.4967C25.4269 34.4253 22.4654 36.4296 20.355 39.2025C18.2446 41.9755 17.1018 45.3639 17.1016 48.8485V55.5125H48.9482V48.8485C48.9478 45.364 47.8049 41.9757 45.6945 39.2029C43.5841 36.4301 40.6228 34.4258 37.2643 33.4972C36.7712 33.3588 36.3369 33.0631 36.0276 32.655C35.7183 32.247 35.5508 31.7489 35.5508 31.2369C35.5508 30.7248 35.7183 30.2268 36.0276 29.8187C36.3369 29.4106 36.7712 29.1149 37.2643 28.9766C40.6228 28.048 43.5842 26.0437 45.6946 23.2709C47.8049 20.4981 48.9479 17.1097 48.9482 13.6252" fill="white"/>
<path d="M49.0488 55.6131H17.001V48.8486C17.0065 45.3433 18.1586 41.936 20.2816 39.1466C22.4046 36.3573 25.3819 34.3391 28.7592 33.4C29.231 33.2675 29.6465 32.9845 29.9425 32.5939C30.2385 32.2033 30.3987 31.7267 30.3987 31.2367C30.3987 30.7466 30.2385 30.27 29.9425 29.8794C29.6465 29.4889 29.231 29.2058 28.7592 29.0733C25.382 28.1342 22.4047 26.116 20.2817 23.3267C18.1587 20.5373 17.0065 17.1301 17.001 13.6247V6.86035H49.0488V13.6248C49.0433 17.1301 47.8912 20.5373 45.7683 23.3267C43.6453 26.116 40.6682 28.1342 37.291 29.0733C36.8192 29.2058 36.4037 29.4889 36.1077 29.8794C35.8116 30.27 35.6514 30.7466 35.6514 31.2367C35.6514 31.7267 35.8116 32.2033 36.1077 32.5939C36.4037 32.9845 36.8192 33.2675 37.291 33.4C40.6682 34.3392 43.6453 36.3574 45.7682 39.1468C47.8912 41.9361 49.0433 45.3433 49.0488 48.8486V55.6131ZM17.2026 55.4119H48.8476V48.8486C48.8422 45.3874 47.7045 42.0229 45.6083 39.2686C43.5121 36.5143 40.5723 34.5214 37.2376 33.594C36.7233 33.4498 36.2702 33.1415 35.9475 32.7159C35.6247 32.2903 35.4501 31.7708 35.4501 31.2367C35.4501 30.7025 35.6247 30.1831 35.9475 29.7575C36.2702 29.3319 36.7233 29.0235 37.2376 28.8794C40.5723 27.952 43.5121 25.9591 45.6083 23.2048C47.7045 20.4505 48.8422 17.0861 48.8476 13.6248V7.06155H17.2022V13.6247C17.2077 17.086 18.3454 20.4505 20.4417 23.2048C22.538 25.9591 25.4778 27.952 28.8126 28.8794C29.3268 29.0236 29.7798 29.332 30.1025 29.7576C30.4252 30.1831 30.5999 30.7026 30.5999 31.2367C30.5999 31.7708 30.4252 32.2902 30.1025 32.7158C29.7798 33.1414 29.3268 33.4498 28.8126 33.594C25.4778 34.5213 22.5379 36.5142 20.4416 39.2685C18.3453 42.0228 17.2076 45.3873 17.2022 48.8486L17.2026 55.4119Z" fill="#292A2E"/>
<path d="M50.7985 5.74808C50.7986 6.06508 50.6746 6.36952 50.4529 6.59615C50.2313 6.82278 49.9297 6.95357 49.6127 6.96049C49.6035 6.96109 49.5948 6.96109 49.5855 6.96109H16.5187C16.5093 6.96109 16.5007 6.96109 16.4914 6.96049C16.1722 6.95337 15.8686 6.82062 15.6466 6.59106C15.4246 6.3615 15.3022 6.05366 15.3057 5.73434C15.3093 5.41503 15.4387 5.11001 15.6658 4.8855C15.8929 4.66099 16.1994 4.5351 16.5187 4.53516H49.5851C49.7444 4.5351 49.9022 4.56644 50.0494 4.62737C50.1966 4.6883 50.3304 4.77763 50.443 4.89026C50.5557 5.0029 50.6451 5.13663 50.7061 5.28381C50.7671 5.431 50.7985 5.58875 50.7985 5.74808Z" fill="#292A2E"/>
<path d="M33.5878 44.3343V29.9314C33.5755 29.3843 33.7432 28.8482 34.0651 28.4056C34.387 27.963 34.8453 27.6383 35.3696 27.4814C41.0045 25.9307 46.2468 20.876 46.5045 15.0697C46.5181 14.7583 46.2446 14.5532 45.933 14.5532H20.1169C19.8051 14.5532 19.5317 14.7583 19.5454 15.0697C19.803 20.876 25.0453 25.9307 30.6803 27.4814C31.4777 27.702 32.4625 28.6792 32.4625 29.9676V44.3353C32.4625 45.3714 32.0723 46.2513 31.3397 46.9838C30.7348 47.5888 21.6258 55.5126 21.6258 55.5126H44.4244C44.4244 55.5126 35.2312 47.4984 34.725 46.9919C33.9923 46.2597 33.5878 45.3702 33.5878 44.3343Z" fill="#FAFAFA"/>
<path d="M50.8071 56.4083C50.8072 56.7253 50.6832 57.0298 50.4615 57.2564C50.2399 57.483 49.9383 57.6138 49.6213 57.6206C49.6121 57.6213 49.6034 57.6212 49.5942 57.6212H16.5274C16.5181 57.6212 16.5095 57.6213 16.5002 57.6206C16.181 57.6135 15.8774 57.4808 15.6554 57.2512C15.4335 57.0217 15.311 56.7139 15.3145 56.3946C15.3181 56.0752 15.4475 55.7702 15.6745 55.5457C15.9016 55.3212 16.2081 55.1953 16.5274 55.1953H49.5942C49.9159 55.1953 50.2244 55.3231 50.4518 55.5506C50.6793 55.7781 50.8071 56.0866 50.8071 56.4083Z" fill="#292A2E"/>
<path d="M59.0153 57.5481C66.8228 57.5481 73.1521 51.2188 73.1521 43.4112C73.1521 35.6037 66.8228 29.2744 59.0153 29.2744C51.2077 29.2744 44.8784 35.6037 44.8784 43.4112C44.8784 51.2188 51.2077 57.5481 59.0153 57.5481Z" fill="white"/>
<path d="M63.1392 57.0082C55.6417 59.2817 47.6922 55.0325 45.4182 47.5351C43.1443 40.0377 47.3939 32.0881 54.8913 29.8146C62.3887 27.5411 70.3386 31.7899 72.6121 39.2873C74.8856 46.7847 70.6365 54.7342 63.1392 57.0082ZM54.933 29.9515C47.5113 32.2024 43.3046 40.0718 45.5556 47.4934C47.8066 54.9151 55.6758 59.1218 63.0976 56.8708C70.5193 54.6198 74.7259 46.7506 72.475 39.3289C70.2241 31.9073 62.3547 27.7005 54.933 29.9515Z" fill="#292A2E"/>
<path opacity="0.45" d="M59.0151 55.8574C65.889 55.8574 71.4614 50.285 71.4614 43.4111C71.4614 36.5372 65.889 30.9648 59.0151 30.9648C52.1412 30.9648 46.5688 36.5372 46.5688 43.4111C46.5688 50.285 52.1412 55.8574 59.0151 55.8574Z" fill="#70B2E2"/>
<path d="M59.0154 44.1598C59.4287 44.1598 59.7638 43.8247 59.7638 43.4114C59.7638 42.9981 59.4287 42.6631 59.0154 42.6631C58.6021 42.6631 58.2671 42.9981 58.2671 43.4114C58.2671 43.8247 58.6021 44.1598 59.0154 44.1598Z" fill="#292A2E"/>
<path d="M68.2409 48.4016C68.2319 48.4044 68.2224 48.4053 68.213 48.4044C68.2037 48.4034 68.1946 48.4007 68.1863 48.3962L58.9815 43.4745C58.97 43.4684 58.9604 43.4593 58.9538 43.4482C58.9471 43.437 58.9436 43.4243 58.9435 43.4113L58.9404 36.1547C58.9404 36.1357 58.948 36.1175 58.9614 36.104C58.9749 36.0906 58.9931 36.083 59.0122 36.083C59.0312 36.083 59.0494 36.0906 59.0629 36.104C59.0763 36.1175 59.0839 36.1357 59.0839 36.1547L59.087 43.3684L68.2539 48.2698C68.2664 48.2765 68.2766 48.2868 68.2833 48.2993C68.29 48.3118 68.2928 48.326 68.2914 48.3401C68.29 48.3542 68.2845 48.3676 68.2755 48.3786C68.2665 48.3895 68.2545 48.3976 68.2409 48.4017V48.4016Z" fill="#292A2E"/>
</svg>
