<svg width="81" height="72" viewBox="0 0 81 72" fill="none" xmlns="http://www.w3.org/2000/svg">
<path d="M47.3566 26.0362C47.3566 26.0362 47.2359 19.5799 53.0728 19.5799C59.2263 19.5799 58.0868 15.211 64.023 15.5676C68.0354 15.8089 69.076 20.0465 71.3832 20.6727C73.6904 21.2988 75.8626 22.0586 75.8626 25.9139L47.3566 26.0362Z" fill="white"/>
<path d="M59.9694 58.2647C59.9694 58.2647 59.8803 53.5018 64.1864 53.5018C68.7264 53.5018 67.8857 50.2785 72.2649 50.5416C75.2251 50.7197 75.9925 53.8461 77.695 54.3081C79.3976 54.77 80.9999 55.3306 80.9999 58.1751L59.9694 58.2647Z" fill="white"/>
<path d="M0.000168395 36.4353C0.000168395 36.4353 -0.106905 30.699 5.07888 30.699C10.546 30.699 9.53354 26.8174 14.8072 27.1347C18.3715 27.349 19.2961 31.114 21.3463 31.6703C23.3966 32.2265 25.3261 32.9016 25.3261 36.3269L0.000168395 36.4353Z" fill="white"/>
<path opacity="0.1" d="M47.3566 26.0362C47.3566 26.0362 47.2359 19.5799 53.0728 19.5799C59.2263 19.5799 58.0868 15.211 64.023 15.5676C68.0354 15.8089 69.076 20.0465 71.3832 20.6727C73.6904 21.2988 75.8626 22.0586 75.8626 25.9139L47.3566 26.0362Z" fill="#BFDCF2"/>
<path opacity="0.1" d="M59.9694 58.2647C59.9694 58.2647 59.8803 53.5018 64.1864 53.5018C68.7264 53.5018 67.8857 50.2785 72.2649 50.5416C75.2251 50.7197 75.9925 53.8461 77.695 54.3081C79.3976 54.77 80.9999 55.3306 80.9999 58.1751L59.9694 58.2647Z" fill="#BFDCF2"/>
<path opacity="0.1" d="M0.000168395 36.4353C0.000168395 36.4353 -0.106905 30.699 5.07888 30.699C10.546 30.699 9.53354 26.8174 14.8072 27.1347C18.3715 27.349 19.2961 31.114 21.3463 31.6703C23.3966 32.2265 25.3261 32.9016 25.3261 36.3269L0.000168395 36.4353Z" fill="#BFDCF2"/>
<path d="M60.6484 12.1196C60.6034 12.0473 60.5736 11.9667 60.5608 11.8825C60.548 11.7983 60.5525 11.7125 60.574 11.6301C60.5955 11.5477 60.6336 11.4706 60.6859 11.4035C60.7381 11.3363 60.8036 11.2805 60.8781 11.2394C61.0252 11.165 61.1951 11.1491 61.3535 11.1952C61.5118 11.2412 61.6467 11.3456 61.731 11.4873L62.1783 12.2057L61.9619 9.68083C61.9157 9.35707 62.0644 8.93074 62.4306 8.90206C62.725 8.85939 62.9649 8.46371 63.3173 8.63773C63.3206 8.63681 66.0853 10.815 66.1288 11.115L66.2991 15.1118C66.4841 16.3844 62.1595 16.1293 62.1595 16.1293L60.6484 12.1196Z" fill="#E98862"/>
<g opacity="0.1">
<path opacity="0.1" d="M60.6484 12.1196C60.6034 12.0473 60.5736 11.9667 60.5608 11.8825C60.548 11.7983 60.5525 11.7125 60.574 11.6301C60.5955 11.5477 60.6336 11.4706 60.6859 11.4035C60.7381 11.3363 60.8036 11.2805 60.8781 11.2394C61.0252 11.165 61.1951 11.1491 61.3535 11.1952C61.5118 11.2412 61.6467 11.3456 61.731 11.4873L62.1783 12.2057L61.9619 9.68083C61.9157 9.35707 62.0644 8.93074 62.4306 8.90206C62.725 8.85939 62.9649 8.46371 63.3173 8.63773C63.3206 8.63681 66.0853 10.815 66.1288 11.115L66.2991 15.1118C66.4841 16.3844 62.1595 16.1293 62.1595 16.1293L60.6484 12.1196Z" fill="#0C0C0C"/>
</g>
<path d="M31.0932 31.7245C31.0932 31.7245 30.8449 35.4497 30.0068 36.8007C27.5942 40.6914 26.8952 45.0683 29.3113 47.3551C31.7274 49.6419 47.138 49.674 48.3055 44.4144C49.2884 39.9864 47.1791 39.5103 46.6659 35.8578C46.4337 34.2049 45.7949 30.7393 45.7949 30.7393" fill="#0A0A0A"/>
<path d="M44.3168 43.6437C44.2901 43.6402 43.995 48.5383 38.3047 48.1113C34.3654 47.8162 32.9609 43.6364 32.8701 43.6364C33.2949 43.5461 34.0101 43.4148 34.1987 43.3142C34.8191 42.9809 35.5863 42.6341 35.7864 41.4294C35.9021 40.7357 35.7062 37.1833 35.7664 36.4805L41.8132 37.8301C41.7287 39.3136 41.1373 42.7531 43.21 43.3617C43.5553 43.4631 43.9268 43.5557 44.3168 43.6437Z" fill="#E98862"/>
<path opacity="0.5" d="M41.8982 41.9565C41.8035 41.6513 41.7425 41.3366 41.7163 41.0181C41.6498 40.2912 41.6631 39.5592 41.7559 38.8352C40.527 38.6693 39.3692 38.1621 38.4141 37.3711C38.3019 37.7857 37.6844 39.5977 37.8554 39.9917C38.1783 40.7366 39.6968 41.9565 41.8982 41.9565Z" fill="#0C0C0C"/>
<path d="M41.1163 40.4308C38.7323 40.662 35.6477 39.7079 35.0087 36.5331L34.4322 33.6685C33.7931 30.4937 34.9426 27.5845 37.9319 26.9827C40.9211 26.3815 43.6734 28.5051 44.3124 31.6799L44.5677 32.9481C44.8128 34.1663 45.3698 40.0192 41.1163 40.4308Z" fill="#E98862"/>
<path d="M42.8121 36.6344C42.0375 37.0282 41.1538 37.1528 40.3005 36.9883C40.271 36.9827 40.2404 36.9856 40.2125 36.9967C40.1845 37.0078 40.1604 37.0267 40.1427 37.0511C40.1251 37.0755 40.1148 37.1044 40.1131 37.1344C40.1113 37.1644 40.1181 37.1943 40.1327 37.2206C40.3871 37.6689 40.9905 38.4347 42.0255 38.1225C42.694 37.9209 42.9466 37.2332 43.0403 36.8079C43.0466 36.7785 43.0445 36.7479 43.0341 36.7196C43.0237 36.6914 43.0054 36.6667 42.9815 36.6485C42.9575 36.6303 42.9288 36.6193 42.8989 36.6168C42.8689 36.6143 42.8388 36.6204 42.8121 36.6344Z" fill="white"/>
<path d="M42.8606 33.189C43.0673 33.189 43.2349 33.0214 43.2349 32.8147C43.2349 32.608 43.0673 32.4404 42.8606 32.4404C42.6539 32.4404 42.4863 32.608 42.4863 32.8147C42.4863 33.0214 42.6539 33.189 42.8606 33.189Z" fill="#0C0C0C"/>
<path d="M39.2639 33.8189C39.4707 33.8189 39.6382 33.6513 39.6382 33.4446C39.6382 33.2379 39.4707 33.0703 39.2639 33.0703C39.0572 33.0703 38.8896 33.2379 38.8896 33.4446C38.8896 33.6513 39.0572 33.8189 39.2639 33.8189Z" fill="#0C0C0C"/>
<path opacity="0.1" d="M39.6008 36.2708C39.9931 36.224 40.2833 35.9528 40.249 35.665C40.2147 35.3772 39.8688 35.1819 39.4765 35.2287C39.0842 35.2755 38.7939 35.5468 38.8283 35.8345C38.8626 36.1223 39.2085 36.3176 39.6008 36.2708Z" fill="#0C0C0C"/>
<path opacity="0.1" d="M43.7464 35.1202C43.781 35.4075 44.1272 35.6026 44.5197 35.5563C44.5875 35.5482 44.6543 35.5331 44.7189 35.5111C44.7372 35.1685 44.7382 34.8389 44.7282 34.5337C44.6192 34.5065 44.5062 34.4999 44.3948 34.5142C44.0024 34.5605 43.7124 34.8316 43.7464 35.1202Z" fill="#0C0C0C"/>
<path opacity="0.5" d="M42.0129 36.0079L42.0188 36.007C42.1399 35.9817 42.2596 35.9498 42.3772 35.9113C42.5527 35.8526 42.7819 35.7562 42.7505 35.5974C42.7142 35.4164 41.8254 33.5645 41.7245 33.3542C41.7156 33.3358 41.6998 33.3216 41.6806 33.3149C41.6613 33.3081 41.6401 33.3093 41.6217 33.3182C41.6033 33.327 41.5892 33.3428 41.5825 33.3621C41.5757 33.3813 41.5769 33.4025 41.5857 33.4209C41.9646 34.2096 42.5749 35.5063 42.5995 35.6282C42.5803 35.6849 42.2891 35.7958 41.9886 35.8564C41.9687 35.8599 41.951 35.8711 41.9393 35.8876C41.9276 35.904 41.9228 35.9244 41.926 35.9443C41.9292 35.9643 41.9401 35.9821 41.9564 35.9941C41.9727 36.0061 41.993 36.0111 42.013 36.0082L42.0129 36.0079Z" fill="#0C0C0C"/>
<path d="M32.0471 34.6968L34.7269 34.1734C36.7513 33.3269 37.3255 29.7989 37.3255 29.7989C37.3255 29.7989 39.8239 32.1781 45.7948 30.7394C45.7948 30.7394 44.4978 22.4041 35.6812 24.9342C32.8383 25.75 30.8247 28.6476 31.1242 32.4856C31.3341 35.1753 32.0471 34.6968 32.0471 34.6968Z" fill="#0A0A0A"/>
<path d="M35.389 37.4628C34.4806 37.6456 33.5485 36.8219 33.3655 35.9133C33.1824 35.0047 33.8183 34.3557 34.7267 34.1729L35.3173 34.6873L36.1697 37.3053L35.389 37.4628Z" fill="#E98862"/>
<path d="M42.3685 31.8769C42.5958 31.7162 42.8616 31.6185 43.1389 31.594C43.2781 31.5807 43.4184 31.5885 43.5552 31.6171C43.6933 31.6453 43.8274 31.6907 43.9542 31.7523L43.9583 31.7541C43.9723 31.7603 43.9883 31.7608 44.0027 31.7554C44.0171 31.75 44.0288 31.7392 44.0353 31.7253C44.0418 31.7114 44.0427 31.6955 44.0377 31.681C44.0326 31.6665 44.0221 31.6545 44.0084 31.6476C43.874 31.5766 43.7312 31.5228 43.5833 31.4876C43.4344 31.4514 43.281 31.4378 43.1281 31.4472C42.8184 31.4644 42.5189 31.5642 42.2608 31.7363C42.2415 31.7495 42.2281 31.7698 42.2237 31.7929C42.2193 31.8159 42.2243 31.8397 42.2375 31.8591C42.2507 31.8785 42.271 31.8918 42.294 31.8962C42.3171 31.9006 42.3409 31.8957 42.3603 31.8825L42.3624 31.881L42.3685 31.8769Z" fill="#0C0C0C"/>
<path d="M39.9203 32.2159C39.616 32.1554 39.301 32.1777 39.0082 32.2804C38.8635 32.3302 38.7271 32.4015 38.6035 32.4919C38.4804 32.581 38.3691 32.6853 38.2721 32.8023C38.2619 32.8139 38.2566 32.8291 38.2574 32.8445C38.2582 32.8599 38.2651 32.8744 38.2765 32.8848C38.2879 32.8953 38.303 32.9008 38.3184 32.9002C38.3339 32.8996 38.3485 32.8929 38.3591 32.8817L38.3622 32.8784C38.4557 32.773 38.5622 32.6798 38.679 32.6009C38.7946 32.522 38.9215 32.4611 39.0553 32.4202C39.3209 32.3369 39.6038 32.3253 39.8753 32.3868L39.882 32.3884C39.9048 32.3939 39.9288 32.3902 39.9488 32.378C39.9689 32.3658 39.9832 32.3461 39.9887 32.3233C39.9942 32.3006 39.9905 32.2765 39.9783 32.2565C39.9661 32.2365 39.9464 32.2222 39.9237 32.2167L39.9203 32.2159Z" fill="#0C0C0C"/>
<path d="M34.7286 34.1289C36.5301 33.4582 37.1278 32.2143 37.312 31.2885C37.4312 30.6712 37.42 30.0357 37.2793 29.4229L37.2236 29.4381C37.3621 30.043 37.3728 30.6702 37.2549 31.2794C37.0733 32.19 36.4839 33.4141 34.7085 34.0748L34.7286 34.1289Z" fill="#0C0C0C"/>
<path d="M14.2192 20.5778L13.0363 16.7982C13.0103 16.7152 12.9673 16.6384 12.91 16.5729C12.8527 16.5074 12.7824 16.4545 12.7036 16.4177C12.6248 16.3808 12.5391 16.3608 12.4521 16.3588C12.3651 16.3569 12.2787 16.3731 12.1983 16.4063C12.0518 16.4724 11.935 16.5906 11.8706 16.7378C11.8062 16.8851 11.7989 17.0511 11.8499 17.2035L12.1036 18.0139L10.136 15.8314C9.92153 15.5849 9.50006 15.4197 9.24001 15.6786C9.13323 15.7716 9.06113 15.8981 9.03549 16.0374C9.00985 16.1767 9.03218 16.3206 9.09882 16.4455C9.09597 16.447 9.09329 16.4487 9.09084 16.4507C9.08925 16.4526 9.08778 16.4545 9.08645 16.4565L8.75575 16.0764C8.69444 16.0061 8.6182 15.9503 8.53258 15.9131C8.44696 15.8759 8.35413 15.8583 8.26085 15.8616C8.16756 15.8648 8.07618 15.8888 7.99337 15.9319C7.91055 15.975 7.83839 16.036 7.78214 16.1104C7.6959 16.2295 7.65316 16.3745 7.66108 16.5213C7.66899 16.6681 7.72708 16.8077 7.82562 16.9167L7.96634 17.0786C7.96359 17.0849 7.96194 17.0916 7.96148 17.0984C7.84101 17.0111 7.69344 16.9696 7.54515 16.9812C7.39686 16.9928 7.25753 17.0567 7.15207 17.1616C7.04008 17.2798 6.97676 17.4358 6.97475 17.5986C6.97273 17.7613 7.03217 17.9189 7.1412 18.0397L7.49087 18.4414C7.48191 18.4393 7.47257 18.4392 7.46361 18.4414C7.45465 18.4435 7.44632 18.4477 7.4393 18.4537C7.43133 18.4612 7.42574 18.4709 7.42322 18.4816C7.29438 18.4337 7.15338 18.4295 7.02192 18.4696C6.89045 18.5097 6.77579 18.5919 6.69556 18.7035C6.61368 18.8224 6.57435 18.9655 6.58394 19.1096C6.59353 19.2537 6.65148 19.3903 6.74841 19.4974L9.69848 22.8868C10.1113 23.3609 10.6562 23.701 11.2634 23.8634C11.8706 24.0259 12.5126 24.0033 13.1069 23.7987C13.6194 23.6221 14.0428 23.2527 14.2873 22.7689C14.5317 22.2851 14.5779 21.7251 14.416 21.2078L14.2192 20.5778Z" fill="#E98862"/>
<g opacity="0.2">
<path opacity="0.2" d="M11.0357 18.6153C11.0242 18.6252 11.0093 18.6302 10.9941 18.6292C10.979 18.6283 10.9648 18.6214 10.9547 18.6101L9.08661 16.5321C9.07635 16.5207 9.07105 16.5056 9.07186 16.4903C9.07267 16.475 9.07954 16.4606 9.09095 16.4504C9.10235 16.4401 9.11737 16.4348 9.13269 16.4356C9.14801 16.4364 9.16238 16.4433 9.17264 16.4547L11.041 18.5327C11.0512 18.5441 11.0566 18.5591 11.0558 18.5744C11.055 18.5897 11.0481 18.6041 11.0367 18.6143L11.0357 18.6153Z" fill="#0C0C0C"/>
</g>
<g opacity="0.2">
<path opacity="0.2" d="M10.142 19.4649C10.1305 19.4748 10.1156 19.4798 10.1005 19.4789C10.0853 19.4779 10.0712 19.471 10.0611 19.4597L7.97627 17.1406C7.96601 17.1292 7.9607 17.1142 7.96151 17.0989C7.96231 17.0836 7.96916 17.0692 7.98055 17.059C7.99219 17.0492 8.00711 17.0442 8.02229 17.045C8.03747 17.0458 8.05177 17.0524 8.0623 17.0634L10.1473 19.3823C10.1576 19.3937 10.1629 19.4087 10.1621 19.424C10.1613 19.4393 10.1545 19.4537 10.1431 19.464L10.142 19.4649Z" fill="#0C0C0C"/>
</g>
<g opacity="0.2">
<path opacity="0.2" d="M9.17918 20.3907C9.16769 20.4006 9.15276 20.4056 9.13762 20.4046C9.12248 20.4036 9.10833 20.3967 9.09824 20.3854L7.43524 18.536C7.42498 18.5246 7.41968 18.5096 7.42049 18.4942C7.4213 18.4789 7.42817 18.4645 7.43958 18.4543C7.45099 18.444 7.466 18.4387 7.48132 18.4395C7.49664 18.4403 7.51101 18.4472 7.52127 18.4586L9.18461 20.3087C9.19485 20.3201 9.20014 20.3351 9.19932 20.3504C9.1985 20.3657 9.19163 20.3801 9.18022 20.3903L9.17918 20.3907Z" fill="#0C0C0C"/>
</g>
<path d="M60.2222 13.7373L56.4359 32.0148L43.543 45.0389L50.3125 51.3432L63.0952 36.7488L63.1719 36.6625C63.6226 36.1439 63.9369 35.5212 64.0863 34.8506L68.4263 15.5074L60.2222 13.7373Z" fill="#BFDCF2"/>
<path d="M38.112 46.8933C34.1701 46.7074 34.0042 43.3613 34.0042 43.3613C34.0042 43.3613 32.051 43.4875 30.7526 43.6632C28.6267 43.9508 27.2244 44.6717 26.1084 45.7876C25.0703 46.8258 25.3648 50.0645 25.3648 50.0645L26.4067 71.7336H50.1978L51.3226 50.1837C51.3226 50.1837 52.6007 47.4491 50.4283 45.1506C48.8529 43.4841 44.7858 43.3613 43.1485 43.3613C43.1218 43.3613 43.4806 47.1464 38.112 46.8933Z" fill="#BFDCF2"/>
<path d="M19.5913 35.6409L15.3285 20.3955L7.26758 22.7329L12.1954 39.1462C12.4208 39.8901 12.8487 40.5567 13.4313 41.0712L13.5122 41.1421L26.4962 52.5548L32.3618 45.4018L19.5913 35.6409Z" fill="#BFDCF2"/>
<path d="M61.1424 9.16768L60.9473 9.30065C60.4518 9.63868 59.8945 9.87579 59.3073 9.99843C58.7202 10.1211 58.1146 10.1269 57.5252 10.0154C56.9357 9.90404 56.3741 9.67761 55.8722 9.34911C55.3703 9.0206 54.938 8.59645 54.6 8.10087L52.7739 5.42299C52.7498 5.38767 52.7329 5.34795 52.7242 5.3061C52.7154 5.26426 52.715 5.2211 52.723 5.17909C52.7309 5.13709 52.747 5.09706 52.7705 5.06129C52.7939 5.02553 52.8241 4.99472 52.8594 4.97064L60.063 0.0565863C60.1343 0.00795381 60.2221 -0.0103637 60.3069 0.00565939C60.3917 0.0216825 60.4667 0.0707351 60.5154 0.142037L62.3424 2.82038C62.6804 3.31593 62.9175 3.87321 63.0401 4.4604C63.1628 5.04758 63.1685 5.65317 63.0571 6.24258C62.9457 6.832 62.7192 7.39369 62.3907 7.89558C62.0622 8.39747 61.638 8.82973 61.1424 9.16768Z" fill="#30D6B0"/>
<path d="M57.5395 4.01117L58.6337 4.62864C58.6412 4.63285 58.6496 4.63519 58.6581 4.63545C58.6667 4.63571 58.6752 4.63389 58.6829 4.63014L59.8119 4.0787C59.8207 4.07441 59.8306 4.07268 59.8404 4.07369C59.8502 4.0747 59.8595 4.07842 59.8673 4.08442C59.8751 4.09042 59.881 4.09847 59.8845 4.10767C59.888 4.11687 59.8888 4.12686 59.8869 4.13651L59.6379 5.36798C59.6361 5.37638 59.6365 5.38508 59.6389 5.39332C59.6413 5.40156 59.6457 5.4091 59.6516 5.41527L60.5249 6.31857C60.5317 6.32566 60.5365 6.33452 60.5386 6.34417C60.5406 6.35381 60.54 6.36384 60.5367 6.37313C60.5333 6.38242 60.5275 6.3906 60.5198 6.39673C60.512 6.40286 60.5027 6.40671 60.4929 6.40784L59.2447 6.55168C59.2362 6.55266 59.228 6.55569 59.2209 6.56053C59.2138 6.56536 59.208 6.57185 59.204 6.57943L58.6143 7.68949C58.6096 7.69818 58.6027 7.7054 58.5941 7.71034C58.5856 7.71527 58.5759 7.71773 58.566 7.71743C58.5561 7.71713 58.5466 7.71408 58.5384 7.70863C58.5301 7.70319 58.5236 7.69555 58.5195 7.68659L57.9972 6.54394C57.9936 6.53612 57.9882 6.52929 57.9814 6.52404C57.9746 6.51878 57.9667 6.51525 57.9582 6.51376L56.721 6.29626C56.7113 6.29455 56.7022 6.29016 56.6949 6.28359C56.6875 6.27701 56.6821 6.2685 56.6794 6.25903C56.6766 6.24956 56.6765 6.2395 56.6792 6.23C56.6818 6.22049 56.6871 6.21192 56.6944 6.20526L57.6194 5.35537C57.6257 5.34956 57.6305 5.34232 57.6333 5.33427C57.6362 5.32622 57.6371 5.31759 57.636 5.30912L57.4604 4.06505C57.4589 4.05515 57.4602 4.04501 57.4642 4.03582C57.4681 4.02662 57.4746 4.01874 57.4829 4.0131C57.4912 4.00745 57.5009 4.00428 57.5109 4.00394C57.521 4.0036 57.5309 4.0061 57.5395 4.01117Z" fill="#FAFAFA"/>
<path d="M61.4402 7.85254L60.5268 8.47532L60.3418 8.60113L59.6133 9.09834C59.6133 9.09834 64.5766 13.6344 64.34 19.1404L66.5173 17.6553L66.7023 17.5295L69.0641 15.9187C63.8512 14.1291 61.4402 7.85254 61.4402 7.85254Z" fill="#30D6B0"/>
<path d="M69.7062 14.1631L62.4718 19.0973C62.277 19.2302 62.2268 19.4958 62.3597 19.6906L63.9926 22.0847C64.1254 22.2794 64.391 22.3296 64.5858 22.1968L71.8202 17.2626C72.015 17.1297 72.0652 16.8641 71.9324 16.6693L70.2995 14.2752C70.1666 14.0805 69.901 14.0302 69.7062 14.1631Z" fill="#30D6B0"/>
<path d="M55.8988 10.2105C55.5491 10.4498 55.1419 10.5917 54.7192 10.6216C54.2964 10.6514 53.8733 10.5681 53.4934 10.3803C53.1135 10.1925 52.7905 9.90693 52.5575 9.55291C52.3245 9.19889 52.19 8.78922 52.1678 8.366C52.1456 7.94278 52.2365 7.52129 52.4312 7.14484C52.6258 6.76838 52.9172 6.45056 53.2754 6.22403C53.6336 5.9975 54.0456 5.87043 54.4692 5.8559C54.8927 5.84136 55.3125 5.93987 55.6854 6.14131C56.0455 6.3357 56.3495 6.61943 56.5683 6.96523C56.7871 7.31104 56.9133 7.7073 56.9347 8.11595C56.9561 8.52459 56.8721 8.93188 56.6907 9.29868C56.5093 9.66548 56.2366 9.97946 55.8988 10.2105ZM53.6751 6.96125C53.3957 7.15211 53.1863 7.42911 53.0789 7.75002C52.9715 8.07093 52.9719 8.41816 53.0801 8.7388C53.1884 9.05944 53.3985 9.3359 53.6784 9.52606C53.9583 9.71622 54.2928 9.80964 54.6307 9.7921C54.9687 9.77456 55.2916 9.64701 55.5504 9.42889C55.8091 9.21078 55.9895 8.91405 56.0639 8.58393C56.1384 8.25381 56.1029 7.9084 55.9628 7.60033C55.8227 7.29227 55.5858 7.03844 55.2881 6.87753C55.0373 6.74248 54.7543 6.67888 54.4699 6.69364C54.1855 6.7084 53.9106 6.80097 53.6751 6.96125Z" fill="#30D6B0"/>
<path d="M63.9761 4.70214C63.8896 4.76112 63.7993 4.81438 63.7059 4.86159C63.1409 5.14697 62.4856 5.19619 61.8843 4.99845C61.283 4.80071 60.7848 4.37219 60.4995 3.80716C60.2141 3.24214 60.1649 2.58689 60.3626 1.98557C60.5604 1.38424 60.9889 0.886105 61.5539 0.600732C62.0947 0.327803 62.719 0.270696 63.3003 0.440988C63.8816 0.611279 64.3765 0.996229 64.6845 1.51781C64.9926 2.03939 65.0907 2.65858 64.9592 3.24988C64.8277 3.84117 64.4762 4.36034 63.9761 4.70214ZM61.7532 1.45154C61.5074 1.61993 61.3153 1.85557 61.1999 2.13027C61.0844 2.40498 61.0506 2.70712 61.1023 3.00056C61.1541 3.294 61.2893 3.56632 61.4918 3.78494C61.6943 4.00356 61.9554 4.15922 62.244 4.23332C62.5326 4.30742 62.8365 4.29681 63.1192 4.20276C63.402 4.10871 63.6516 3.93521 63.8384 3.703C64.0251 3.47079 64.141 3.18971 64.1721 2.89337C64.2033 2.59703 64.1485 2.29799 64.0142 2.032C63.9224 1.8502 63.7956 1.68825 63.6412 1.55542C63.4869 1.42259 63.3078 1.32147 63.1143 1.25784C62.9208 1.19421 62.7167 1.16932 62.5136 1.18458C62.3105 1.19984 62.1124 1.25495 61.9306 1.34678C61.8693 1.37779 61.81 1.41278 61.7532 1.45154Z" fill="#30D6B0"/>
<path d="M63.4761 12.0836C63.4102 11.9932 63.3757 11.8837 63.3778 11.7719C63.3799 11.66 63.4185 11.5519 63.4877 11.464C63.4798 11.4596 63.4575 11.4546 63.4658 11.4409L63.0809 11.6282C62.9687 11.6859 62.8393 11.701 62.7168 11.6707C62.5944 11.6405 62.487 11.5669 62.4145 11.4636C62.3463 11.3592 62.3193 11.2333 62.3386 11.1102C62.358 10.987 62.4223 10.8755 62.5193 10.7971C62.5145 10.7956 62.512 10.7904 62.5077 10.7874L62.3494 10.8644C62.2434 10.9183 62.1221 10.9339 62.0059 10.9086C61.8898 10.8833 61.7859 10.8187 61.7119 10.7256C61.6667 10.6663 61.6353 10.5977 61.6198 10.5248C61.6044 10.4518 61.6053 10.3763 61.6225 10.3038C61.6398 10.2312 61.6729 10.1634 61.7196 10.1052C61.7662 10.0471 61.8252 9.99995 61.8922 9.96732L62.2572 9.7896C62.256 9.78786 62.2536 9.78763 62.2525 9.78555C62.2515 9.78347 62.2525 9.78011 62.2518 9.77745C62.1409 9.80342 62.0244 9.79093 61.9214 9.74205C61.8185 9.69317 61.7352 9.61078 61.6852 9.50838C61.539 9.25215 61.7552 8.96018 61.9912 8.84536L62.7629 8.54125C62.882 8.49438 63.0108 8.47767 63.1379 8.49262C63.265 8.50757 63.3864 8.55371 63.4914 8.62693C64.4005 9.25989 66.7354 10.9697 65.9819 11.3364L64.127 12.239C64.0167 12.2891 63.8928 12.301 63.7749 12.2729C63.657 12.2448 63.5519 12.1781 63.4761 12.0836Z" fill="#E98862"/>
<path d="M6.40958 71.7342H74.1838C74.2145 71.7342 74.2439 71.722 74.2656 71.7003C74.2873 71.6786 74.2995 71.6492 74.2995 71.6186C74.2995 71.5879 74.2873 71.5585 74.2656 71.5368C74.2439 71.5151 74.2145 71.5029 74.1838 71.5029H6.40958C6.37891 71.5029 6.3495 71.5151 6.32781 71.5368C6.30613 71.5585 6.29395 71.5879 6.29395 71.6186C6.29395 71.6492 6.30613 71.6786 6.32781 71.7003C6.3495 71.722 6.37891 71.7342 6.40958 71.7342Z" fill="#292A2E"/>
<path d="M3.59155 46.5089L2.72998 46.8457L3.94522 49.9548L4.80679 49.618L3.59155 46.5089Z" fill="#BFDCF2"/>
<path d="M73.4761 36.987L71.249 39.4736L71.9381 40.0908L74.1652 37.6041L73.4761 36.987Z" fill="#BFDCF2"/>
<path d="M63.2656 48.116L62.7109 48.8564L65.3827 50.8577L65.9373 50.1172L63.2656 48.116Z" fill="#30D6B0"/>
<path d="M23.1142 21.682L20.6831 23.9697L21.317 24.6434L23.7482 22.3557L23.1142 21.682Z" fill="#BFDCF2"/>
<path d="M50.0417 17.8017L49.2397 18.2627L50.9035 21.1568L51.7055 20.6957L50.0417 17.8017Z" fill="#BFDCF2"/>
<path d="M17.3313 57.6067L15.5498 60.4297L16.3321 60.9234L18.1136 58.1003L17.3313 57.6067Z" fill="#30D6B0"/>
<path d="M62.1564 64.3907L60.6646 67.377L61.4921 67.7904L62.9839 64.8042L62.1564 64.3907Z" fill="#30D6B0"/>
<path d="M74.2634 56.5332L73.3774 56.7988L74.336 59.9964L75.222 59.7308L74.2634 56.5332Z" fill="#BFDCF2"/>
<path d="M9.44933 65.3368L8.93408 66.1055L11.7081 67.9648L12.2233 67.1961L9.44933 65.3368Z" fill="#BFDCF2"/>
<path d="M39.0671 10.6093L38.2651 11.0703L39.9288 13.9643L40.7308 13.5033L39.0671 10.6093Z" fill="#30D6B0"/>
</svg>
