<svg xmlns="http://www.w3.org/2000/svg" xmlns:xlink="http://www.w3.org/1999/xlink" viewBox="0 0 316.44 129.6"><defs><style>.cls-1{isolation:isolate;}.cls-2{fill:url(#linear-gradient);}.cls-3{fill:url(#linear-gradient-2);}.cls-4{fill:url(#linear-gradient-3);}.cls-5{fill:url(#linear-gradient-4);}.cls-6{fill:url(#linear-gradient-5);}.cls-7{fill:url(#linear-gradient-6);}.cls-8{fill:url(#linear-gradient-7);}.cls-9{fill:url(#linear-gradient-8);}.cls-10,.cls-11,.cls-12,.cls-13,.cls-16,.cls-17{opacity:0.54;mix-blend-mode:multiply;}.cls-10{fill:url(#linear-gradient-9);}.cls-11{fill:url(#linear-gradient-10);}.cls-12{fill:url(#linear-gradient-11);}.cls-13{fill:url(#linear-gradient-12);}.cls-14{fill:url(#linear-gradient-13);}.cls-15{fill:url(#linear-gradient-14);}.cls-16{fill:url(#linear-gradient-15);}.cls-17{fill:url(#linear-gradient-16);}</style><linearGradient id="linear-gradient" x1="121.39" y1="65.26" x2="143.32" y2="65.26" gradientUnits="userSpaceOnUse"><stop offset="0.04" stop-color="#2b74b9"/><stop offset="0.47" stop-color="#2b74b9"/></linearGradient><linearGradient id="linear-gradient-2" x1="146.38" y1="64.27" x2="165.68" y2="64.27" xlink:href="#linear-gradient"/><linearGradient id="linear-gradient-3" x1="169.44" y1="64.89" x2="176.61" y2="64.89" xlink:href="#linear-gradient"/><linearGradient id="linear-gradient-4" x1="179.54" y1="69.59" x2="198.84" y2="69.59" xlink:href="#linear-gradient"/><linearGradient id="linear-gradient-5" x1="202.23" y1="70.12" x2="219.73" y2="70.12" xlink:href="#linear-gradient"/><linearGradient id="linear-gradient-6" x1="222.72" y1="69.83" x2="241.98" y2="69.83" xlink:href="#linear-gradient"/><linearGradient id="linear-gradient-7" x1="245.78" y1="69.83" x2="262.39" y2="69.83" xlink:href="#linear-gradient"/><linearGradient id="linear-gradient-8" x1="266.2" y1="64.27" x2="285.49" y2="64.27" xlink:href="#linear-gradient"/><linearGradient id="linear-gradient-9" x1="26.14" y1="53.89" x2="76.89" y2="53.89" gradientUnits="userSpaceOnUse"><stop offset="0.12" stop-color="#93278f" stop-opacity="0.8"/><stop offset="0.47" stop-color="#2b74b9"/></linearGradient><linearGradient id="linear-gradient-10" x1="32.66" y1="82.7" x2="83.42" y2="82.7" xlink:href="#linear-gradient-9"/><linearGradient id="linear-gradient-11" x1="22.51" y1="69.74" x2="73.27" y2="69.74" xlink:href="#linear-gradient-9"/><linearGradient id="linear-gradient-12" x1="40.8" y1="46.82" x2="91.55" y2="46.82" xlink:href="#linear-gradient-9"/><linearGradient id="linear-gradient-13" x1="55.6" y1="53.88" x2="106.21" y2="53.88" xlink:href="#linear-gradient-9"/><linearGradient id="linear-gradient-14" x1="59.12" y1="69.74" x2="109.83" y2="69.74" xlink:href="#linear-gradient-9"/><linearGradient id="linear-gradient-15" x1="48.91" y1="81.87" x2="83.65" y2="81.87" xlink:href="#linear-gradient-9"/><linearGradient id="linear-gradient-16" x1="72.67" y1="82.41" x2="99.69" y2="82.41" xlink:href="#linear-gradient-9"/></defs><title>phincash illustrator file</title><g class="cls-1"><g id="graphics"><path class="cls-2" d="M121.39,52.17a1.51,1.51,0,0,1,1.51-1.51h9.33c6.06,0,11.09,1.94,11.09,8.87s-4.66,8.94-10.8,8.94h-4.7v9.87a1.51,1.51,0,0,1-1.51,1.51H122.9a1.5,1.5,0,0,1-1.51-1.51ZM127.82,63h4.29c2.26,0,4.53-.78,4.53-3.5,0-3-3-3.42-5.52-3.42h-3.3Z"/><path class="cls-3" d="M151.06,48.69a1.51,1.51,0,0,1,1.51,1.5V62.54h.08c.58-1.57,2.6-3.22,5.61-3.22,6.26,0,7.42,4.12,7.42,9.48v9.54a1.51,1.51,0,0,1-1.51,1.51H161a1.51,1.51,0,0,1-1.51-1.51V70c0-2.31,0-5.28-3.21-5.28s-3.71,2.52-3.71,5.12v8.46a1.51,1.51,0,0,1-1.51,1.51h-3.17a1.51,1.51,0,0,1-1.51-1.51V50.19a1.51,1.51,0,0,1,1.51-1.5Z"/><path class="cls-4" d="M173,49.92a3.59,3.59,0,1,1-3.59,3.59A3.59,3.59,0,0,1,173,49.92Zm-1.59,9.9h3.17a1.51,1.51,0,0,1,1.51,1.5v17a1.51,1.51,0,0,1-1.51,1.51h-3.17a1.51,1.51,0,0,1-1.51-1.51v-17A1.51,1.51,0,0,1,171.44,59.82Z"/><path class="cls-5" d="M179.54,61.32a1.51,1.51,0,0,1,1.51-1.5h4.43v2.72h.08a6.51,6.51,0,0,1,5.86-3.22c6.26,0,7.42,4.12,7.42,9.48v9.54a1.51,1.51,0,0,1-1.51,1.51h-3.17a1.51,1.51,0,0,1-1.51-1.51V70c0-2.31,0-5.28-3.21-5.28s-3.71,2.52-3.71,5.12v8.46a1.51,1.51,0,0,1-1.51,1.51h-3.17a1.51,1.51,0,0,1-1.51-1.51Z"/><path class="cls-6" d="M217.1,64.71a1.08,1.08,0,0,1-1.34.06,4.82,4.82,0,0,0-3.2-1.06c-3.32,0-5.77,2.7-5.77,6.41s2.45,6.42,5.63,6.42A4.83,4.83,0,0,0,216,75.06a1,1,0,0,1,1.31-.07l2,1.49a1.06,1.06,0,0,1,.09,1.59A9,9,0,0,1,213,80.59c-6.22,0-10.75-4.08-10.75-10.47S206.76,59.65,213,59.65a9.09,9.09,0,0,1,5.87,2,1,1,0,0,1,0,1.61Z"/><path class="cls-7" d="M236.29,77.34h-.09a7.22,7.22,0,0,1-6.34,3c-3.76,0-7.14-2.15-7.14-6.19,0-6.92,8.41-7,13.57-7a3.68,3.68,0,0,0-4-3.58,6.59,6.59,0,0,0-5,2.39L224,62.54a12.91,12.91,0,0,1,8.82-3.22C240,59.32,242,63,242,69.67v8.67a1.51,1.51,0,0,1-1.51,1.51h-4.18Zm-1.53-6.27c-1.89,0-6.1.16-6.1,2.89,0,1.48,1.57,2.18,2.93,2.18,2.43,0,4.7-1.28,4.7-3.75V71.07Z"/><path class="cls-8" d="M257.82,65.71A4.43,4.43,0,0,0,254.23,64c-1,0-2.27.45-2.27,1.65,0,3,10.43.45,10.43,8.08,0,5.11-4.94,6.6-9.23,6.6a12.46,12.46,0,0,1-6.48-1.61,1.53,1.53,0,0,1-.32-2.31l1.63-1.8a1.48,1.48,0,0,1,2-.17,5.08,5.08,0,0,0,3.38,1.19c1.4,0,2.8-.37,2.8-1.45,0-3.21-10.43-.49-10.43-8.12,0-4.7,4.21-6.76,8.41-6.76,2.64,0,5.57.66,7.42,2.64Z"/><path class="cls-9" d="M270.87,48.69a1.5,1.5,0,0,1,1.51,1.5V62.54h.08c.58-1.57,2.6-3.22,5.61-3.22,6.27,0,7.42,4.12,7.42,9.48v9.54A1.5,1.5,0,0,1,284,79.85h-3.16a1.5,1.5,0,0,1-1.51-1.51V70c0-2.31,0-5.28-3.22-5.28s-3.71,2.52-3.71,5.12v8.46a1.5,1.5,0,0,1-1.51,1.51h-3.16a1.5,1.5,0,0,1-1.51-1.51V50.19a1.5,1.5,0,0,1,1.51-1.5Z"/><path class="cls-10" d="M75.58,62c-.44-.52-8.12-9.45-8.68-10.14A83.3,83.3,0,0,1,76,60.66a25.41,25.41,0,0,0,.16-12.9A10.59,10.59,0,0,1,70.8,52.6a11.35,11.35,0,0,1,1.13-13.78A25.37,25.37,0,1,0,75.58,62ZM52.89,33.32c7.49.16,13.42,8,11.56,15.18C56.81,48.29,51.07,40.48,52.89,33.32Zm-6.45,21c5.06-5,14.28-4,18,2.1C59.34,61.43,50.16,60.27,46.44,54.27Zm6.84,14.19C57,61.61,67,59.83,72.86,65,69.06,72,59.06,73.59,53.28,68.46Z"/><path class="cls-11" d="M81.93,91A25.39,25.39,0,0,0,63,57.57a12.14,12.14,0,0,1-12.3.6A25.37,25.37,0,1,0,81.93,91ZM79.64,79c-4.29,6.3-14.15,6.9-19.16,1.42C64.78,74.08,74.57,73.44,79.64,79ZM72.86,65c-3.8,6.93-13.8,8.57-19.58,3.44C57,61.61,67,59.83,72.86,65Z"/><path class="cls-12" d="M68.81,84.1a11.93,11.93,0,0,1-8.33-3.73,12.51,12.51,0,0,1,12.17-5,25.37,25.37,0,0,0,.18-10.28C69,72,59.05,73.58,53.28,68.46,57,61.62,67,59.84,72.81,65c0-.29-.11-.59-.18-.88a25.38,25.38,0,1,0-3.82,20ZM46.44,54.27c5.06-5,14.28-4,18,2.1C59.34,61.43,50.16,60.27,46.44,54.27Z"/><path class="cls-13" d="M53.28,68.46C57,61.61,67,59.83,72.86,65a13.05,13.05,0,0,1-13.3,6.3,25.32,25.32,0,0,0,20.37-3.18c-3-5.33-6.34-8.2-13-16.33A100.58,100.58,0,0,1,81.37,67.15a25.37,25.37,0,1,0-27.12,2.08A11.69,11.69,0,0,1,53.28,68.46ZM86.62,45.13c3.16,6.37-.77,14.61-7.54,16.24C75.91,55,79.85,46.76,86.62,45.13Zm-10.87-9a11.3,11.3,0,0,1-5,16.47A11.3,11.3,0,0,1,75.75,36.13ZM52.89,33.32c7.49.16,13.42,8,11.56,15.18C56.81,48.29,51.07,40.48,52.89,33.32Zm-6.45,21c5.06-5,14.28-4,18,2.1C59.34,61.43,50.16,60.27,46.44,54.27Z"/><path class="cls-14" d="M100.67,38.06A25.38,25.38,0,0,0,65,34a25.72,25.72,0,0,0-3.51,3.4,12.21,12.21,0,0,1,3,11.06,11.87,11.87,0,0,1-7.55-3.06,25.5,25.5,0,0,0-1.3,5.69,11.53,11.53,0,0,1,8.86,5.24,11.41,11.41,0,0,1-8.37,3.18A24.78,24.78,0,0,0,57.56,64c4.64-2.85,11.07-2.75,15.3,1a12.79,12.79,0,0,1-10.36,6.4,25.24,25.24,0,0,0,5.13,4.15,12.44,12.44,0,0,1,12,3.38l-.19.26a25,25,0,0,0,4.06-.1c-1.19-11.54-9-18-16.61-27.3A99.3,99.3,0,0,1,81.46,67.28a31.89,31.89,0,0,1,5.28,11.28A25.4,25.4,0,0,0,100.67,38.06ZM70.8,52.6a11.3,11.3,0,0,1,5-16.47A11.3,11.3,0,0,1,70.8,52.6Zm8.28,8.77c-3.17-6.34.77-14.61,7.54-16.24C89.78,51.5,85.85,59.74,79.08,61.37Zm9.16,14.51c-3.48-7.14,1-16.51,8.75-18.28C100.48,64.81,96,74.12,88.24,75.88Z"/><path class="cls-15" d="M90.09,45a25.24,25.24,0,0,0-13,.46A10.92,10.92,0,0,1,70.8,52.6a10.22,10.22,0,0,1-1.47-3.23,25.5,25.5,0,0,0-5.69,5.85,10.81,10.81,0,0,1,.82,1.15,10.71,10.71,0,0,1-2.66,1.92A25.51,25.51,0,0,0,60,62.82,12.88,12.88,0,0,1,72.86,65a13.09,13.09,0,0,1-13.74,6.23,25.1,25.1,0,0,0,2,8.34C65.62,74,74.78,73.68,79.64,79c-3.85,5.66-12.19,6.72-17.48,2.9A25.27,25.27,0,0,0,80.24,94.76C85.74,84.61,85,73,75.08,61.37c-3.14-3.66-7.78-9.06-8.18-9.56A99.3,99.3,0,0,1,81.46,67.28C89,77.84,88.34,87.53,85.21,95.11A25.38,25.38,0,0,0,90.09,45Zm-11,16.37c-3.17-6.34.77-14.61,7.54-16.24C89.78,51.5,85.85,59.74,79.08,61.37Zm9.16,14.51c-3.48-7.14,1-16.51,8.75-18.28C100.48,64.81,96,74.12,88.24,75.88Z"/><path class="cls-16" d="M80.9,93.47c7.65-16.31-2.77-28.55-5.82-32.1l-3.55-4.13a25.37,25.37,0,0,0-5.34,49.26A24.92,24.92,0,0,0,80.9,93.47Zm-27.62-25C57,61.61,67,59.83,72.86,65,69.06,72,59.06,73.59,53.28,68.46ZM79.64,79c-4.29,6.3-14.15,6.9-19.16,1.42C64.78,74.08,74.57,73.44,79.64,79Z"/><path class="cls-17" d="M96.28,69.79a12.68,12.68,0,0,1-8,6.09,13.17,13.17,0,0,1,1.58-13.5,25.86,25.86,0,0,0-6.1-3.48,10.76,10.76,0,0,1-4.64,2.47,10.75,10.75,0,0,1-1.08-4,25,25,0,0,0-5.33-.21,101.17,101.17,0,0,1,8.79,10.14c13,18.17,1.7,33.77-4.75,40.45A25.4,25.4,0,0,0,96.28,69.79Z"/></g></g></svg>