<svg xmlns="http://www.w3.org/2000/svg" xmlns:xlink="http://www.w3.org/1999/xlink" viewBox="0 0 114.72 105.6"><defs><style>.cls-1{isolation:isolate;}.cls-2,.cls-3,.cls-4,.cls-5,.cls-8,.cls-9{opacity:0.54;mix-blend-mode:multiply;}.cls-2{fill:url(#linear-gradient);}.cls-3{fill:url(#linear-gradient-2);}.cls-4{fill:url(#linear-gradient-3);}.cls-5{fill:url(#linear-gradient-4);}.cls-6{fill:url(#linear-gradient-5);}.cls-7{fill:url(#linear-gradient-6);}.cls-8{fill:url(#linear-gradient-7);}.cls-9{fill:url(#linear-gradient-8);}</style><linearGradient id="linear-gradient" x1="16.86" y1="42.7" x2="67.61" y2="42.7" gradientUnits="userSpaceOnUse"><stop offset="0.12" stop-color="#93278f" stop-opacity="0.8"/><stop offset="0.47" stop-color="#2b74b9"/></linearGradient><linearGradient id="linear-gradient-2" x1="23.38" y1="71.51" x2="74.14" y2="71.51" xlink:href="#linear-gradient"/><linearGradient id="linear-gradient-3" x1="13.24" y1="58.55" x2="63.99" y2="58.55" xlink:href="#linear-gradient"/><linearGradient id="linear-gradient-4" x1="31.52" y1="35.64" x2="82.27" y2="35.64" xlink:href="#linear-gradient"/><linearGradient id="linear-gradient-5" x1="46.33" y1="42.69" x2="96.93" y2="42.69" xlink:href="#linear-gradient"/><linearGradient id="linear-gradient-6" x1="49.84" y1="58.55" x2="100.55" y2="58.55" xlink:href="#linear-gradient"/><linearGradient id="linear-gradient-7" x1="39.63" y1="70.68" x2="74.37" y2="70.68" xlink:href="#linear-gradient"/><linearGradient id="linear-gradient-8" x1="63.39" y1="71.22" x2="90.41" y2="71.22" xlink:href="#linear-gradient"/></defs><title>phincash illustrator file</title><g class="cls-1"><g id="graphics"><path class="cls-2" d="M66.3,50.76c-.44-.52-8.12-9.45-8.68-10.13a84.13,84.13,0,0,1,9.08,8.84,25.52,25.52,0,0,0,.16-12.9,10.57,10.57,0,0,1-5.34,4.84,11.36,11.36,0,0,1,1.14-13.78,25,25,0,0,0-4.6-4.77,25.37,25.37,0,1,0,8.24,27.9ZM43.61,22.14c7.49.15,13.42,7.94,11.56,15.17C47.53,37.1,41.79,29.3,43.61,22.14ZM37.16,43.08c5.06-5,14.28-3.95,18,2.1C50.06,50.25,40.89,49.08,37.16,43.08ZM44,57.27c3.73-6.85,13.76-8.62,19.58-3.44C59.79,60.76,49.79,62.41,44,57.27Z"/><path class="cls-3" d="M72.65,79.82A25.41,25.41,0,0,0,53.73,46.38a12.13,12.13,0,0,1-12.31.6A25.37,25.37,0,1,0,72.65,79.82ZM70.36,67.76c-4.29,6.31-14.14,6.91-19.16,1.42C55.5,62.89,65.29,62.26,70.36,67.76ZM63.58,53.83C59.79,60.76,49.79,62.41,44,57.27,47.73,50.42,57.76,48.65,63.58,53.83Z"/><path class="cls-4" d="M59.54,72.91a12,12,0,0,1-8.34-3.73,12.51,12.51,0,0,1,12.17-5,25.19,25.19,0,0,0,.18-10.28C59.74,60.77,49.77,62.4,44,57.27c3.72-6.83,13.71-8.61,19.54-3.47l-.18-.89a25.38,25.38,0,1,0-3.82,20ZM37.16,43.08c5.06-5,14.28-3.95,18,2.1C50.06,50.25,40.89,49.08,37.16,43.08Z"/><path class="cls-5" d="M44,57.27c3.73-6.85,13.76-8.62,19.58-3.44a13.06,13.06,0,0,1-13.3,6.31,25.71,25.71,0,0,0,6.61.87A25.18,25.18,0,0,0,70.65,57c-3-5.32-6.34-8.2-13-16.32A100.58,100.58,0,0,1,72.09,56,25.37,25.37,0,1,0,45,58,11.69,11.69,0,0,1,44,57.27ZM77.34,34c3.17,6.37-.76,14.6-7.53,16.23C66.63,43.84,70.57,35.57,77.34,34Zm-10.86-9a11.31,11.31,0,0,1-5,16.47A11.3,11.3,0,0,1,66.48,24.94Zm-22.87-2.8c7.49.15,13.42,7.94,11.56,15.17C47.53,37.1,41.79,29.3,43.61,22.14ZM37.16,43.08c5.06-5,14.28-3.95,18,2.1C50.06,50.25,40.89,49.08,37.16,43.08Z"/><path class="cls-6" d="M91.39,26.87a25.38,25.38,0,0,0-39.17-.61,12.19,12.19,0,0,1,3,11.05,11.86,11.86,0,0,1-7.55-3.05,25.27,25.27,0,0,0-1.29,5.68,11.56,11.56,0,0,1,8.85,5.24,11.33,11.33,0,0,1-8.37,3.18,25.59,25.59,0,0,0,1.47,4.46c4.64-2.85,11.08-2.75,15.3,1a12.78,12.78,0,0,1-10.36,6.41,25.25,25.25,0,0,0,5.14,4.14,12.43,12.43,0,0,1,12,3.38l-.19.27a25.2,25.2,0,0,0,4.07-.11c-1.19-11.54-9-18-16.62-27.29A99.92,99.92,0,0,1,72.19,56.09a31.68,31.68,0,0,1,5.27,11.28A25.39,25.39,0,0,0,91.39,26.87ZM61.52,41.41a11.3,11.3,0,0,1,5-16.47A11.31,11.31,0,0,1,61.52,41.41Zm8.29,8.77c-3.18-6.34.76-14.61,7.53-16.23C80.51,40.32,76.58,48.55,69.81,50.18ZM79,64.7c-3.48-7.15,1-16.52,8.75-18.29C91.21,53.62,86.68,62.93,79,64.7Z"/><path class="cls-7" d="M80.82,33.82a25.28,25.28,0,0,0-13,.45,10.92,10.92,0,0,1-6.29,7.14,10.45,10.45,0,0,1-1.47-3.23A25.34,25.34,0,0,0,54.36,44a10.29,10.29,0,0,1,.82,1.14,10.71,10.71,0,0,1-2.66,1.92,24.84,24.84,0,0,0-1.76,4.54,12.83,12.83,0,0,1,12.82,2.19,13.05,13.05,0,0,1-13.74,6.23,25.16,25.16,0,0,0,1.95,8.35c4.55-5.56,13.72-5.92,18.57-.65-3.85,5.66-12.19,6.72-17.48,2.91A25.29,25.29,0,0,0,71,83.58c5.5-10.15,4.8-21.8-5.16-33.4-3.13-3.65-7.77-9.06-8.18-9.55A99.92,99.92,0,0,1,72.19,56.09c7.52,10.57,6.87,20.26,3.74,27.83a25.37,25.37,0,0,0,4.89-50.1Zm-11,16.36c-3.18-6.34.76-14.61,7.53-16.23C80.51,40.32,76.58,48.55,69.81,50.18ZM79,64.7c-3.48-7.15,1-16.52,8.75-18.29C91.21,53.62,86.68,62.93,79,64.7Z"/><path class="cls-8" d="M71.62,82.28C79.27,66,68.85,53.73,65.8,50.18l-3.54-4.13a25.37,25.37,0,0,0-5.35,49.26A24.89,24.89,0,0,0,71.62,82.28ZM44,57.27c3.73-6.85,13.76-8.62,19.58-3.44C59.79,60.76,49.79,62.41,44,57.27ZM70.36,67.76c-4.29,6.31-14.14,6.91-19.16,1.42C55.5,62.89,65.29,62.26,70.36,67.76Z"/><path class="cls-9" d="M87,58.6a12.7,12.7,0,0,1-8,6.1,13.21,13.21,0,0,1,1.58-13.51,25.66,25.66,0,0,0-6.1-3.48,10.62,10.62,0,0,1-4.63,2.47,10.67,10.67,0,0,1-1.09-4A25.61,25.61,0,0,0,63.39,46a104.1,104.1,0,0,1,8.8,10.14c13,18.18,1.7,33.77-4.75,40.45A25.39,25.39,0,0,0,87,58.6Z"/></g></g></svg>