<svg width="106" height="106" viewBox="0 0 106 106" fill="none" xmlns="http://www.w3.org/2000/svg">
<path d="M26.5077 92.75H79.4911C80.9473 92.7535 82.3512 92.2032 83.4212 91.2095C87.8846 87.0521 91.4552 82.02 93.9137 76.4229C96.3722 70.8256 97.6664 64.7817 97.7169 58.6625C97.9454 33.7815 77.8408 13.3088 53.1079 13.2501C28.3608 13.1914 8.28126 33.3558 8.28126 58.2383C8.2742 64.4314 9.54175 70.5587 12.0041 76.2349C14.4665 81.9109 18.0703 87.0126 22.5888 91.2186C23.6564 92.2078 25.0562 92.7548 26.5077 92.75Z" fill="url(#paint0_linear_415_1024)"/>
<path d="M53.3016 15.2275C54.5169 15.2275 55.6823 15.7103 56.5417 16.5696C57.4009 17.4288 57.8837 18.5943 57.8837 19.8095V28.4618H48.7198V19.8095C48.7198 19.2078 48.8383 18.612 49.0685 18.056C49.2989 17.5001 49.6364 16.995 50.0618 16.5696C50.4873 16.1441 50.9924 15.8066 51.5483 15.5763C52.1042 15.346 52.7 15.2275 53.3016 15.2275Z" fill="#D4D9E3"/>
<path d="M51.986 69.4692C46.3613 69.4692 41.8017 74.0289 41.8017 79.6535V86.7481C41.8017 92.3727 46.3613 96.9323 51.986 96.9323C57.6106 96.9323 62.1702 92.3727 62.1702 86.7481V79.6535C62.1702 74.0289 57.6106 69.4692 51.986 69.4692Z" fill="#D4D9E3"/>
<path d="M81.5927 76.333L79.2505 72.2792C78.5814 71.1208 78.229 69.8068 78.229 68.469V47.3207C78.229 44.4045 77.6547 41.517 76.5388 38.8229C75.4227 36.1288 73.7872 33.6809 71.7252 31.6188C69.6631 29.5568 67.2152 27.9211 64.5211 26.8052C61.827 25.6893 58.9393 25.1147 56.0233 25.1147H49.9771V25.9483C45.3243 27.2664 41.2288 30.0667 38.3124 33.9239C35.3959 37.7813 33.8177 42.4849 33.8173 47.3207V68.469C33.8173 69.8068 33.465 71.1208 32.7958 72.2792L30.4537 76.333C29.7846 77.4914 29.4322 78.8054 29.4322 80.1432C29.4322 82.1632 30.2346 84.1004 31.663 85.5287C33.0915 86.9573 35.0287 87.7597 37.0487 87.7597H74.9977C75.9979 87.7597 76.9883 87.5626 77.9125 87.1798C78.8365 86.797 79.6762 86.2362 80.3834 85.5287C81.0906 84.8215 81.6517 83.982 82.0345 83.0578C82.4173 82.1338 82.6142 81.1434 82.6142 80.1432C82.6142 78.8054 82.2618 77.4914 81.5927 76.333Z" fill="#D4D9E3"/>
<path d="M72.1829 68.469V47.3207C72.1829 41.4313 69.8434 35.7833 65.679 31.6188C61.5146 27.4544 55.8664 25.1147 49.9771 25.1147H49.9769C44.0877 25.1147 38.4395 27.4544 34.2751 31.6188C30.1106 35.7833 27.7712 41.4313 27.7712 47.3207V68.469C27.7712 69.8066 27.4188 71.1208 26.7497 72.2792L24.4075 76.333C23.7384 77.4914 23.386 78.8054 23.386 80.1432C23.386 82.1632 24.1885 84.1004 25.6168 85.5287C27.0451 86.9573 28.9825 87.7597 31.0025 87.7597H68.9516C70.9716 87.7597 72.909 86.9573 74.3373 85.5287C75.7656 84.1004 76.568 82.1632 76.568 80.1432C76.568 78.8054 76.2157 77.4914 75.5465 76.333L73.2044 72.2792C72.5353 71.1208 72.1829 69.8066 72.1829 68.469Z" fill="#E5E9F1"/>
<path d="M82.1525 38.2547C81.9071 38.2547 81.6649 38.2005 81.443 38.0959C81.221 37.9914 81.0252 37.839 80.8689 37.65C80.7128 37.4608 80.6004 37.2394 80.5397 37.0018C80.479 36.7641 80.4718 36.5159 80.5182 36.2751C80.872 34.4393 80.4834 32.5384 79.4375 30.989C78.3913 29.4395 76.7736 28.3684 74.9387 28.0102C74.5058 27.9261 74.124 27.6738 73.8772 27.3082C73.6304 26.9427 73.5389 26.4941 73.6228 26.0612C73.7068 25.6283 73.9592 25.2463 74.3248 24.9995C74.6902 24.7528 75.1389 24.6613 75.5718 24.7453C78.2721 25.2722 80.6529 26.8487 82.1924 29.1288C83.7319 31.409 84.3039 34.2066 83.7833 36.9082C83.7098 37.2868 83.5069 37.6282 83.2094 37.874C82.9119 38.1195 82.5382 38.2543 82.1525 38.2547Z" fill="#70B2E2"/>
<path d="M89.9986 39.7768C89.7534 39.7766 89.511 39.7223 89.2893 39.6178C89.0673 39.5132 88.8713 39.3608 88.7152 39.1718C88.5591 38.9826 88.4466 38.7613 88.386 38.5236C88.3253 38.2857 88.3181 38.0377 88.3647 37.7967C89.1195 33.8805 88.2901 29.8246 86.0585 26.5189C83.8269 23.2134 80.3751 20.9278 76.4606 20.1639C76.0277 20.08 75.6459 19.8275 75.3991 19.462C75.1523 19.0965 75.0608 18.6479 75.1447 18.2149C75.2287 17.782 75.4811 17.4001 75.8467 17.1534C76.2121 16.9066 76.6608 16.8151 77.0937 16.8991C81.8738 17.8319 86.0886 20.6226 88.8137 24.6589C91.5387 28.6954 92.5513 33.648 91.6293 38.4302C91.5558 38.8089 91.353 39.1503 91.0554 39.3958C90.7579 39.6416 90.3845 39.7762 89.9986 39.7768Z" fill="#70B2E2"/>
<path d="M23.8477 38.2544C23.462 38.254 23.0883 38.1194 22.7908 37.8737C22.4935 37.6281 22.2906 37.2867 22.2171 36.9079C21.6962 34.2065 22.2683 31.4089 23.8076 29.1287C25.347 26.8484 27.7279 25.2719 30.4282 24.745C30.8605 24.6622 31.3081 24.7543 31.6727 25.0013C32.0372 25.2481 32.2892 25.6294 32.3731 26.0615C32.4569 26.4938 32.3658 26.9416 32.1201 27.3068C31.8741 27.672 31.4934 27.9248 31.0615 28.0099C29.2266 28.3678 27.6086 29.4392 26.5627 30.9887C25.5168 32.5381 25.128 34.439 25.482 36.2746C25.5284 36.5156 25.5211 36.7638 25.4605 37.0015C25.3998 37.2391 25.2874 37.4605 25.1313 37.6497C24.9752 37.8389 24.7791 37.9911 24.5572 38.0958C24.3353 38.2004 24.093 38.2544 23.8477 38.2544Z" fill="#70B2E2"/>
<path d="M16.0015 39.7764C15.6158 39.776 15.2422 39.6415 14.9447 39.3957C14.6473 39.1502 14.4444 38.8088 14.3709 38.4299C13.4432 33.6473 14.4535 28.692 17.1793 24.6541C19.9052 20.6163 24.1235 17.8267 28.9061 16.8989C29.3384 16.8167 29.7856 16.9091 30.15 17.156C30.5141 17.4028 30.7657 17.7839 30.8495 18.2159C30.9334 18.6478 30.8425 19.0953 30.5969 19.4604C30.3514 19.8256 29.9711 20.0785 29.5394 20.1638C25.6228 20.9236 22.1681 23.2081 19.9358 26.5148C17.7034 29.8218 16.8761 33.88 17.6358 37.7966C17.6823 38.0376 17.675 38.2858 17.6144 38.5235C17.5537 38.7612 17.4413 38.9825 17.2852 39.1717C17.129 39.3609 16.9329 39.5133 16.711 39.6179C16.4891 39.7224 16.2468 39.7766 16.0015 39.7764Z" fill="#70B2E2"/>
<defs>
<linearGradient id="paint0_linear_415_1024" x1="53" y1="13.25" x2="53" y2="92.75" gradientUnits="userSpaceOnUse">
<stop stop-color="#FBFDFE"/>
<stop offset="1" stop-color="#F0F5FA"/>
</linearGradient>
</defs>
</svg>
