<svg width="106" height="106" viewBox="0 0 106 106" fill="none" xmlns="http://www.w3.org/2000/svg">
<path d="M26.5077 92.75H79.4911C80.9474 92.7535 82.3512 92.2032 83.4212 91.2095C87.8846 87.0521 91.4552 82.02 93.9137 76.4229C96.3722 70.8256 97.6664 64.7817 97.7169 58.6625C97.9455 33.7815 77.8409 13.3088 53.1079 13.2501C28.3608 13.1914 8.28128 33.3558 8.28128 58.2383C8.27422 64.4314 9.54179 70.5587 12.0042 76.2349C14.4665 81.9109 18.0704 87.0126 22.5888 91.2186C23.6564 92.2078 25.0562 92.7548 26.5077 92.75Z" fill="url(#paint0_linear_415_1043)"/>
<path d="M45.3202 81.8427C45.4891 79.8682 44.4594 78.1679 43.0201 78.0447C41.5808 77.9215 40.2769 79.4223 40.108 81.3967C39.939 83.3712 40.969 85.0715 42.4083 85.1947C43.8476 85.3179 45.1513 83.8171 45.3202 81.8427Z" fill="#738DED"/>
<path d="M43.6898 84.2885C44.0534 82.8904 42.7936 81.3526 40.8756 80.8539C38.9579 80.3549 37.1085 81.0839 36.7447 82.482C36.3812 83.8801 37.641 85.4177 39.5589 85.9166C41.4766 86.4154 43.3263 85.6864 43.6898 84.2885Z" fill="#738DED"/>
<path d="M43.3248 85.1318C44.6301 84.2086 44.662 82.0087 43.3956 80.2179C42.1294 78.4273 40.0446 77.7238 38.7393 78.6469C37.4339 79.5699 37.4021 81.77 38.6685 83.5606C39.9347 85.3514 42.0195 86.0549 43.3248 85.1318Z" fill="#738DED"/>
<path d="M67.0672 18.4004C67.7705 18.4004 68.4667 18.5389 69.1162 18.808C69.7658 19.0771 70.3561 19.4715 70.8534 19.9687C71.3504 20.4659 71.7448 21.0562 72.014 21.7058C72.2831 22.3553 72.4216 23.0515 72.4216 23.7548C72.4216 23.7583 72.4214 23.7619 72.4214 23.7654L76.4331 22.9675V29.1091H67.0672C65.6478 29.1082 64.2867 28.5437 63.2833 27.5398C62.2798 26.5357 61.7162 25.1742 61.7162 23.7548C61.7162 22.3352 62.2798 20.974 63.2833 19.9698C64.2867 18.9658 65.6478 18.4013 67.0672 18.4004Z" fill="#D4D9E3"/>
<path d="M76.433 11.1167C78.4706 11.1169 80.448 11.8087 82.0415 13.0788C83.635 14.349 84.7503 16.1224 85.2048 18.1088C85.9643 17.9611 86.7465 17.9739 87.5009 18.1463C88.2554 18.3187 88.9655 18.6469 89.5855 19.1099C90.2056 19.5729 90.7219 20.1605 91.1016 20.8348C91.4813 21.5093 91.7157 22.2554 91.7898 23.0258C91.8641 23.7961 91.7763 24.5733 91.5325 25.3077C91.2884 26.0422 90.8938 26.7176 90.3733 27.2904C89.853 27.8631 89.2187 28.3208 88.511 28.634C87.8034 28.9473 87.038 29.109 86.2641 29.109H76.433C74.047 29.109 71.7589 28.1612 70.0718 26.4741C68.3845 24.787 67.4367 22.4989 67.4367 20.1129C67.4367 17.727 68.3845 15.4387 70.0718 13.7516C71.7589 12.0645 74.047 11.1167 76.433 11.1167Z" fill="#D4D9E3"/>
<path d="M68.8818 67.1495H59.662C58.4816 67.1495 57.3493 66.6805 56.5146 65.8458C55.6798 65.011 55.2109 63.8788 55.2109 62.6983C55.2109 61.5178 55.6798 60.3855 56.5146 59.5508C57.3493 58.716 58.4816 58.2471 59.662 58.2471H68.8818C70.3136 58.2455 71.6862 57.6759 72.6986 56.6635C73.711 55.6512 74.2805 54.2785 74.2822 52.8467V45.7397C74.2822 44.5593 74.7511 43.427 75.5859 42.5922C76.4206 41.7575 77.5529 41.2886 78.7334 41.2886C79.9138 41.2886 81.0461 41.7575 81.8809 42.5922C82.7156 43.427 83.1845 44.5593 83.1845 45.7397V52.8467C83.1802 56.6387 81.672 60.2742 78.9905 62.9556C76.3092 65.6369 72.6738 67.1451 68.8818 67.1495Z" fill="#D4D9E3"/>
<path d="M54.0257 13.8027C56.8357 13.8027 59.5306 14.919 61.5177 16.906C63.5046 18.893 64.6209 21.5878 64.6209 24.3978V89.6645H43.4304V24.3978C43.4304 21.5878 44.5467 18.893 46.5338 16.906C48.5207 14.919 51.2156 13.8027 54.0257 13.8027Z" fill="#E5E9F1"/>
<path d="M31.1346 49.8579C30.4315 49.8579 29.7353 49.9964 29.0856 50.2653C28.436 50.5345 27.8457 50.9289 27.3486 51.4262C26.8514 51.9233 26.457 52.5135 26.1878 53.1632C25.9187 53.8128 25.7804 54.5091 25.7804 55.2122C25.7804 55.2159 25.7806 55.2194 25.7806 55.2229L21.7687 54.4248V60.5666H31.1346C32.5547 60.5666 33.9167 60.0024 34.9208 58.9983C35.9249 57.9942 36.4891 56.6324 36.4891 55.2122C36.4891 53.7921 35.9249 52.4303 34.9208 51.4262C33.9167 50.4221 32.5547 49.8579 31.1346 49.8579Z" fill="#D4D9E3"/>
<path d="M21.7687 42.5742C19.7309 42.5744 17.7535 43.2661 16.1601 44.5363C14.5666 45.8064 13.4514 47.5798 12.9968 49.5663C12.2372 49.4185 11.4551 49.4313 10.7007 49.6038C9.94624 49.776 9.23621 50.1044 8.61615 50.5673C7.99607 51.0304 7.47963 51.618 7.10002 52.2923C6.7204 52.9666 6.48598 53.7129 6.4118 54.4833C6.3376 55.2534 6.4253 56.0308 6.66925 56.7652C6.91319 57.4995 7.30798 58.1749 7.82831 58.7477C8.34862 59.3206 8.98297 59.7783 9.69062 60.0915C10.3983 60.4048 11.1636 60.5665 11.9374 60.5665H21.7687C24.1539 60.5654 26.441 59.617 28.1271 57.9301C29.8133 56.243 30.7605 53.9556 30.7605 51.5703C30.7605 49.1851 29.8133 46.8977 28.1271 45.2106C26.441 43.5237 24.1539 42.5753 21.7687 42.5742Z" fill="#D4D9E3"/>
<path d="M50.9235 54.6833L43.4306 66.1759V53.6836L50.9235 54.6833Z" fill="#D4D9E3"/>
<path d="M48.4968 55.4039H39.2771C35.4851 55.3995 31.8497 53.8913 29.1682 51.21C26.4869 48.5286 24.9787 44.8931 24.9744 41.1011V33.9941C24.9744 32.8136 25.4433 31.6816 26.278 30.8468C27.1128 30.0121 28.245 29.543 29.4255 29.543C30.606 29.543 31.7383 30.0121 32.573 30.8468C33.4078 31.6816 33.8767 32.8136 33.8767 33.9941V41.1011C33.8784 42.5329 34.4477 43.9056 35.4603 44.9179C36.4727 45.9303 37.8453 46.4999 39.2771 46.5015H48.4968C49.6773 46.5015 50.8096 46.9704 51.6443 47.8052C52.4791 48.6399 52.948 49.7722 52.948 50.9527C52.948 52.1332 52.4791 53.2654 51.6443 54.1002C50.8096 54.9349 49.6773 55.4039 48.4968 55.4039Z" fill="#E5E9F1"/>
<path opacity="0.3" d="M45.8568 20.0201C45.479 20.3388 45.4311 20.9036 45.7498 21.2814L47.0046 22.7685C47.3234 23.1464 47.888 23.1942 48.2658 22.8754C48.6436 22.5565 48.6915 21.992 48.3728 21.6141L47.118 20.127C46.7992 19.7491 46.2346 19.7013 45.8568 20.0201Z" fill="white"/>
<path opacity="0.3" d="M78.3396 46.8984C78.021 46.5206 77.4562 46.4728 77.0784 46.7916C76.7005 47.1104 76.6527 47.675 76.9715 48.0528L78.2264 49.54C78.545 49.9178 79.1098 49.9656 79.4876 49.647C79.8654 49.3282 79.9133 48.7634 79.5944 48.3858L78.3396 46.8984Z" fill="white"/>
<path opacity="0.3" d="M60.0635 62.7538C59.6857 63.0727 59.6379 63.6374 59.9565 64.0153L61.2113 65.5024C61.5301 65.8802 62.0947 65.928 62.4725 65.6092C62.8504 65.2906 62.8982 64.7258 62.5796 64.348L61.3247 62.8609C61.0059 62.483 60.4413 62.4352 60.0635 62.7538Z" fill="white"/>
<path opacity="0.3" d="M64.2149 44.8582C64.0661 44.3868 63.5632 44.1253 63.0918 44.2742L61.2363 44.8599C60.7649 45.0088 60.5035 45.5114 60.6523 45.9828C60.801 46.4542 61.3038 46.7157 61.7753 46.5671L63.6307 45.9812C64.1021 45.8325 64.3636 45.3296 64.2149 44.8582Z" fill="white"/>
<path opacity="0.3" d="M33.1505 41.9116C33.0016 41.4402 32.4987 41.1787 32.0275 41.3273L30.1719 41.913C29.7005 42.0619 29.439 42.5648 29.5879 43.0362C29.7365 43.5074 30.2394 43.7691 30.7108 43.6202L32.5662 43.0345C33.0376 42.8857 33.2991 42.383 33.1505 41.9116Z" fill="white"/>
<path opacity="0.3" d="M53.7488 74.964C54.214 74.7967 54.4554 74.2841 54.2881 73.8189L53.6296 71.9879C53.4623 71.5227 52.9495 71.2813 52.4845 71.4486C52.0193 71.6161 51.7779 72.1287 51.9452 72.5939L52.6037 74.4248C52.771 74.8898 53.2838 75.1312 53.7488 74.964Z" fill="white"/>
<path opacity="0.3" d="M50.2086 42.1126C50.7017 42.0776 51.0731 41.6497 51.0384 41.1566C51.0034 40.6636 50.5754 40.292 50.0823 40.327L48.1414 40.4642C47.6484 40.4992 47.2768 40.9272 47.3118 41.4203C47.3466 41.9135 47.7747 42.2849 48.2677 42.2499L50.2086 42.1126Z" fill="white"/>
<path opacity="0.3" d="M79.3165 58.7557C79.8097 58.7207 80.1811 58.2928 80.1463 57.7996C80.1113 57.3067 79.6834 56.9351 79.1903 56.9701L77.2493 57.1073C76.7562 57.1423 76.3848 57.5702 76.4198 58.0634C76.4545 58.5565 76.8825 58.9279 77.3756 58.893L79.3165 58.7557Z" fill="white"/>
<path opacity="0.3" d="M29.3254 37.2606C29.7032 36.942 29.751 36.3772 29.4322 35.9994L28.1776 34.5122C27.8587 34.1344 27.294 34.0866 26.9161 34.4052V34.4054C26.5385 34.724 26.4905 35.2888 26.8093 35.6667L28.0641 37.1538C28.3827 37.5316 28.9475 37.5794 29.3254 37.2606Z" fill="white"/>
<path opacity="0.3" d="M58.8911 56.297C59.0074 55.8167 58.7122 55.3328 58.2319 55.2165L56.3406 54.7587C55.8603 54.6424 55.3765 54.9376 55.2602 55.4179V55.4181C55.1438 55.8985 55.439 56.3823 55.9195 56.4986L57.8106 56.9564C58.2911 57.0727 58.7749 56.7775 58.8911 56.297Z" fill="white"/>
<path opacity="0.3" d="M42.5988 54.0794C43.0917 54.0446 43.4633 53.6165 43.4283 53.1235C43.3936 52.6304 42.9654 52.259 42.4723 52.2938L40.5314 52.4312C40.0384 52.466 39.667 52.8939 39.7018 53.3871C39.7368 53.8802 40.1647 54.2517 40.6578 54.2167L42.5988 54.0794Z" fill="white"/>
<path opacity="0.3" d="M54.9074 30.7822C54.6213 31.1851 54.7159 31.7439 55.119 32.0302C55.5221 32.3163 56.0806 32.2217 56.367 31.8186L57.4936 30.2321C57.7797 29.8293 57.6851 29.2705 57.282 28.9842C56.8789 28.698 56.3204 28.7927 56.034 29.1957L54.9074 30.7822Z" fill="white"/>
<path opacity="0.3" d="M32.0747 51.3807C32.4778 51.667 33.0366 51.5722 33.3227 51.1691L34.4494 49.5828C34.7357 49.1797 34.6409 48.621 34.238 48.3349C33.8349 48.0485 33.2761 48.1433 32.9898 48.5462L31.8634 50.1327C31.577 50.5358 31.6719 51.0946 32.0747 51.3807Z" fill="white"/>
<path opacity="0.3" d="M67.9046 64.7847C67.6183 65.1876 67.7131 65.7463 68.116 66.0327C68.5191 66.3188 69.0779 66.2242 69.364 65.8211L70.4906 64.2346C70.777 63.8317 70.6821 63.2729 70.2791 62.9866C69.8762 62.7005 69.3174 62.7951 69.0311 63.1982L67.9046 64.7847Z" fill="white"/>
<path opacity="0.3" d="M45.9796 63.1414C46.3827 63.4278 46.9414 63.3329 47.2276 62.9301L48.3542 61.3436C48.6406 60.9405 48.5457 60.3817 48.1429 60.0956C47.7398 59.8093 47.181 59.9041 46.8949 60.307L45.7682 61.8935C45.4819 62.2965 45.5767 62.8553 45.9796 63.1414Z" fill="white"/>
<path d="M69.3938 77.9428C70.5486 76.9882 70.9206 75.5319 70.2246 74.6901C69.5287 73.8485 68.0286 73.9401 66.8738 74.8947C65.7192 75.8493 65.3471 77.3056 66.043 78.1473C66.739 78.9889 68.2391 78.8974 69.3938 77.9428Z" fill="#738DED"/>
<path d="M67.2108 78.3586C68.1578 77.8143 68.3201 76.3202 67.5733 75.0211C66.8268 73.7222 65.454 73.1106 64.507 73.6549C63.56 74.1992 63.3977 75.6933 64.1445 76.9922C64.8913 78.2911 66.2641 78.9029 67.2108 78.3586Z" fill="#738DED"/>
<path d="M69.2513 76.0437C69.5468 74.4121 68.8219 72.9146 67.6325 72.6993C66.4431 72.484 65.2393 73.632 64.9438 75.2638C64.6484 76.8954 65.3732 78.3927 66.5626 78.6082C67.752 78.8235 68.9557 77.6753 69.2513 76.0437Z" fill="#738DED"/>
<path d="M93.6156 92.5562C93.8794 92.5568 94.138 92.4843 94.3628 92.3467C94.5878 92.2092 94.7702 92.0119 94.8897 91.7769C95.0094 91.5419 95.0613 91.2784 95.0402 91.0157C95.0189 90.7529 94.9253 90.5012 94.7696 90.2884C88.7115 82.1518 78.5371 76.8125 67.0055 76.8125C55.474 76.8125 45.2997 82.1518 39.2416 90.2884C39.0859 90.5012 38.9923 90.7529 38.971 91.0157C38.9498 91.2784 39.0018 91.5419 39.1215 91.7769C39.2409 92.0119 39.4233 92.2092 39.6482 92.3467C39.8732 92.4843 40.1318 92.5568 40.3955 92.5562H93.6156Z" fill="#D4D9E3"/>
<path d="M55.4355 90.4447C56.3466 89.6915 56.64 88.5425 56.0909 87.8784C55.5419 87.2142 54.3581 87.2863 53.4472 88.0396C52.536 88.7928 52.2424 89.9418 52.7917 90.606C53.3407 91.2702 54.5243 91.1979 55.4355 90.4447Z" fill="#738DED"/>
<path d="M53.713 90.7731C54.4602 90.3435 54.5882 89.1646 53.9992 88.1396C53.41 87.1148 52.3268 86.6322 51.5796 87.0616C50.8326 87.491 50.7045 88.67 51.2937 89.6949C51.8827 90.7199 52.9661 91.2024 53.713 90.7731Z" fill="#738DED"/>
<path d="M55.3229 88.9464C55.556 87.6589 54.9842 86.4776 54.0457 86.3076C53.1072 86.1376 52.1574 87.0436 51.9242 88.3309C51.6911 89.6184 52.2629 90.7998 53.2014 90.9697C54.1399 91.1397 55.0898 90.2337 55.3229 88.9464Z" fill="#738DED"/>
<path d="M55.3629 92.5564C50.843 86.8576 42.2599 83.0098 32.4135 83.0098C23.7786 83.0098 16.1154 85.9691 11.3119 90.5405C11.1438 90.703 11.0281 90.9119 10.9797 91.1407C10.9313 91.3695 10.9523 91.6074 11.0402 91.8241C11.128 92.0409 11.2785 92.2262 11.4726 92.3568C11.6665 92.4872 11.8951 92.5568 12.1289 92.5564H55.3629Z" fill="#E5E9F1"/>
<defs>
<linearGradient id="paint0_linear_415_1043" x1="53" y1="13.25" x2="53" y2="92.75" gradientUnits="userSpaceOnUse">
<stop stop-color="#FBFDFE"/>
<stop offset="1" stop-color="#F0F5FA"/>
</linearGradient>
</defs>
</svg>
