<svg width="77" height="66" viewBox="0 0 77 66" fill="none" xmlns="http://www.w3.org/2000/svg">
<path opacity="0.1" d="M76.6469 45.2606C74.5439 34.6554 62.2227 26.1794 59.8195 15.128C55.4518 1.06772 41.0555 -1.15524 31.7005 4.95115C16.8775 14.6268 32.6906 17.0279 3.62748 39.9199C-3.54886 45.5724 -1.26215 70.5239 21.3142 64.7976C33.4638 61.7159 37.1572 61.2835 42.6222 60.776C56.3968 59.4972 80.1772 63.0627 76.6469 45.2606Z" fill="#70B2E2"/>
<path d="M60.191 47.9184L38.901 59.1627L17.6431 47.9184V30.9385H60.191V47.9184Z" fill="white"/>
<path d="M38.901 59.3353C38.8729 59.3353 38.8451 59.3284 38.8203 59.3151L17.5631 48.0708C17.5354 48.0562 17.5123 48.0344 17.4961 48.0076C17.4799 47.9809 17.4713 47.9503 17.4712 47.919V30.9386C17.4712 30.8928 17.4894 30.849 17.5217 30.8166C17.554 30.7843 17.5979 30.7661 17.6437 30.7661H60.1911C60.2368 30.7661 60.2807 30.7843 60.313 30.8166C60.3454 30.849 60.3635 30.8928 60.3635 30.9386V47.9185C60.3634 47.9497 60.3548 47.9803 60.3386 48.0071C60.3224 48.0338 60.2993 48.0556 60.2716 48.0702L38.9816 59.3147C38.9568 59.3281 38.9291 59.3351 38.901 59.3353ZM17.8156 47.8148L38.901 58.9679L60.0186 47.8146V31.111H17.8156V47.8148Z" fill="#262626"/>
<path d="M60.1914 27.2952L38.9014 16.0508L48.4683 11.4395L69.7584 22.684L60.1914 27.2952Z" fill="white"/>
<path d="M60.1915 27.4675C60.1634 27.4675 60.1358 27.4607 60.1109 27.4476L38.8208 16.2031C38.7926 16.1882 38.7691 16.1657 38.7529 16.1382C38.7367 16.1107 38.7284 16.0793 38.729 16.0474C38.7296 16.0155 38.739 15.9844 38.7562 15.9575C38.7735 15.9306 38.7978 15.909 38.8265 15.8952L48.3934 11.2838C48.4178 11.272 48.4445 11.2661 48.4715 11.2666C48.4986 11.2671 48.5251 11.274 48.5489 11.2867L69.839 22.5312C69.8672 22.5461 69.8907 22.5686 69.9069 22.596C69.9231 22.6235 69.9314 22.655 69.9308 22.6869C69.9302 22.7188 69.9208 22.7499 69.9036 22.7767C69.8864 22.8036 69.8621 22.8252 69.8333 22.839L60.2664 27.4504C60.243 27.4616 60.2174 27.4675 60.1915 27.4675ZM39.284 16.0574L60.1951 27.1016L69.3758 22.6765L48.4648 11.6326L39.284 16.0574Z" fill="#262626"/>
<path d="M17.6431 27.2952L38.9332 16.0508L29.3662 11.4395L8.07617 22.684L17.6431 27.2952Z" fill="white"/>
<path d="M17.6431 27.4675C17.6172 27.4675 17.5916 27.4616 17.5682 27.4504L8.00183 22.839C7.97309 22.8252 7.94876 22.8036 7.93155 22.7767C7.91434 22.7499 7.90491 22.7188 7.90433 22.6869C7.90374 22.655 7.91201 22.6235 7.92823 22.596C7.94444 22.5686 7.96796 22.5461 7.99617 22.5312L29.2862 11.2867C29.3101 11.274 29.3366 11.2671 29.3636 11.2666C29.3906 11.2661 29.4174 11.272 29.4417 11.2838L39.0087 15.8952C39.0374 15.909 39.0617 15.9306 39.0789 15.9575C39.0961 15.9844 39.1055 16.0155 39.1061 16.0474C39.1067 16.0793 39.0984 16.1107 39.0822 16.1382C39.066 16.1657 39.0425 16.1882 39.0143 16.2031L17.7243 27.4476C17.6992 27.4608 17.6714 27.4676 17.6431 27.4675ZM8.45878 22.6768L17.6395 27.1019L38.5506 16.0577L29.3698 11.6326L8.45878 22.6768Z" fill="#262626"/>
<path d="M17.6434 27.2949L38.9335 38.5394L27.9868 44.5303L6.69678 33.286L17.6434 27.2949Z" fill="white"/>
<path d="M27.9867 44.7028C27.9586 44.7029 27.9309 44.696 27.9061 44.6828L6.61607 33.4383C6.58859 33.4238 6.56556 33.402 6.54942 33.3754C6.53328 33.3488 6.52464 33.3183 6.52442 33.2872C6.52419 33.2561 6.53239 33.2255 6.54813 33.1987C6.56388 33.1719 6.58659 33.1498 6.61387 33.1348L17.5605 27.1438C17.5855 27.13 17.6135 27.1228 17.642 27.1226C17.6705 27.1224 17.6987 27.1293 17.7239 27.1427L39.0139 38.3872C39.0414 38.4017 39.0644 38.4235 39.0806 38.4501C39.0967 38.4767 39.1053 38.5072 39.1056 38.5383C39.1058 38.5694 39.0976 38.6 39.0818 38.6268C39.0661 38.6536 39.0434 38.6757 39.0161 38.6907L28.0695 44.6817C28.0441 44.6956 28.0156 44.7029 27.9867 44.7028ZM7.06089 33.2833L27.9852 44.3346L38.5692 38.5421L17.6448 27.4908L7.06089 33.2833Z" fill="#262626"/>
<path d="M60.1914 27.2949L38.9014 38.5394L49.848 44.5303L71.138 33.286L60.1914 27.2949Z" fill="white"/>
<path d="M49.8484 44.7028C49.8194 44.7028 49.791 44.6956 49.7656 44.6817L38.8189 38.6907C38.7917 38.6757 38.769 38.6536 38.7532 38.6268C38.7375 38.6 38.7293 38.5694 38.7295 38.5383C38.7297 38.5072 38.7384 38.4767 38.7545 38.4501C38.7706 38.4235 38.7937 38.4017 38.8212 38.3872L60.1112 27.1427C60.1364 27.1293 60.1645 27.1224 60.193 27.1226C60.2215 27.1228 60.2496 27.13 60.2746 27.1438L71.2212 33.1348C71.2485 33.1498 71.2712 33.1719 71.2869 33.1987C71.3027 33.2255 71.3109 33.2561 71.3106 33.2872C71.3104 33.3183 71.3018 33.3488 71.2856 33.3754C71.2695 33.402 71.2465 33.4238 71.219 33.4383L49.9289 44.6828C49.9041 44.696 49.8764 44.7029 49.8484 44.7028ZM39.2661 38.5421L49.85 44.3346L70.7744 33.2833L60.1904 27.4908L39.2661 38.5421Z" fill="#262626"/>
<path d="M38.9331 16.0508L17.6431 27.2951L38.901 38.5397L60.191 27.2951L38.9331 16.0508Z" fill="#262626"/>
<path d="M39.0734 38.5396H38.7285V59.1631H39.0734V38.5396Z" fill="#262626"/>
<path d="M26.973 26.2746C26.9444 26.2747 26.9166 26.2657 26.8934 26.2491C26.8635 26.228 26.8433 26.1958 26.8371 26.1598C26.8309 26.1237 26.8394 26.0867 26.8605 26.0568C26.886 26.0208 29.3796 22.4159 26.5959 19.1295C26.1032 18.5448 25.4886 18.0749 24.7952 17.7528C24.1018 17.4307 23.3463 17.2641 22.5817 17.2647H22.5441C22.8085 18.183 22.7613 18.9995 22.387 19.6259C22.2275 19.909 21.9921 20.1418 21.7074 20.2983C21.4227 20.4548 21.1 20.5287 20.7755 20.5117C20.5069 20.4897 20.2506 20.3898 20.0379 20.2244C19.8253 20.0589 19.6654 19.835 19.5781 19.5801C19.2719 18.7815 19.5919 18.0072 20.4351 17.5082C20.9694 17.2136 21.563 17.0429 22.172 17.0086C21.9739 16.4833 21.7162 15.9824 21.4041 15.5157C20.399 13.9806 18.5672 12.918 16.3782 12.6002C14.523 12.331 12.7451 12.6481 11.8482 13.4078C11.8203 13.4314 11.7841 13.443 11.7476 13.4399C11.7111 13.4369 11.6774 13.4195 11.6537 13.3915C11.6301 13.3636 11.6185 13.3274 11.6216 13.291C11.6246 13.2545 11.642 13.2207 11.67 13.1971C12.6244 12.3887 14.488 12.047 16.4178 12.3279C18.685 12.6571 20.5865 13.764 21.6351 15.3651C21.975 15.8729 22.2515 16.4204 22.4585 16.9954C23.2833 16.9756 24.102 17.141 24.8544 17.4796C25.6068 17.8182 26.2736 18.3213 26.8057 18.9518C29.7297 22.4036 27.1116 26.1793 27.0849 26.2171C27.0721 26.2349 27.0553 26.2494 27.0358 26.2594C27.0164 26.2694 26.9948 26.2746 26.973 26.2746ZM22.2616 17.2748C21.6711 17.2999 21.0943 17.4611 20.5763 17.7458C19.8484 18.1765 19.5788 18.8093 19.8364 19.4814C19.9062 19.6874 20.0345 19.8686 20.2056 20.0028C20.3767 20.1369 20.5833 20.2183 20.7999 20.237C21.0727 20.2492 21.3436 20.1853 21.5821 20.0524C21.8207 19.9195 22.0176 19.7229 22.1508 19.4845C22.4943 18.9092 22.5258 18.1444 22.2612 17.2748H22.2616Z" fill="#292A2E"/>
<path d="M9.46705 15.6321C9.23259 15.7025 8.9799 15.6787 8.76278 15.5656C8.54565 15.4525 8.38126 15.2591 8.30459 15.0266C8.22791 14.7941 8.24503 14.5409 8.35229 14.3208C8.45954 14.1008 8.64846 13.9313 8.87883 13.8484C9.10919 13.7656 9.3628 13.7759 9.58565 13.8772C9.8085 13.9786 9.98298 14.1629 10.072 14.391C10.1609 14.6191 10.1574 14.8728 10.062 15.0983C9.96664 15.3238 9.78703 15.5031 9.56142 15.5982C9.53061 15.6112 9.4991 15.6225 9.46705 15.6321ZM9.0083 14.099C8.98595 14.1057 8.96398 14.1136 8.94249 14.1227C8.78374 14.1897 8.6574 14.3159 8.59037 14.4746C8.52334 14.6333 8.52093 14.8119 8.58363 14.9724C8.64634 15.1329 8.76922 15.2625 8.9261 15.3337C9.08298 15.4049 9.26146 15.4121 9.42352 15.3536C9.58559 15.2952 9.71844 15.1758 9.79377 15.0209C9.8691 14.8659 9.88097 14.6877 9.82684 14.5241C9.77271 14.3606 9.65686 14.2246 9.50397 14.1452C9.35108 14.0658 9.17323 14.0492 9.0083 14.099Z" fill="#292A2E"/>
<path d="M9.46541 13.47C9.24363 13.5362 9.00519 13.5181 8.79594 13.4192C8.58669 13.3202 8.42141 13.1474 8.33186 12.934C8.26006 12.7629 8.24062 12.5743 8.27599 12.3922C8.31137 12.21 8.39997 12.0424 8.53059 11.9106C8.66121 11.7788 8.82798 11.6887 9.00981 11.6517C9.19165 11.6147 9.38038 11.6324 9.55214 11.7026C9.72389 11.7729 9.87096 11.8925 9.97474 12.0463C10.0785 12.2001 10.1343 12.3813 10.1352 12.5669C10.136 12.7524 10.0818 12.9341 9.97934 13.0888C9.87692 13.2436 9.73091 13.3644 9.55979 13.4362C9.52894 13.4491 9.49744 13.4604 9.46541 13.47ZM9.00722 11.9368C8.9846 11.9435 8.96236 11.9515 8.94058 11.9606C8.77872 12.0286 8.65048 12.1581 8.58405 12.3206C8.51761 12.4831 8.51841 12.6653 8.58627 12.8272C8.63577 12.9452 8.7184 13.0464 8.82417 13.1184C8.92995 13.1905 9.05433 13.2303 9.18228 13.2332C9.31023 13.236 9.43626 13.2017 9.54513 13.1345C9.654 13.0672 9.74105 12.9698 9.79574 12.8541C9.85043 12.7384 9.87042 12.6093 9.8533 12.4825C9.83617 12.3557 9.78266 12.2365 9.69925 12.1394C9.61583 12.0424 9.50607 11.9716 9.38326 11.9356C9.26044 11.8996 9.12983 11.8999 9.00722 11.9366V11.9368Z" fill="#292A2E"/>
<path d="M9.19753 14.4459C9.87508 14.4459 10.4244 14.0791 10.4244 13.6265C10.4244 13.174 9.87508 12.8071 9.19753 12.8071C8.51997 12.8071 7.9707 13.174 7.9707 13.6265C7.9707 14.0791 8.51997 14.4459 9.19753 14.4459Z" fill="white"/>
<path d="M9.74071 14.5058C9.56482 14.5578 9.38232 14.584 9.1989 14.5836C8.43345 14.5836 7.83301 14.1642 7.83301 13.6274C7.83301 13.0905 8.43166 12.6696 9.19684 12.6688C9.53044 12.6624 9.85866 12.7535 10.1412 12.9309C10.2681 12.997 10.3745 13.0967 10.4488 13.219C10.5231 13.3413 10.5624 13.4816 10.5625 13.6247C10.5627 13.7678 10.5236 13.9082 10.4495 14.0307C10.3755 14.1531 10.2693 14.253 10.1425 14.3193C10.0185 14.401 9.88313 14.4639 9.74071 14.5058ZM8.73878 13.0104C8.37012 13.1208 8.10881 13.359 8.10895 13.6267C8.10895 13.996 8.60798 14.3077 9.1989 14.3072C9.47804 14.313 9.75285 14.2375 9.98975 14.0897C10.0786 14.0488 10.1538 13.9832 10.2066 13.9009C10.2593 13.8185 10.2872 13.7227 10.2872 13.6248C10.2871 13.527 10.2589 13.4313 10.2061 13.349C10.1532 13.2667 10.0778 13.2013 9.98892 13.1605C9.75185 13.013 9.47691 12.938 9.1978 12.9444C9.0424 12.944 8.88777 12.9662 8.73878 13.0104Z" fill="#292A2E"/>
<path d="M9.49836 14.4206L9.46939 12.827L9.07314 12.811L9.04541 14.4392L9.49836 14.4206Z" fill="#292A2E"/>
<path d="M7.57002 13.973C7.63997 13.973 7.69667 13.9163 7.69667 13.8464C7.69667 13.7764 7.63997 13.7197 7.57002 13.7197C7.50007 13.7197 7.44336 13.7764 7.44336 13.8464C7.44336 13.9163 7.50007 13.973 7.57002 13.973Z" fill="#292A2E"/>
<path d="M7.66914 13.2953C7.73909 13.2953 7.79579 13.2386 7.79579 13.1686C7.79579 13.0987 7.73909 13.042 7.66914 13.042C7.59919 13.042 7.54248 13.0987 7.54248 13.1686C7.54248 13.2386 7.59919 13.2953 7.66914 13.2953Z" fill="#292A2E"/>
<path d="M48.6516 18.3175C48.6221 18.3175 48.5933 18.308 48.5696 18.2905C48.5459 18.2729 48.5284 18.2482 48.5197 18.22C48.0621 16.511 47.94 14.7296 48.1602 12.9742C48.5168 10.408 49.9321 7.04002 54.6489 5.56527C55.3125 5.35189 55.9933 5.19582 56.6836 5.09879C56.9059 3.71068 57.7514 2.20489 59.6423 1.16598C64.1348 -1.30257 67.1695 0.91225 67.1995 0.934877C67.2288 0.956832 67.2482 0.989517 67.2533 1.02574C67.2585 1.06196 67.2491 1.09876 67.2271 1.12803C67.2052 1.15731 67.1725 1.17666 67.1363 1.18184C67.1 1.18701 67.0632 1.17758 67.034 1.15563C67.0053 1.13411 64.1052 -0.971445 59.7753 1.40797C58.0084 2.37887 57.1996 3.77236 56.9697 5.06596C59.0501 4.86107 60.0464 5.55506 60.4935 6.0792C60.7702 6.3944 60.948 6.78403 61.0047 7.19956C61.0615 7.61509 60.9948 8.03814 60.8128 8.41599C60.669 8.7214 60.4359 8.97601 60.1444 9.1462C59.8529 9.31639 59.5166 9.39415 59.1799 9.36922C58.0181 9.30106 57.0566 8.32369 56.7307 6.87915C56.6232 6.39015 56.5946 5.88711 56.646 5.38908C55.9966 5.48236 55.3562 5.62963 54.7314 5.82934C51.0552 6.97876 48.9367 9.39585 48.4333 13.013C48.2177 14.7285 48.3366 16.4696 48.7835 18.1399C48.7898 18.1606 48.7912 18.1824 48.7876 18.2037C48.7839 18.2249 48.7754 18.245 48.7625 18.2624C48.7497 18.2797 48.733 18.2938 48.7137 18.3035C48.6945 18.3133 48.6732 18.3183 48.6516 18.3183V18.3175ZM56.9273 5.35459C56.8698 5.84313 56.8943 6.33784 56.9999 6.81831C57.298 8.13978 58.1601 9.03285 59.1961 9.0937C59.4784 9.11393 59.7603 9.04834 60.0048 8.90554C60.2492 8.76273 60.4448 8.54939 60.5658 8.29347C60.7236 7.96398 60.7809 7.59535 60.7306 7.23352C60.6804 6.87168 60.5248 6.53262 60.2833 6.25856C59.6381 5.50153 58.4608 5.19579 56.9273 5.35459Z" fill="#292A2E"/>
<path d="M70.4135 2.32915C70.2277 2.32876 70.0457 2.27583 69.8887 2.17647C69.7317 2.07712 69.6059 1.93538 69.526 1.76762C69.4461 1.59986 69.4152 1.41291 69.437 1.22836C69.4587 1.04381 69.5322 0.869179 69.649 0.724616C69.7658 0.580054 69.921 0.471456 70.0969 0.411356C70.2727 0.351256 70.462 0.342104 70.6428 0.384956C70.8236 0.427808 70.9886 0.520918 71.1188 0.653539C71.249 0.78616 71.339 0.952886 71.3784 1.13447C71.4094 1.27842 71.4077 1.42746 71.3736 1.57068C71.3395 1.7139 71.2737 1.84768 71.1812 1.96222C71.0887 2.07675 70.9718 2.16915 70.8389 2.23264C70.7061 2.29613 70.5607 2.3291 70.4135 2.32915ZM70.4156 0.634335C70.2688 0.634332 70.1257 0.679844 70.0059 0.764598C69.8861 0.849353 69.7955 0.969177 69.7467 1.10756C69.6978 1.24594 69.6931 1.39606 69.7332 1.53723C69.7732 1.67841 69.8561 1.80369 69.9703 1.8958C70.0846 1.98791 70.2245 2.04232 70.371 2.05154C70.5175 2.06075 70.6632 2.02431 70.7881 1.94724C70.9129 1.87018 71.0108 1.75627 71.0683 1.62123C71.1257 1.48619 71.1398 1.33666 71.1087 1.19325C71.0751 1.03458 70.9878 0.892358 70.8615 0.790549C70.7352 0.68874 70.5777 0.63357 70.4156 0.634335Z" fill="#292A2E"/>
<path d="M69.9978 4.58077C69.745 4.58075 69.5017 4.48379 69.3182 4.30984C69.1346 4.13589 69.0248 3.89819 69.0112 3.64568C68.9976 3.39317 69.0814 3.14507 69.2452 2.95244C69.409 2.75982 69.6405 2.63733 69.8919 2.6102C70.1433 2.58307 70.3955 2.65336 70.5967 2.8066C70.7979 2.95983 70.9326 3.18436 70.9732 3.43395C71.0138 3.68354 70.9572 3.93921 70.815 4.14831C70.6728 4.35741 70.4558 4.50404 70.2088 4.558C70.1395 4.57313 70.0688 4.58076 69.9978 4.58077ZM70.0013 2.88581C69.9502 2.88584 69.8994 2.89134 69.8495 2.90223C69.6733 2.94094 69.5186 3.04572 69.4172 3.19502C69.3159 3.34432 69.2756 3.52678 69.3047 3.70486C69.3338 3.88294 69.4301 4.04309 69.5737 4.15237C69.7173 4.26164 69.8973 4.31173 70.0767 4.29232C70.2561 4.27291 70.4212 4.18549 70.5381 4.04803C70.655 3.91058 70.7148 3.73355 70.7051 3.55336C70.6954 3.37318 70.6171 3.20355 70.4862 3.07938C70.3552 2.95521 70.1817 2.88594 70.0013 2.88581Z" fill="#292A2E"/>
<path d="M71.4796 2.73246C71.5666 2.2612 71.0651 1.77363 70.3595 1.64343C69.654 1.51323 69.0115 1.78972 68.9245 2.26097C68.8376 2.73223 69.3391 3.2198 70.0446 3.35C70.7502 3.4802 71.3927 3.20371 71.4796 2.73246Z" fill="white"/>
<path d="M70.392 3.51995C70.267 3.51975 70.1424 3.50821 70.0195 3.48546C69.6725 3.42789 69.3499 3.27033 69.0911 3.03209C68.9778 2.93546 68.8908 2.81183 68.8379 2.67264C68.7851 2.53345 68.7682 2.38318 68.7888 2.23573C68.8222 2.09065 68.8916 1.95632 68.9907 1.84515C69.0897 1.73398 69.2152 1.64957 69.3554 1.59969C69.6836 1.47574 70.0395 1.44387 70.3845 1.50753C70.7295 1.5712 71.0505 1.72797 71.3128 1.9609C71.4261 2.05753 71.5132 2.18116 71.566 2.32035C71.6188 2.45954 71.6357 2.60981 71.6151 2.75726C71.5817 2.90234 71.5123 3.03667 71.4132 3.14784C71.3142 3.25901 71.1887 3.34342 71.0485 3.3933C70.8404 3.47939 70.6171 3.52248 70.392 3.51995ZM70.0109 1.7487C69.8236 1.74632 69.6377 1.78184 69.4644 1.85314C69.3664 1.88596 69.2781 1.94271 69.2075 2.01826C69.1369 2.09381 69.0863 2.18577 69.0602 2.28582C69.0489 2.38858 69.0633 2.49255 69.1023 2.58831C69.1413 2.68407 69.2035 2.7686 69.2834 2.83424C69.5066 3.02903 69.7781 3.16018 70.0694 3.21395C70.3607 3.26772 70.6611 3.24212 70.9391 3.13985C71.0371 3.10703 71.1254 3.05028 71.196 2.97473C71.2666 2.89918 71.3172 2.80722 71.3433 2.70717C71.3547 2.6044 71.3403 2.50041 71.3013 2.40463C71.2623 2.30886 71.2 2.22434 71.1201 2.15875C70.9004 1.95838 70.6271 1.82639 70.3336 1.77892C70.2274 1.75913 70.1196 1.74901 70.0115 1.7487H70.0109Z" fill="#292A2E"/>
<path d="M70.0426 1.61133L69.7651 3.27607L70.1745 3.36933L70.5178 1.67935L70.0426 1.61133Z" fill="#292A2E"/>
<path d="M71.7059 3.40249C71.78 3.40249 71.84 3.34245 71.84 3.26838C71.84 3.19432 71.78 3.13428 71.7059 3.13428C71.6318 3.13428 71.5718 3.19432 71.5718 3.26838C71.5718 3.34245 71.6318 3.40249 71.7059 3.40249Z" fill="#292A2E"/>
<path d="M71.9398 2.71597C72.0138 2.71597 72.0739 2.65593 72.0739 2.58186C72.0739 2.5078 72.0138 2.44775 71.9398 2.44775C71.8657 2.44775 71.8057 2.5078 71.8057 2.58186C71.8057 2.65593 71.8657 2.71597 71.9398 2.71597Z" fill="#292A2E"/>
</svg>
