<svg width="48" height="48" viewBox="0 0 48 48" fill="none" xmlns="http://www.w3.org/2000/svg">
<circle cx="24" cy="24" r="24" fill="#BEDEF5"/>
<path d="M33.07 24.6999L31.81 24.1199C31.2531 23.8656 30.6318 23.7877 30.0294 23.8968C29.427 24.0058 28.8724 24.2965 28.44 24.7299L27.59 25.5899C27.4254 25.7546 27.2085 25.8568 26.9766 25.8787C26.7448 25.9006 26.5125 25.8409 26.32 25.7099L25.44 25.1299C24.2379 24.3377 23.2019 23.3187 22.39 22.1299L21.8 21.2499C21.6703 21.0562 21.6122 20.8233 21.636 20.5914C21.6597 20.3596 21.7637 20.1432 21.93 19.9799L22.75 19.1599C23.1809 18.7303 23.4709 18.1798 23.5817 17.5814C23.6924 16.9831 23.6186 16.3653 23.37 15.8099L22.81 14.4999C22.4797 13.7596 21.9744 13.1107 21.3375 12.6091C20.7007 12.1075 19.9514 11.7683 19.1543 11.6207C18.3572 11.4731 17.5362 11.5215 16.7619 11.7618C15.9877 12.002 15.2835 12.4269 14.71 12.9999L14.16 13.5499C12.5577 15.173 11.6257 17.3402 11.5497 19.6197C11.4737 21.8992 12.2593 24.1237 13.75 25.8499C16.2064 28.7188 18.8811 31.3935 21.75 33.8499C23.4759 35.3312 25.6987 36.1042 27.9713 36.0133C30.244 35.9223 32.3979 34.9743 34 33.3599L34.57 32.7799C35.1399 32.209 35.5632 31.5087 35.8038 30.7388C36.0445 29.9688 36.0952 29.1521 35.9518 28.3583C35.8083 27.5645 35.475 26.8172 34.9801 26.1801C34.4853 25.5431 33.8437 25.0352 33.11 24.6999H33.07Z" fill="#2B74B9"/>
<path d="M33 12H29C28.7348 12 28.4804 12.1054 28.2929 12.2929C28.1054 12.4804 28 12.7348 28 13C28 13.2652 28.1054 13.5196 28.2929 13.7071C28.4804 13.8946 28.7348 14 29 14H32.59L26.29 20.29C26.1963 20.383 26.1219 20.4936 26.0711 20.6154C26.0203 20.7373 25.9942 20.868 25.9942 21C25.9942 21.132 26.0203 21.2627 26.0711 21.3846C26.1219 21.5064 26.1963 21.617 26.29 21.71C26.383 21.8037 26.4936 21.8781 26.6154 21.9289C26.7373 21.9797 26.868 22.0058 27 22.0058C27.132 22.0058 27.2627 21.9797 27.3846 21.9289C27.5064 21.8781 27.617 21.8037 27.71 21.71L34 15.41V19C34 19.2652 34.1054 19.5196 34.2929 19.7071C34.4804 19.8946 34.7348 20 35 20C35.2652 20 35.5196 19.8946 35.7071 19.7071C35.8946 19.5196 36 19.2652 36 19V15C36 14.2044 35.6839 13.4413 35.1213 12.8787C34.5587 12.3161 33.7956 12 33 12Z" fill="#2B74B9"/>
</svg>
