<svg width="37" height="37" viewBox="0 0 37 37" fill="none" xmlns="http://www.w3.org/2000/svg">
<circle cx="18.5" cy="18.5" r="18.5" fill="#D3EDFF"/>
<path d="M19.7614 8.92473C19.9143 8.58957 20.1997 8.49504 20.4368 8.48473C20.7978 8.46754 21.1759 8.71676 21.5317 9.01066C21.7843 9.29598 22.0868 9.51598 22.4375 9.67066C22.6798 9.7566 22.9204 9.77379 23.1645 9.76176C23.5083 9.74457 23.8572 9.66894 24.2026 9.65176L24.2215 9.65004L24.3779 9.63629C24.7733 9.61738 25.1462 9.71019 25.5003 9.91473C25.8251 10.2104 25.9678 10.5782 25.9231 11.0216C25.8475 11.3877 25.9128 11.7229 26.1173 12.0271C26.4697 12.2746 26.8392 12.4911 27.2276 12.675C27.6298 12.895 27.8825 13.2268 27.9925 13.6685C28.032 14.136 27.8154 14.435 27.3479 14.5639C26.7395 14.7169 25.9214 14.7169 25.2322 15.2497C24.225 16.0902 23.9087 16.9375 23.4704 17.0664C23.2556 16.8224 21.915 15.786 19.6668 15.2893C19.2647 13.9022 19.0206 10.5541 19.7614 8.92473Z" fill="#2B74B9"/>
<path d="M22.0303 14.9938C22.4256 14.2032 23.5514 12.8127 23.8212 13.0877C24.0876 13.3868 23.474 14.9405 23.0426 15.7019C22.8896 15.5404 22.3964 15.2018 22.1815 15.145" fill="#2B74B9"/>
<path d="M24.0186 17.5255C23.7866 17.5255 23.5597 17.4069 23.4308 17.1938C22.2483 15.2482 19.5705 15.4527 19.5447 15.4561C19.1666 15.4871 18.8332 15.2086 18.8005 14.8322C18.7845 14.6512 18.8408 14.4711 18.957 14.3314C19.0733 14.1916 19.24 14.1035 19.421 14.0863C19.5654 14.0725 22.9736 13.7924 24.6065 16.4822C24.8041 16.8071 24.6993 17.2299 24.3761 17.4258C24.2627 17.4928 24.1407 17.5255 24.0186 17.5255Z" fill="white"/>
<path d="M24.5102 28.9808C21.566 29.7061 17.4736 29.6545 14.55 29.077C11.8138 28.5356 9.71863 26.9217 9.95926 23.7455C10.2033 20.5314 12.3329 17.5047 15.2616 16.171C18.0958 14.8802 21.8994 14.2511 23.9035 17.1799C24.4019 17.9086 25.3541 19.526 25.3988 20.32C25.4022 20.3836 25.4057 20.4403 25.4194 20.4953C25.4229 20.6947 25.5036 20.8958 25.6996 21.0436C26.9594 21.9975 27.8772 23.2625 28.0457 24.9967C28.245 27.0644 26.2891 28.5425 24.5102 28.9808Z" fill="#2B74B9"/>
<path d="M19 27L19.705 26.295L16.915 23.5H23V22.5H16.915L19.705 19.705L19 19L15 23L19 27Z" fill="white"/>
</svg>
